<svg width="3000" height="3000" viewBox="0 0 3000 3000" fill="none" xmlns="http://www.w3.org/2000/svg">
<path d="M820.772 2211.51L1022.17 2216.7C1027.25 2216.79 1032.19 2214.96 1035.98 2211.57C1039.78 2208.18 1042.15 2203.48 1042.63 2198.41L1052.73 2096.9C1052.95 2094.12 1052.61 2091.33 1051.72 2088.69C1050.82 2086.05 1049.4 2083.62 1047.53 2081.55C1045.67 2079.48 1043.4 2077.81 1040.87 2076.65C1038.34 2075.49 1035.6 2074.86 1032.81 2074.79L784.477 2072.34V2211.51H820.772Z" fill="white"/>
<path d="M1022.44 2222.15H1021.89L820.499 2216.97H779.019V2066.88L1032.81 2069.33C1036.36 2069.4 1039.86 2070.18 1043.09 2071.63C1046.33 2073.09 1049.24 2075.18 1051.64 2077.79C1053.97 2080.46 1055.74 2083.59 1056.82 2086.97C1057.9 2090.35 1058.27 2093.91 1057.92 2097.44L1048.09 2198.96C1047.42 2205.3 1044.43 2211.18 1039.7 2215.46C1034.97 2219.74 1028.82 2222.12 1022.44 2222.15V2222.15ZM789.935 2206.05H820.772L1022.17 2211.24C1025.9 2211.32 1029.52 2209.99 1032.31 2207.51C1035.09 2205.03 1036.83 2201.58 1037.18 2197.87L1047.27 2096.35C1047.41 2094.33 1047.14 2092.29 1046.49 2090.37C1045.83 2088.45 1044.8 2086.68 1043.45 2085.16C1042.12 2083.65 1040.48 2082.43 1038.65 2081.58C1036.82 2080.73 1034.83 2080.28 1032.81 2080.25L789.935 2077.79V2206.05Z" fill="#282928"/>
<path d="M802.487 2150.11C801.039 2150.11 799.651 2149.54 798.627 2148.51C797.604 2147.49 797.029 2146.1 797.029 2144.65C797.029 2143.2 797.604 2141.82 798.627 2140.79C799.651 2139.77 801.039 2139.19 802.487 2139.19L1047.82 2137.83C1049.27 2137.83 1050.65 2138.41 1051.68 2139.43C1052.7 2140.45 1053.28 2141.84 1053.28 2143.29C1053.28 2144.74 1052.7 2146.12 1051.68 2147.15C1050.65 2148.17 1049.27 2148.75 1047.82 2148.75L802.487 2150.11V2150.11Z" fill="#282928"/>
<path d="M2167.23 1715.94C2165.53 1756.81 2148.1 1795.45 2118.58 1823.78C2089.05 1852.1 2049.72 1867.91 2008.81 1867.91C1967.9 1867.91 1928.57 1852.1 1899.05 1823.78C1869.53 1795.45 1852.09 1756.81 1850.4 1715.94H2167.23Z" fill="#282928"/>
<path d="M1703.04 2239.35C1701.63 2239.35 1700.29 2238.81 1699.27 2237.85C1698.25 2236.88 1697.65 2235.56 1697.58 2234.16L1694.03 2155.02C1693.95 2154.3 1694.03 2153.57 1694.26 2152.87C1694.48 2152.18 1694.85 2151.54 1695.34 2151C1695.83 2150.46 1696.43 2150.03 1697.1 2149.73C1697.76 2149.44 1698.49 2149.29 1699.22 2149.29C1699.93 2149.26 1700.65 2149.36 1701.33 2149.6C1702 2149.84 1702.62 2150.22 1703.16 2150.7C1703.69 2151.18 1704.12 2151.76 1704.43 2152.41C1704.73 2153.06 1704.91 2153.76 1704.95 2154.48L1708.49 2233.62C1708.5 2235.05 1707.97 2236.43 1707.01 2237.49C1706.05 2238.55 1704.73 2239.21 1703.31 2239.35H1703.04Z" fill="#282928"/>
<path d="M1365.47 2365.97C1364.29 2366.06 1363.12 2365.73 1362.16 2365.03C1361.21 2364.33 1360.54 2363.3 1360.28 2362.15C1350.73 2332.13 1317.17 2337.59 1315.8 2337.86C1314.36 2338.11 1312.87 2337.78 1311.66 2336.94C1310.46 2336.09 1309.64 2334.81 1309.39 2333.36C1309.14 2331.91 1309.47 2330.42 1310.31 2329.22C1311.16 2328.02 1312.44 2327.2 1313.89 2326.95C1329.17 2324.22 1360.56 2327.49 1370.65 2358.87C1371.08 2360.25 1370.95 2361.74 1370.29 2363.02C1369.62 2364.29 1368.48 2365.26 1367.11 2365.7L1365.47 2365.97Z" fill="#282928"/>
<path d="M1525.38 2415.09H1525.11L1332.99 2412.91C1307.61 2414.27 1291.78 2400.35 1287.69 2385.62C1283.6 2370.88 1290.97 2351.78 1308.98 2341.41C1314.61 2338.2 1320.83 2336.16 1327.26 2335.41C1366.28 2330.22 1388.12 2316.03 1392.48 2257.36C1392.97 2250.65 1396.08 2244.4 1401.13 2239.96C1406.19 2235.52 1412.78 2233.24 1419.5 2233.62L1545.03 2239.62C1549.65 2239.76 1554.19 2240.84 1558.37 2242.82C1562.55 2244.79 1566.28 2247.6 1569.32 2251.08C1572.47 2254.48 1574.92 2258.48 1576.51 2262.84C1578.1 2267.19 1578.81 2271.83 1578.6 2276.46L1573.68 2366.52C1573.03 2379.14 1567.74 2391.08 1558.83 2400.05C1549.91 2409.01 1538 2414.37 1525.38 2415.09V2415.09ZM1332.72 2401.99H1332.99L1525.11 2404.17C1534.97 2403.52 1544.26 2399.27 1551.2 2392.23C1558.14 2385.19 1562.26 2375.84 1562.77 2365.97L1567.68 2275.91C1567.83 2272.72 1567.34 2269.54 1566.26 2266.53C1565.17 2263.53 1563.5 2260.77 1561.35 2258.41C1559.19 2256.06 1556.59 2254.15 1553.7 2252.8C1550.81 2251.44 1547.67 2250.68 1544.48 2250.54L1418.95 2244.53C1415.09 2244.31 1411.29 2245.61 1408.38 2248.17C1405.47 2250.72 1403.68 2254.31 1403.4 2258.18C1399.03 2315.48 1378.84 2339.5 1328.9 2346.05C1323.82 2346.81 1318.93 2348.48 1314.44 2350.96C1300.79 2358.87 1294.51 2370.88 1298.06 2382.62C1301.61 2394.35 1311.71 2403.36 1332.72 2401.99V2401.99Z" fill="#282928"/>
<path d="M1398.21 2358.33C1397.03 2358.42 1395.86 2358.09 1394.91 2357.39C1393.95 2356.68 1393.29 2355.66 1393.03 2354.51C1383.48 2324.49 1349.91 2329.95 1348.55 2330.22C1347.23 2330.27 1345.94 2329.85 1344.91 2329.02C1343.88 2328.2 1343.19 2327.03 1342.95 2325.73C1342.72 2324.43 1342.97 2323.1 1343.64 2321.97C1344.32 2320.83 1345.38 2319.99 1346.64 2319.58C1361.92 2316.85 1393.3 2319.85 1403.4 2351.23C1403.83 2352.61 1403.69 2354.1 1403.03 2355.38C1402.37 2356.65 1401.22 2357.62 1399.85 2358.06L1398.21 2358.33Z" fill="#282928"/>
<path d="M1383.75 2314.94C1383.75 2314.94 1406.4 2314.94 1417.32 2324.49C1428.23 2334.04 1453.34 2244.53 1453.34 2244.53L1455.79 2236.89C1456.3 2235.34 1456.44 2233.69 1456.21 2232.08C1455.97 2230.46 1455.37 2228.92 1454.45 2227.58C1453.52 2226.23 1452.3 2225.12 1450.88 2224.32C1449.46 2223.52 1447.87 2223.06 1446.24 2222.97L1398.21 2221.06C1396.64 2220.99 1395.06 2221.23 1393.58 2221.77C1392.09 2222.3 1390.73 2223.13 1389.56 2224.19C1388.39 2225.26 1387.45 2226.54 1386.78 2227.97C1386.11 2229.4 1385.73 2230.95 1385.66 2232.53L1383.75 2314.94Z" fill="white"/>
<path d="M1418.95 2330.49C1417.05 2330.53 1415.2 2329.85 1413.77 2328.58C1406.13 2322.03 1389.48 2320.4 1383.75 2320.4H1378.02L1380.2 2232.53C1380.44 2227.84 1382.5 2223.44 1385.93 2220.25C1387.58 2218.63 1389.55 2217.38 1391.72 2216.58C1393.88 2215.79 1396.19 2215.45 1398.49 2215.61L1446.52 2217.52C1448.99 2217.63 1451.4 2218.3 1453.58 2219.49C1455.75 2220.67 1457.63 2222.33 1459.07 2224.34C1460.44 2226.4 1461.33 2228.76 1461.66 2231.21C1461.99 2233.67 1461.76 2236.17 1460.98 2238.53L1458.52 2246.44C1450.06 2275.92 1434.24 2326.4 1421.41 2330.22L1418.95 2330.49ZM1389.21 2309.75C1396.85 2310.3 1410.22 2312.48 1419.23 2318.76C1425.78 2311.94 1438.88 2275.37 1448.15 2243.17L1450.61 2235.25C1450.87 2234.49 1450.95 2233.68 1450.86 2232.87C1450.76 2232.07 1450.49 2231.3 1450.06 2230.62C1449.61 2229.94 1449.01 2229.39 1448.29 2229.01C1447.58 2228.63 1446.78 2228.43 1445.97 2228.43L1397.94 2226.52C1397.1 2226.45 1396.25 2226.56 1395.45 2226.84C1394.65 2227.13 1393.92 2227.57 1393.3 2228.16C1392 2229.36 1391.22 2231.03 1391.12 2232.8L1389.21 2309.75Z" fill="#282928"/>
<path d="M1500.28 2390.53C1500.28 2394.35 1499.73 2397.08 1499.73 2400.35C1499.73 2401.54 1500.18 2402.68 1500.99 2403.54C1501.8 2404.4 1502.91 2404.92 1504.1 2404.99L1514.74 2406.09C1521.45 2406.87 1528.25 2406.12 1534.63 2403.9C1541.01 2401.68 1546.81 2398.04 1551.58 2393.26C1559.29 2385.56 1563.78 2375.22 1564.13 2364.33L1565.22 2340.59C1565.3 2338.9 1564.72 2337.24 1563.6 2335.97C1562.48 2334.7 1560.91 2333.91 1559.22 2333.77L1551.31 2333.22C1523.2 2333.22 1500.28 2358.87 1500.28 2390.53Z" fill="#35E166"/>
<path d="M1882.6 2362.42H1880.96C1880.26 2362.24 1879.61 2361.91 1879.04 2361.46C1878.48 2361.01 1878.01 2360.44 1877.68 2359.8C1877.34 2359.16 1877.15 2358.45 1877.1 2357.73C1877.06 2357 1877.16 2356.28 1877.42 2355.6C1887.24 2324.22 1918.62 2320.94 1933.9 2323.67C1935.33 2324 1936.58 2324.86 1937.39 2326.08C1938.2 2327.3 1938.52 2328.78 1938.27 2330.22C1938.01 2331.63 1937.2 2332.87 1936.02 2333.69C1934.85 2334.5 1933.4 2334.83 1931.99 2334.59V2334.59C1930.63 2334.31 1897.34 2328.86 1887.79 2358.88C1887.39 2359.93 1886.68 2360.83 1885.75 2361.47C1884.83 2362.1 1883.73 2362.44 1882.6 2362.42Z" fill="#282928"/>
<path d="M1722.69 2411.54H1722.41C1709.79 2410.82 1697.88 2405.46 1688.97 2396.5C1680.05 2387.53 1674.76 2375.59 1674.11 2362.97L1669.47 2272.91C1668.99 2263.59 1672.23 2254.47 1678.48 2247.53C1681.56 2244.03 1685.33 2241.21 1689.56 2239.24C1693.79 2237.26 1698.37 2236.19 1703.04 2236.07L1828.57 2230.07C1835.26 2229.7 1841.82 2231.98 1846.83 2236.43C1851.84 2240.88 1854.89 2247.12 1855.31 2253.81C1859.95 2312.76 1881.78 2326.67 1920.53 2331.86C1926.98 2332.57 1933.21 2334.61 1938.82 2337.86C1956.83 2348.23 1965.29 2365.7 1960.38 2382.34C1955.46 2398.99 1940.18 2410.72 1914.8 2409.36L1722.69 2411.54ZM1829.66 2240.98H1829.11L1703.31 2246.99C1700.15 2247.12 1697.04 2247.88 1694.18 2249.24C1691.32 2250.6 1688.76 2252.53 1686.66 2254.9C1684.5 2257.24 1682.83 2260 1681.75 2263C1680.67 2266 1680.21 2269.18 1680.39 2272.37L1685.03 2362.42C1685.6 2372.32 1689.78 2381.67 1696.76 2388.7C1703.75 2395.74 1713.07 2399.98 1722.96 2400.63L1915.08 2398.44H1915.35C1936.09 2399.81 1947 2388.89 1950.01 2379.07C1953.01 2369.24 1947 2355.33 1933.36 2347.41C1928.97 2344.93 1924.16 2343.27 1919.17 2342.5C1869.23 2335.95 1848.76 2312.21 1844.67 2254.63C1844.33 2250.89 1842.6 2247.41 1839.82 2244.89C1837.04 2242.36 1833.42 2240.97 1829.66 2240.98V2240.98Z" fill="#282928"/>
<path d="M1849.85 2354.78H1848.22C1847.51 2354.57 1846.85 2354.21 1846.28 2353.73C1845.71 2353.25 1845.25 2352.66 1844.91 2352C1844.58 2351.33 1844.39 2350.61 1844.35 2349.87C1844.3 2349.13 1844.41 2348.38 1844.67 2347.69C1854.49 2316.3 1885.88 2313.3 1901.16 2316.03C1901.94 2316.06 1902.7 2316.26 1903.4 2316.61C1904.09 2316.96 1904.71 2317.46 1905.19 2318.07C1905.68 2318.68 1906.03 2319.38 1906.23 2320.14C1906.42 2320.89 1906.45 2321.68 1906.31 2322.45C1906.17 2323.22 1905.87 2323.95 1905.43 2324.59C1904.98 2325.23 1904.41 2325.77 1903.74 2326.17C1903.07 2326.57 1902.32 2326.82 1901.55 2326.91C1900.77 2327 1899.99 2326.92 1899.25 2326.67C1897.88 2326.4 1864.59 2320.94 1855.04 2350.96C1854.69 2352.07 1854 2353.03 1853.07 2353.72C1852.14 2354.4 1851.01 2354.78 1849.85 2354.78Z" fill="#282928"/>
<path d="M1864.32 2311.39C1864.32 2311.39 1841.4 2311.39 1830.48 2320.94C1819.56 2330.49 1794.73 2241.26 1794.73 2241.26L1792 2233.34C1791.5 2231.79 1791.36 2230.15 1791.59 2228.53C1791.82 2226.92 1792.43 2225.38 1793.35 2224.03C1794.27 2222.69 1795.49 2221.57 1796.91 2220.77C1798.34 2219.97 1799.92 2219.51 1801.55 2219.43L1849.58 2217.52C1851.18 2217.44 1852.78 2217.69 1854.28 2218.24C1855.78 2218.8 1857.16 2219.65 1858.33 2220.74C1859.5 2221.83 1860.44 2223.15 1861.09 2224.61C1861.75 2226.07 1862.1 2227.65 1862.14 2229.25L1864.32 2311.39Z" fill="white"/>
<path d="M1828.84 2326.95H1826.38C1813.56 2323.13 1797.73 2272.64 1789.27 2242.9L1786.81 2235.25C1786.06 2232.91 1785.85 2230.42 1786.21 2227.98C1786.57 2225.54 1787.48 2223.22 1788.88 2221.19C1790.27 2219.16 1792.12 2217.48 1794.27 2216.27C1796.42 2215.07 1798.82 2214.37 1801.28 2214.24L1849.31 2212.33C1851.65 2212.2 1853.99 2212.55 1856.19 2213.35C1858.39 2214.14 1860.42 2215.38 1862.13 2216.97C1865.49 2220.19 1867.45 2224.6 1867.59 2229.25L1869.77 2317.12H1864.32C1858.31 2317.12 1841.94 2318.76 1834.02 2325.31C1833.31 2325.91 1832.48 2326.36 1831.6 2326.64C1830.71 2326.93 1829.77 2327.03 1828.84 2326.95V2326.95ZM1850.13 2222.97H1849.85L1801.82 2224.88C1801.02 2224.91 1800.23 2225.11 1799.52 2225.49C1798.81 2225.87 1798.2 2226.41 1797.73 2227.07C1797.3 2227.75 1797.03 2228.52 1796.94 2229.33C1796.84 2230.13 1796.93 2230.94 1797.18 2231.71L1799.91 2239.35C1808.92 2271.82 1822.02 2308.39 1828.84 2315.49C1837.57 2308.94 1850.94 2307.03 1858.59 2306.21L1856.67 2229.25C1856.58 2227.48 1855.79 2225.82 1854.49 2224.61C1853.3 2223.53 1851.74 2222.94 1850.13 2222.97V2222.97Z" fill="#282928"/>
<path d="M1747.52 2386.98C1747.52 2390.8 1748.34 2393.53 1748.34 2396.81C1748.34 2397.99 1747.89 2399.13 1747.08 2399.99C1746.27 2400.86 1745.16 2401.38 1743.97 2401.45L1733.06 2402.54C1726.35 2403.32 1719.55 2402.57 1713.17 2400.35C1706.79 2398.13 1700.99 2394.49 1696.22 2389.71C1688.59 2381.99 1684.19 2371.64 1683.94 2360.79L1682.85 2337.04C1682.83 2335.41 1683.39 2333.82 1684.44 2332.57C1685.5 2331.32 1686.96 2330.48 1688.58 2330.22H1696.49C1724.6 2329.95 1747.52 2355.33 1747.52 2386.98Z" fill="#35E166"/>
<path d="M1536.03 2248.08C1534.62 2248.08 1533.28 2247.54 1532.26 2246.58C1531.24 2245.61 1530.64 2244.29 1530.57 2242.89L1527.02 2156.66C1526.98 2155.94 1527.09 2155.23 1527.33 2154.55C1527.57 2153.87 1527.94 2153.25 1528.42 2152.72C1528.91 2152.19 1529.49 2151.76 1530.14 2151.45C1530.79 2151.14 1531.49 2150.96 1532.21 2150.93C1533.64 2150.92 1535.02 2151.45 1536.08 2152.41C1537.14 2153.37 1537.8 2154.69 1537.94 2156.11L1541.48 2242.35C1541.42 2243.8 1540.84 2245.19 1539.83 2246.24C1538.83 2247.3 1537.48 2247.95 1536.03 2248.08V2248.08Z" fill="#282928"/>
<path d="M1469.17 2244.53C1468.46 2244.57 1467.76 2244.46 1467.1 2244.22C1466.44 2243.97 1465.83 2243.6 1465.32 2243.11C1464.81 2242.63 1464.41 2242.04 1464.13 2241.4C1463.85 2240.75 1463.71 2240.05 1463.71 2239.35L1460.16 2160.21C1460.13 2159.49 1460.23 2158.77 1460.47 2158.1C1460.71 2157.42 1461.08 2156.8 1461.57 2156.27C1462.05 2155.73 1462.63 2155.3 1463.28 2155C1463.93 2154.69 1464.63 2154.51 1465.35 2154.48C1466.78 2154.47 1468.16 2155 1469.22 2155.96C1470.28 2156.92 1470.94 2158.24 1471.08 2159.66L1474.63 2238.8C1474.63 2240.23 1474.1 2241.61 1473.14 2242.67C1472.18 2243.73 1470.86 2244.4 1469.44 2244.53H1469.17Z" fill="#282928"/>
<path d="M1769.89 2242.89C1768.45 2242.89 1767.06 2242.32 1766.04 2241.3C1765.01 2240.27 1764.44 2238.88 1764.44 2237.44L1760.89 2151.48C1760.81 2150.75 1760.89 2150.02 1761.12 2149.32C1761.34 2148.63 1761.71 2147.99 1762.2 2147.45C1762.69 2146.91 1763.29 2146.48 1763.96 2146.18C1764.62 2145.89 1765.34 2145.74 1766.07 2145.74C1766.79 2145.71 1767.51 2145.81 1768.18 2146.05C1768.86 2146.29 1769.48 2146.67 1770.02 2147.15C1770.55 2147.63 1770.98 2148.21 1771.29 2148.86C1771.59 2149.51 1771.77 2150.21 1771.8 2150.93L1775.35 2237.16C1775.35 2238.61 1774.78 2240 1773.75 2241.02C1772.73 2242.05 1771.34 2242.62 1769.89 2242.62V2242.89Z" fill="#282928"/>
<path d="M2791.06 1720.85H208.67C201.36 1720.85 194.12 1719.41 187.366 1716.61C180.612 1713.81 174.475 1709.71 169.305 1704.54C158.865 1694.1 153 1679.94 153 1665.18V1655.9C153 1641.14 158.865 1626.98 169.305 1616.54C179.746 1606.1 193.906 1600.23 208.67 1600.23H2791.06C2805.8 1600.3 2819.92 1606.19 2830.35 1616.61C2840.77 1627.04 2846.66 1641.16 2846.73 1655.9V1665.18C2846.66 1679.92 2840.77 1694.04 2830.35 1704.46C2819.92 1714.89 2805.8 1720.78 2791.06 1720.85V1720.85ZM208.67 1611.15C196.801 1611.15 185.417 1615.86 177.024 1624.25C168.631 1632.65 163.916 1644.03 163.916 1655.9V1665.18C163.916 1677.05 168.631 1688.43 177.024 1696.82C185.417 1705.22 196.801 1709.93 208.67 1709.93H2791.06C2802.91 1709.86 2814.25 1705.12 2822.63 1696.75C2831.01 1688.37 2835.75 1677.03 2835.82 1665.18V1655.9C2835.75 1644.05 2831.01 1632.71 2822.63 1624.33C2814.25 1615.96 2802.91 1611.22 2791.06 1611.15H208.67Z" fill="#282928"/>
<path d="M369.95 1714.03C369.95 1714.03 392.601 1494.89 577.35 1501.72C762.099 1508.54 787.478 1652.35 796.483 1714.03H369.95Z" fill="white"/>
<path d="M802.762 1719.49H363.949L364.495 1713.48C369.562 1674.75 381.482 1637.24 399.698 1602.69C438.176 1530.1 499.85 1493.53 577.625 1496.26C655.399 1498.99 719.529 1529.01 757.462 1584.13C789.663 1631.61 797.85 1686.74 801.943 1713.21L802.762 1719.49ZM376.229 1708.57H790.209C781.203 1649.62 754.733 1513.72 577.352 1507.17C503.125 1504.45 446.636 1538.28 409.249 1607.6C392.834 1639.24 381.681 1673.34 376.229 1708.57Z" fill="#282928"/>
<path d="M578.715 1873.67C666.28 1873.67 737.266 1802.68 737.266 1715.12C737.266 1627.55 666.28 1556.57 578.715 1556.57C491.15 1556.57 420.164 1627.55 420.164 1715.12C420.164 1802.68 491.15 1873.67 578.715 1873.67Z" fill="#282928"/>
<path d="M576.259 1832.46C639.861 1832.46 691.42 1780.9 691.42 1717.3C691.42 1653.7 639.861 1602.14 576.259 1602.14C512.657 1602.14 461.098 1653.7 461.098 1717.3C461.098 1780.9 512.657 1832.46 576.259 1832.46Z" fill="white"/>
<path d="M576.259 1837.92C552.403 1837.92 529.083 1830.85 509.247 1817.59C489.411 1804.34 473.951 1785.5 464.822 1763.46C455.692 1741.42 453.304 1717.17 457.958 1693.77C462.612 1670.37 474.1 1648.88 490.969 1632.01C507.838 1615.14 529.33 1603.65 552.728 1599C576.125 1594.35 600.378 1596.74 622.418 1605.86C644.458 1614.99 663.296 1630.45 676.55 1650.29C689.804 1670.13 696.878 1693.45 696.878 1717.3C696.878 1749.29 684.17 1779.97 661.55 1802.59C638.929 1825.21 608.249 1837.92 576.259 1837.92V1837.92ZM576.259 1607.6C554.562 1607.6 533.352 1614.03 515.311 1626.09C497.271 1638.14 483.21 1655.27 474.907 1675.32C466.603 1695.37 464.431 1717.42 468.664 1738.7C472.897 1759.98 483.345 1779.53 498.687 1794.87C514.03 1810.22 533.577 1820.66 554.857 1824.9C576.137 1829.13 598.195 1826.96 618.241 1818.65C638.286 1810.35 655.42 1796.29 667.474 1778.25C679.528 1760.21 685.962 1739 685.962 1717.3C685.89 1688.23 674.309 1660.37 653.751 1639.81C633.194 1619.25 605.332 1607.67 576.259 1607.6V1607.6Z" fill="#282928"/>
<path d="M2013.86 1720.85C2012.39 1720.78 2011 1720.15 2009.98 1719.08C2008.97 1718.01 2008.4 1716.59 2008.4 1715.12L2011.41 635.28C2011.44 634.015 2011.22 632.756 2010.76 631.58C2010.29 630.404 2009.59 629.336 2008.69 628.442C2007.8 627.547 2006.73 626.845 2005.55 626.378C2004.38 625.912 2003.12 625.69 2001.85 625.728V625.728L237.324 628.73C234.864 628.73 232.429 629.219 230.159 630.168C227.89 631.118 225.832 632.509 224.105 634.261C222.379 636.013 221.017 638.092 220.101 640.375C219.185 642.658 218.731 645.1 218.768 647.56L219.859 1600.5C219.859 1601.95 219.284 1603.34 218.261 1604.36C217.237 1605.39 215.849 1605.96 214.401 1605.96C212.954 1605.96 211.566 1605.39 210.542 1604.36C209.518 1603.34 208.943 1601.95 208.943 1600.5L207.852 647.56C207.816 643.666 208.552 639.805 210.017 636.197C211.481 632.59 213.647 629.309 216.387 626.543C219.127 623.777 222.389 621.582 225.982 620.084C229.576 618.585 233.431 617.814 237.324 617.814L2001.85 614.812C2007.28 614.812 2012.49 616.969 2016.33 620.807C2020.16 624.645 2022.32 629.851 2022.32 635.28L2019.32 1715.39C2019.32 1716.84 2018.74 1718.23 2017.72 1719.25C2016.7 1720.28 2015.31 1720.85 2013.86 1720.85Z" fill="#282928"/>
<path d="M2785.6 1605.42H2785.33C2784.61 1605.38 2783.91 1605.2 2783.26 1604.9C2782.61 1604.59 2782.03 1604.16 2781.55 1603.63C2781.07 1603.09 2780.7 1602.47 2780.46 1601.79C2780.21 1601.12 2780.11 1600.4 2780.15 1599.68C2780.15 1598.05 2783.97 1419.03 2783.97 1313.69C2783.97 1213.54 2725.57 1206.72 2725.02 1206.72L2719.84 1206.17V1200.99C2729.66 1020.33 2702.92 800.379 2520.9 777.729C2473.14 771.725 2024.23 777.729 2019.86 777.729H2019.59C2018.14 777.729 2016.76 777.154 2015.73 776.13C2014.71 775.107 2014.13 773.718 2014.13 772.271C2014.13 770.823 2014.71 769.435 2015.73 768.412C2016.76 767.388 2018.14 766.813 2019.59 766.813C2038.15 766.54 2473.69 760.809 2522.26 766.813C2544.64 769.815 2603.86 777.183 2653.8 837.22C2713.56 908.718 2739.49 1029.88 2731.03 1196.89C2747.13 1201.26 2794.61 1221.73 2794.61 1313.69C2794.61 1419.03 2790.79 1598.32 2790.79 1599.96C2790.73 1601.34 2790.17 1602.65 2789.22 1603.66C2788.27 1604.66 2786.98 1605.28 2785.6 1605.42V1605.42Z" fill="#282928"/>
<path d="M2643.43 1197.44H2193.15C2189.32 1197.44 2185.64 1195.92 2182.93 1193.2C2180.22 1190.49 2178.69 1186.81 2178.69 1182.98V836.128C2178.69 832.292 2180.22 828.614 2182.93 825.901C2185.64 823.189 2189.32 821.665 2193.15 821.665H2472.87C2521.99 821.737 2569.08 841.282 2603.81 876.016C2638.55 910.75 2658.09 957.839 2658.17 1006.96V1182.98C2658.09 1186.84 2656.51 1190.52 2653.75 1193.22C2651 1195.93 2647.29 1197.44 2643.43 1197.44ZM2193.15 832.581C2192.21 832.581 2191.31 832.955 2190.65 833.62C2189.98 834.285 2189.61 835.187 2189.61 836.128V1182.98C2189.61 1183.92 2189.98 1184.82 2190.65 1185.48C2191.31 1186.15 2192.21 1186.52 2193.15 1186.52H2643.43C2643.92 1186.56 2644.41 1186.5 2644.87 1186.34C2645.33 1186.17 2645.76 1185.92 2646.12 1185.59C2646.48 1185.25 2646.76 1184.85 2646.96 1184.4C2647.15 1183.95 2647.25 1183.47 2647.25 1182.98V1006.96C2647.18 960.734 2628.78 916.422 2596.1 883.735C2563.41 851.048 2519.1 832.653 2472.87 832.581H2193.15Z" fill="#282928"/>
<path d="M2291.67 1313.15H2216.89C2208.4 1313.15 2200.25 1309.79 2194.22 1303.81C2188.19 1297.83 2184.76 1289.71 2184.69 1281.22V1276.31C2184.76 1267.81 2188.19 1259.69 2194.22 1253.71C2200.25 1247.73 2208.4 1244.38 2216.89 1244.38H2291.67C2300.11 1244.45 2308.19 1247.83 2314.17 1253.81C2320.14 1259.78 2323.52 1267.86 2323.6 1276.31V1281.22C2323.52 1289.66 2320.14 1297.74 2314.17 1303.72C2308.19 1309.69 2300.11 1313.07 2291.67 1313.15ZM2216.89 1255.29C2211.3 1255.29 2205.92 1257.5 2201.94 1261.43C2197.95 1265.36 2195.68 1270.71 2195.61 1276.31V1281.22C2195.68 1286.82 2197.95 1292.16 2201.94 1296.09C2205.92 1300.03 2211.3 1302.23 2216.89 1302.23H2291.67C2297.22 1302.16 2302.52 1299.92 2306.45 1296C2310.37 1292.07 2312.61 1286.77 2312.68 1281.22V1276.31C2312.61 1270.75 2310.37 1265.45 2306.45 1261.53C2302.52 1257.6 2297.22 1255.36 2291.67 1255.29H2216.89Z" fill="#282928"/>
<path d="M743.816 1489.16L1032.54 1824.82C1036.35 1829.11 1038.49 1834.64 1038.54 1840.38L1040.18 1878.58C1040.29 1881.3 1039.85 1884.02 1038.88 1886.56C1037.92 1889.11 1036.45 1891.43 1034.56 1893.39C1032.67 1895.36 1030.41 1896.92 1027.91 1897.98C1025.4 1899.05 1022.71 1899.6 1019.98 1899.6L749.001 1902.6L422.893 1491.89L743.816 1489.16Z" fill="white"/>
<path d="M746.274 1908.06L411.433 1486.43L746.274 1483.71L747.911 1485.62L1036.63 1821.27C1041.19 1826.51 1043.8 1833.16 1044 1840.1L1045.64 1878.31C1045.8 1881.77 1045.26 1885.22 1044.04 1888.46C1042.82 1891.7 1040.95 1894.65 1038.54 1897.14C1036.17 1899.67 1033.29 1901.68 1030.09 1903.04C1026.9 1904.4 1023.46 1905.09 1019.99 1905.05L746.274 1908.06ZM434.084 1497.35L751.459 1897.14L1019.99 1894.14C1021.98 1894.13 1023.95 1893.71 1025.78 1892.91C1027.61 1892.11 1029.26 1890.95 1030.63 1889.5C1033.36 1886.53 1034.82 1882.61 1034.72 1878.58L1033.08 1840.65C1033.01 1836.14 1031.37 1831.8 1028.45 1828.37L741.362 1494.62L434.084 1497.35Z" fill="#282928"/>
<path d="M2216.35 1715.39C2216.35 1715.39 2239 1496.26 2423.75 1503.08C2608.5 1509.9 2633.88 1653.72 2642.89 1715.39H2216.35Z" fill="white"/>
<path d="M2649.16 1720.85H2210.35L2210.89 1714.85C2215.96 1676.12 2227.88 1638.6 2246.09 1604.05C2284.57 1531.73 2346.25 1494.89 2424.02 1497.62C2501.8 1500.35 2565.93 1530.37 2603.86 1585.5C2636.06 1632.98 2644.25 1688.1 2648.34 1714.57L2649.16 1720.85ZM2222.63 1709.93H2636.61C2627.6 1650.99 2601.13 1515.09 2423.75 1508.54C2349.52 1505.81 2293.03 1539.65 2255.65 1608.96C2239.23 1640.6 2228.08 1674.71 2222.63 1709.93V1709.93Z" fill="#282928"/>
<path d="M2426.48 1881.04C2394.04 1881.04 2362.33 1871.42 2335.36 1853.4C2308.39 1835.38 2287.37 1809.76 2274.95 1779.79C2262.54 1749.82 2259.29 1716.85 2265.62 1685.03C2271.95 1653.22 2287.57 1623.99 2310.5 1601.06C2333.44 1578.12 2362.67 1562.5 2394.48 1556.17C2426.29 1549.84 2459.27 1553.09 2489.24 1565.5C2519.21 1577.92 2544.82 1598.94 2562.85 1625.91C2580.87 1652.88 2590.49 1684.59 2590.49 1717.03C2590.49 1760.53 2573.21 1802.24 2542.45 1833C2511.69 1863.76 2469.97 1881.04 2426.48 1881.04V1881.04ZM2426.48 1563.94C2396.2 1563.94 2366.6 1572.91 2341.42 1589.74C2316.25 1606.56 2296.62 1630.47 2285.04 1658.44C2273.45 1686.42 2270.42 1717.2 2276.33 1746.9C2282.23 1776.59 2296.81 1803.87 2318.22 1825.28C2339.63 1846.69 2366.91 1861.27 2396.61 1867.18C2426.31 1873.09 2457.09 1870.06 2485.06 1858.47C2513.04 1846.88 2536.95 1827.26 2553.77 1802.08C2570.59 1776.91 2579.57 1747.31 2579.57 1717.03C2579.57 1676.43 2563.44 1637.49 2534.73 1608.78C2506.02 1580.07 2467.08 1563.94 2426.48 1563.94V1563.94Z" fill="#282928"/>
<path d="M2426.48 1875.58C2514.04 1875.58 2585.03 1804.59 2585.03 1717.03C2585.03 1629.46 2514.04 1558.48 2426.48 1558.48C2338.91 1558.48 2267.93 1629.46 2267.93 1717.03C2267.93 1804.59 2338.91 1875.58 2426.48 1875.58Z" fill="#282928"/>
<path d="M2116.47 1715.39C2115.1 1742.37 2103.41 1767.78 2083.83 1786.39C2064.26 1804.99 2038.28 1815.37 2011.27 1815.37C1984.26 1815.37 1958.28 1804.99 1938.71 1786.39C1919.13 1767.78 1907.44 1742.37 1906.07 1715.39H2116.47Z" fill="white"/>
<path d="M2011.41 1822.37C1982.65 1822.45 1954.99 1811.33 1934.31 1791.35C1913.62 1771.38 1901.53 1744.13 1900.61 1715.39V1709.93H2122.47V1715.39C2121.62 1744.2 2109.51 1771.53 2088.75 1791.53C2067.99 1811.52 2040.23 1822.59 2011.41 1822.37V1822.37ZM1911.8 1720.85C1914.05 1745.67 1925.51 1768.76 1943.91 1785.57C1962.32 1802.38 1986.34 1811.7 2011.27 1811.7C2036.2 1811.7 2060.22 1802.38 2078.63 1785.57C2097.03 1768.76 2108.49 1745.67 2110.74 1720.85H1911.8Z" fill="#282928"/>
<path d="M2424.02 1834.65C2487.62 1834.65 2539.18 1783.09 2539.18 1719.48C2539.18 1655.88 2487.62 1604.32 2424.02 1604.32C2360.42 1604.32 2308.86 1655.88 2308.86 1719.48C2308.86 1783.09 2360.42 1834.65 2424.02 1834.65Z" fill="white"/>
<path d="M2424.02 1840.1C2400.18 1840.05 2376.89 1832.93 2357.09 1819.64C2337.29 1806.36 2321.87 1787.5 2312.78 1765.45C2303.69 1743.41 2301.34 1719.17 2306.03 1695.79C2310.71 1672.41 2322.22 1650.94 2339.1 1634.1C2355.98 1617.26 2377.48 1605.8 2400.87 1601.16C2424.26 1596.53 2448.5 1598.94 2470.52 1608.07C2492.54 1617.21 2511.37 1632.67 2524.61 1652.5C2537.85 1672.33 2544.92 1695.64 2544.92 1719.48C2544.84 1751.5 2532.08 1782.18 2509.41 1804.79C2486.75 1827.4 2456.04 1840.1 2424.02 1840.1V1840.1ZM2424.02 1609.78C2402.34 1609.84 2381.16 1616.31 2363.15 1628.4C2345.15 1640.49 2331.13 1657.64 2322.87 1677.69C2314.61 1697.74 2312.47 1719.79 2316.74 1741.05C2321 1762.32 2331.47 1781.84 2346.82 1797.15C2362.18 1812.47 2381.72 1822.89 2403 1827.1C2424.27 1831.31 2446.31 1829.12 2466.34 1820.81C2486.37 1812.5 2503.49 1798.44 2515.53 1780.4C2527.57 1762.37 2534 1741.17 2534 1719.48C2533.93 1690.36 2522.31 1662.46 2501.69 1641.9C2481.08 1621.33 2453.15 1609.78 2424.02 1609.78V1609.78Z" fill="#282928"/>
<path d="M759.919 1843.93H759.1C735.359 1837.38 731.538 1828.1 731.265 1820.73L505.582 1544.83C504.684 1543.71 504.265 1542.28 504.419 1540.84C504.572 1539.41 505.284 1538.1 506.401 1537.19C506.941 1536.71 507.577 1536.35 508.266 1536.13C508.955 1535.91 509.683 1535.83 510.403 1535.91C511.123 1535.99 511.818 1536.21 512.445 1536.57C513.072 1536.94 513.616 1537.43 514.042 1538.01L740.271 1814.18C740.954 1814.9 741.478 1815.76 741.807 1816.71C742.136 1817.65 742.264 1818.64 742.181 1819.64C742.181 1821.82 742.454 1827.55 761.283 1833.01L1031.45 1825.37C1032.15 1825.33 1032.86 1825.44 1033.52 1825.68C1034.18 1825.93 1034.78 1826.3 1035.29 1826.79C1035.8 1827.27 1036.21 1827.86 1036.49 1828.5C1036.76 1829.15 1036.91 1829.85 1036.91 1830.55C1036.94 1831.27 1036.84 1831.99 1036.6 1832.66C1036.36 1833.34 1035.98 1833.96 1035.5 1834.49C1035.02 1835.03 1034.44 1835.46 1033.79 1835.77C1033.14 1836.07 1032.44 1836.25 1031.72 1836.28L759.919 1843.93Z" fill="#282928"/>
<path d="M861.981 1739.68H673.411C671.964 1739.68 670.575 1739.1 669.552 1738.08C668.528 1737.06 667.953 1735.67 667.953 1734.22C667.953 1732.77 668.528 1731.39 669.552 1730.36C670.575 1729.34 671.964 1728.76 673.411 1728.76H861.981C863.428 1728.76 864.816 1729.34 865.84 1730.36C866.864 1731.39 867.439 1732.77 867.439 1734.22C867.439 1735.67 866.864 1737.06 865.84 1738.08C864.816 1739.1 863.428 1739.68 861.981 1739.68Z" fill="#282928"/>
<path d="M775.474 1623.97H577.899C576.451 1623.97 575.063 1623.4 574.039 1622.37C573.016 1621.35 572.441 1619.96 572.441 1618.51C572.441 1617.07 573.016 1615.68 574.039 1614.66C575.063 1613.63 576.451 1613.06 577.899 1613.06H775.474C776.921 1613.06 778.309 1613.63 779.333 1614.66C780.356 1615.68 780.931 1617.07 780.931 1618.51C780.931 1619.96 780.356 1621.35 779.333 1622.37C778.309 1623.4 776.921 1623.97 775.474 1623.97Z" fill="#282928"/>
<path d="M2707.56 1115.03C2706.51 1115.12 2705.49 1115.46 2704.59 1116.02C2703.69 1116.58 2702.93 1117.34 2702.38 1118.24C2701.82 1119.13 2701.48 1120.15 2701.39 1121.21C2701.29 1122.26 2701.44 1123.32 2701.83 1124.3C2709.74 1144.77 2723.93 1197.17 2675.36 1216.54C2626.78 1235.92 2619.42 1300.59 2619.14 1321.88C2619.14 1323.72 2619.85 1325.48 2621.12 1326.8C2622.4 1328.13 2624.13 1328.9 2625.96 1328.98H2644.25C2645.26 1328.95 2646.25 1328.71 2647.15 1328.27C2648.06 1327.83 2648.87 1327.2 2649.51 1326.42C2650.16 1325.65 2650.63 1324.75 2650.9 1323.77C2651.17 1322.8 2651.23 1321.78 2651.07 1320.79C2648.07 1303.87 2644.79 1264.03 2672.36 1249.84C2724.48 1223.09 2760.77 1196.35 2727.75 1117.76C2727.17 1116.4 2726.17 1115.26 2724.89 1114.53C2723.61 1113.79 2722.13 1113.48 2720.66 1113.66L2707.56 1115.03Z" fill="#282928"/>
<path d="M2747.68 903.26H2676.18C2658.09 903.26 2643.43 917.922 2643.43 936.007V1098.65C2643.43 1116.74 2658.09 1131.4 2676.18 1131.4H2747.68C2765.76 1131.4 2780.42 1116.74 2780.42 1098.65V936.007C2780.42 917.922 2765.76 903.26 2747.68 903.26Z" fill="white"/>
<path d="M2747.68 1136.58H2676.18C2666.05 1136.58 2656.33 1132.56 2649.16 1125.39C2642 1118.23 2637.97 1108.51 2637.97 1098.38V936.007C2637.97 925.875 2642 916.157 2649.16 908.992C2656.33 901.827 2666.05 897.802 2676.18 897.802H2747.68C2757.81 897.802 2767.53 901.827 2774.69 908.992C2781.86 916.157 2785.88 925.875 2785.88 936.007V1098.38C2785.88 1108.51 2781.86 1118.23 2774.69 1125.39C2767.53 1132.56 2757.81 1136.58 2747.68 1136.58V1136.58ZM2676.18 908.718C2668.94 908.718 2662 911.593 2656.88 916.711C2651.76 921.829 2648.89 928.77 2648.89 936.007V1098.38C2648.89 1105.62 2651.76 1112.56 2656.88 1117.68C2662 1122.79 2668.94 1125.67 2676.18 1125.67H2747.68C2754.91 1125.67 2761.86 1122.79 2766.97 1117.68C2772.09 1112.56 2774.97 1105.62 2774.97 1098.38V936.007C2774.97 928.77 2772.09 921.829 2766.97 916.711C2761.86 911.593 2754.91 908.718 2747.68 908.718H2676.18Z" fill="#282928"/>
<path d="M314.556 1868.21V2240.44H821.32L816.407 1864.39L314.556 1868.21Z" fill="#35E166"/>
<path d="M569.437 1868.21L532.051 1761.51C531.605 1760.19 530.764 1759.03 529.642 1758.2C528.519 1757.38 527.17 1756.91 525.775 1756.87L265.707 1753.32C264.529 1753.26 263.357 1753.52 262.314 1754.07C261.272 1754.62 260.397 1755.44 259.782 1756.45C259.167 1757.46 258.835 1758.61 258.821 1759.79C258.807 1760.97 259.112 1762.13 259.703 1763.15L314.555 1868.21H569.437Z" fill="#35E166"/>
<path d="M816.409 1864.39L850.793 1774.06C851.318 1772.58 851.478 1770.99 851.261 1769.44C851.045 1767.88 850.457 1766.4 849.548 1765.11C848.638 1763.83 847.434 1762.78 846.036 1762.06C844.639 1761.34 843.088 1760.96 841.515 1760.97L617.196 1764.51C615.272 1764.52 613.393 1765.1 611.792 1766.16C610.191 1767.23 608.939 1768.74 608.191 1770.52L569.44 1868.21L816.409 1864.39Z" fill="#35E166"/>
<path d="M569.982 2239.07C569.278 2239.11 568.575 2239 567.914 2238.76C567.253 2238.52 566.648 2238.14 566.138 2237.66C565.627 2237.17 565.22 2236.59 564.943 2235.94C564.665 2235.29 564.523 2234.59 564.524 2233.89L557.156 1873.67C557.119 1872.93 557.233 1872.19 557.49 1871.5C557.748 1870.8 558.144 1870.17 558.655 1869.63C559.165 1869.1 559.779 1868.67 560.46 1868.38C561.141 1868.09 561.873 1867.94 562.614 1867.94C564.061 1867.94 565.449 1868.51 566.473 1869.54C567.496 1870.56 568.071 1871.95 568.071 1873.4L575.44 2233.62C575.44 2235.06 574.865 2236.45 573.841 2237.48C572.817 2238.5 571.429 2239.07 569.982 2239.07Z" fill="#282928"/>
<path d="M812.041 1873.67H314.556C313.109 1873.67 311.721 1873.1 310.697 1872.07C309.673 1871.05 309.098 1869.66 309.098 1868.21C309.098 1866.76 309.673 1865.38 310.697 1864.35C311.721 1863.33 313.109 1862.75 314.556 1862.75H812.041C813.489 1862.75 814.877 1863.33 815.901 1864.35C816.924 1865.38 817.499 1866.76 817.499 1868.21C817.499 1869.66 816.924 1871.05 815.901 1872.07C814.877 1873.1 813.489 1873.67 812.041 1873.67Z" fill="#282928"/>
<path d="M1582.97 832.308C1568.5 832.308 1556.77 828.215 1547.49 820.028C1503.83 781.55 1536.57 666.116 1537.94 661.204C1538.38 659.822 1539.33 658.659 1540.6 657.949C1541.86 657.24 1543.35 657.038 1544.76 657.383C1545.46 657.572 1546.12 657.9 1546.7 658.347C1547.27 658.795 1547.75 659.353 1548.11 659.989C1548.47 660.624 1548.69 661.325 1548.77 662.05C1548.85 662.774 1548.79 663.507 1548.58 664.206C1548.31 665.297 1516.11 778.002 1554.58 811.841C1569.87 825.486 1595.25 824.667 1629.9 809.658C1631.24 809.118 1632.74 809.131 1634.07 809.693C1635.4 810.256 1636.45 811.323 1637 812.66C1637.31 813.301 1637.49 813.999 1637.52 814.712C1637.55 815.425 1637.44 816.137 1637.18 816.803C1636.93 817.469 1636.54 818.075 1636.03 818.583C1635.53 819.091 1634.93 819.49 1634.27 819.755C1614.62 828.215 1597.43 832.308 1582.97 832.308Z" fill="#282928"/>
<path d="M1680.11 913.904C1678.8 913.919 1677.52 913.457 1676.52 912.605C1675.52 911.752 1674.85 910.566 1674.66 909.265L1667.83 870.241C1664.79 856.084 1663.78 841.566 1664.83 827.124L1669.47 764.631L1673.02 763.54C1677.93 761.902 1691.03 756.171 1694.85 747.985C1695.52 746.628 1695.87 745.133 1695.87 743.618C1695.87 742.103 1695.52 740.609 1694.85 739.252C1694.03 737.069 1692.4 733.521 1689.94 733.248C1687.48 732.975 1680.66 738.16 1677.39 742.254C1676.98 742.859 1676.45 743.372 1675.84 743.76C1675.22 744.148 1674.53 744.402 1673.81 744.505C1673.09 744.608 1672.35 744.558 1671.65 744.358C1670.95 744.158 1670.3 743.813 1669.74 743.345C1668.64 742.437 1667.92 741.15 1667.72 739.736C1667.52 738.323 1667.85 736.885 1668.65 735.704C1670.02 734.34 1680.11 720.968 1691.58 722.606C1695.4 722.878 1701.13 725.607 1704.95 735.159C1706.19 737.91 1706.82 740.902 1706.77 743.922C1706.72 746.941 1706.01 749.913 1704.68 752.624C1699.49 763.54 1686.39 770.089 1679.84 772.545L1675.75 827.942C1674.74 841.376 1675.66 854.884 1678.48 868.058L1685.57 907.354C1685.74 908.793 1685.35 910.24 1684.49 911.404C1683.63 912.569 1682.36 913.364 1680.93 913.631L1680.11 913.904Z" fill="#282928"/>
<path d="M1576.07 711.367C1576.51 707.171 1574.69 703.535 1571.99 703.247C1569.3 702.959 1566.75 706.127 1566.3 710.323C1565.85 714.519 1567.67 718.154 1570.37 718.442C1573.07 718.731 1575.62 715.563 1576.07 711.367Z" fill="#282928"/>
<path d="M1631.55 719.068C1631.99 714.872 1630.17 711.237 1627.47 710.949C1624.78 710.66 1622.23 713.828 1621.78 718.024C1621.33 722.22 1623.15 725.856 1625.85 726.144C1628.55 726.432 1631.1 723.264 1631.55 719.068Z" fill="#282928"/>
<path d="M1552.67 693.951C1551.09 693.789 1549.61 693.077 1548.49 691.938C1547.38 690.8 1546.7 689.307 1546.57 687.719C1546.44 686.13 1546.87 684.546 1547.78 683.242C1548.7 681.938 1550.04 680.996 1551.58 680.579L1577.51 676.485C1578.4 676.33 1579.32 676.356 1580.21 676.561C1581.1 676.767 1581.93 677.148 1582.67 677.682C1583.41 678.216 1584.03 678.892 1584.5 679.671C1584.98 680.45 1585.29 681.315 1585.42 682.216C1585.65 683.986 1585.19 685.778 1584.11 687.207C1583.04 688.635 1581.45 689.587 1579.69 689.857L1553.76 693.951H1552.67Z" fill="#282928"/>
<path d="M1645.18 703.775C1644.13 703.758 1643.1 703.477 1642.18 702.956L1618.71 691.495C1617.89 691.144 1617.14 690.626 1616.52 689.974C1615.9 689.322 1615.43 688.549 1615.12 687.704C1614.81 686.86 1614.68 685.961 1614.74 685.063C1614.79 684.166 1615.03 683.29 1615.44 682.489C1615.82 681.653 1616.36 680.901 1617.04 680.28C1617.72 679.659 1618.51 679.182 1619.38 678.876C1620.25 678.57 1621.17 678.442 1622.08 678.501C1623 678.559 1623.9 678.802 1624.72 679.215L1648.19 690.676C1649.02 691.056 1649.77 691.601 1650.4 692.278C1651.02 692.956 1651.49 693.751 1651.8 694.618C1652.11 695.484 1652.23 696.404 1652.18 697.321C1652.12 698.238 1651.87 699.134 1651.46 699.955C1650.84 701.085 1649.93 702.033 1648.83 702.703C1647.73 703.373 1646.47 703.743 1645.18 703.775Z" fill="#282928"/>
<path d="M1587.6 758.081H1586.51C1578.87 756.717 1576.14 752.896 1575.32 749.621C1573.14 741.162 1582.96 732.429 1585.97 729.7C1587.14 728.785 1588.61 728.36 1590.09 728.512C1591.56 728.665 1592.92 729.384 1593.88 730.519C1594.78 731.643 1595.2 733.077 1595.04 734.508C1594.89 735.939 1594.18 737.251 1593.06 738.16V738.16C1590.11 740.431 1587.69 743.318 1585.97 746.62L1588.42 747.438C1589.87 747.547 1591.22 748.226 1592.16 749.326C1593.11 750.427 1593.58 751.858 1593.47 753.305C1593.36 754.753 1592.68 756.098 1591.58 757.045C1590.48 757.992 1589.05 758.463 1587.6 758.354V758.081Z" fill="#282928"/>
<path d="M1591.42 793.284C1588.49 793.322 1585.56 793.048 1582.69 792.465C1581.4 792.065 1580.29 791.197 1579.6 790.03C1578.91 788.864 1578.68 787.481 1578.95 786.153C1579.23 784.825 1579.98 783.645 1581.08 782.845C1582.17 782.044 1583.53 781.679 1584.87 781.822C1585.69 782.095 1606.71 785.915 1611.89 771.179C1612.1 770.503 1612.45 769.877 1612.92 769.341C1613.38 768.805 1613.95 768.37 1614.59 768.063C1615.23 767.756 1615.93 767.584 1616.64 767.557C1617.34 767.529 1618.05 767.648 1618.71 767.904C1619.4 768.148 1620.03 768.526 1620.57 769.016C1621.11 769.507 1621.54 770.101 1621.85 770.762C1622.15 771.423 1622.32 772.139 1622.35 772.866C1622.37 773.594 1622.25 774.32 1621.99 775C1617.08 789.463 1602.61 793.284 1591.42 793.284Z" fill="#282928"/>
<path d="M1563.59 910.355L1561.4 909.81C1560.1 909.16 1559.08 908.036 1558.58 906.667C1558.07 905.297 1558.1 903.786 1558.67 902.441C1574.5 869.148 1579.96 830.943 1579.96 830.67C1580.06 829.95 1580.3 829.257 1580.67 828.632C1581.05 828.007 1581.54 827.462 1582.12 827.03C1582.71 826.598 1583.37 826.287 1584.08 826.115C1584.79 825.944 1585.52 825.915 1586.24 826.031C1587.64 826.235 1588.9 826.975 1589.77 828.095C1590.64 829.215 1591.03 830.628 1590.88 832.035C1590.6 833.672 1585.15 872.15 1568.77 907.081C1568.31 908.062 1567.57 908.89 1566.65 909.47C1565.74 910.05 1564.67 910.357 1563.59 910.355V910.355Z" fill="#282928"/>
<path d="M1533.3 693.952C1533.3 693.952 1496.19 621.908 1576.69 594.618C1667.02 563.781 1701.68 604.443 1721.32 660.931C1740.97 717.42 1703.31 752.351 1703.31 752.351C1703.31 752.351 1698.4 728.882 1690.21 726.699C1682.03 724.516 1668.66 739.252 1668.66 739.252C1668.66 739.252 1667.29 693.952 1649.28 677.305C1638.36 667.481 1551.58 650.834 1533.3 693.952Z" fill="#282928"/>
<path d="M1698.4 656.564C1697.77 656.545 1697.15 656.388 1696.58 656.105C1696.02 655.823 1695.52 655.421 1695.12 654.927L1692.94 651.379C1688.3 643.465 1677.39 624.909 1662.1 616.176C1661.18 615.657 1660.49 614.797 1660.18 613.779C1659.87 612.76 1659.98 611.662 1660.47 610.718C1661.04 609.77 1661.95 609.073 1663.01 608.77C1664.07 608.466 1665.21 608.577 1666.2 609.081C1683.39 618.632 1695.12 638.553 1700.04 647.286C1700.71 648.113 1701.26 649.032 1701.67 650.015C1702 650.445 1702.23 650.934 1702.36 651.455C1702.5 651.976 1702.53 652.518 1702.45 653.05C1702.37 653.582 1702.19 654.094 1701.92 654.556C1701.65 655.019 1701.28 655.423 1700.85 655.746C1700.52 656.042 1700.13 656.267 1699.71 656.408C1699.29 656.549 1698.84 656.602 1698.4 656.564V656.564Z" fill="white"/>
<path d="M1597.15 612.083C1596.34 612.136 1595.53 611.926 1594.84 611.484C1594.15 611.042 1593.62 610.391 1593.33 609.627C1593.11 609.126 1592.99 608.586 1592.98 608.038C1592.97 607.49 1593.07 606.945 1593.27 606.436C1593.47 605.927 1593.78 605.464 1594.16 605.074C1594.55 604.685 1595.01 604.377 1595.52 604.169C1607.31 599.487 1620.24 598.442 1632.63 601.167C1633.17 601.259 1633.68 601.465 1634.13 601.771C1634.58 602.077 1634.96 602.476 1635.25 602.941C1635.53 603.406 1635.71 603.927 1635.78 604.469C1635.85 605.01 1635.8 605.559 1635.63 606.079C1635.37 607.126 1634.71 608.028 1633.79 608.59C1632.87 609.152 1631.77 609.328 1630.72 609.081C1620.04 606.809 1608.93 607.759 1598.79 611.81L1597.15 612.083Z" fill="white"/>
<path d="M1709.31 1459.14C1711.77 1470.06 1800.46 1910.51 1803.19 2146.84C1803.19 2147.2 1803.05 2147.55 1802.79 2147.8C1802.53 2148.06 1802.19 2148.2 1801.82 2148.2L1665.92 2155.3C1665.63 2155.24 1665.35 2155.11 1665.11 2154.92C1664.87 2154.73 1664.68 2154.48 1664.56 2154.2L1570.96 1789.07C1570.82 1788.85 1570.63 1788.67 1570.39 1788.56C1570.16 1788.45 1569.9 1788.4 1569.64 1788.43C1569.38 1788.46 1569.14 1788.56 1568.94 1788.72C1568.74 1788.88 1568.58 1789.1 1568.5 1789.35L1557.04 2156.39C1556.98 2156.7 1556.8 2156.98 1556.55 2157.18C1556.31 2157.38 1555.99 2157.49 1555.67 2157.48L1405.86 2159.94C1405.54 2159.94 1405.23 2159.84 1404.98 2159.64C1404.73 2159.44 1404.56 2159.16 1404.49 2158.84C1402.04 2130.46 1357.55 1614.42 1427.69 1426.94C1427.96 1426.4 1428.23 1426.12 1428.78 1426.12C1444.06 1424.21 1674.93 1397.74 1709.31 1458.87V1459.14Z" fill="#35E166"/>
<path d="M1848.76 1047.08C1847.82 1047.03 1846.91 1046.76 1846.1 1046.29C1845.29 1045.81 1844.61 1045.15 1844.12 1044.35C1774.53 919.088 1694.85 916.086 1679.57 916.905H1678.75C1658.28 937.372 1637.27 946.923 1616.53 945.286C1588.97 943.375 1570.14 922.636 1563.31 913.63C1563.15 913.346 1562.91 913.116 1562.62 912.971C1562.33 912.825 1562 912.769 1561.68 912.811C1467.26 902.169 1384.57 1008.32 1383.75 1009.42C1383.32 1009.99 1382.78 1010.47 1382.17 1010.84C1381.55 1011.2 1380.87 1011.44 1380.16 1011.54C1379.45 1011.65 1378.72 1011.61 1378.03 1011.43C1377.34 1011.25 1376.68 1010.94 1376.11 1010.51C1375.54 1010.08 1375.05 1009.54 1374.69 1008.92C1374.32 1008.31 1374.08 1007.62 1373.98 1006.91C1373.88 1006.2 1373.92 1005.48 1374.1 1004.79C1374.28 1004.09 1374.59 1003.44 1375.02 1002.87C1378.57 998.227 1462.34 890.434 1563.04 901.896C1564.83 902.049 1566.56 902.593 1568.12 903.489C1569.68 904.384 1571.02 905.611 1572.05 907.081C1576.69 913.084 1593.33 932.733 1617.35 934.643C1634.81 935.734 1652.82 927.275 1670.84 909.264C1672.99 907.049 1675.93 905.775 1679.02 905.716C1695.4 904.897 1780.81 907.899 1853.67 1038.62C1854.37 1039.92 1854.53 1041.45 1854.12 1042.88C1853.71 1044.3 1852.77 1045.51 1851.49 1046.26L1848.76 1047.08Z" fill="#282928"/>
<path d="M1767.99 1043.53C1766.67 1043.54 1765.39 1043.08 1764.39 1042.23C1763.39 1041.38 1762.73 1040.19 1762.53 1038.89L1757.34 1002.05C1757.23 1001.33 1757.26 1000.6 1757.43 999.89C1757.6 999.183 1757.91 998.518 1758.34 997.933C1758.77 997.349 1759.32 996.856 1759.94 996.485C1760.57 996.114 1761.26 995.871 1761.98 995.771C1763.42 995.608 1764.87 995.997 1766.03 996.857C1767.2 997.718 1767.99 998.987 1768.26 1000.41L1773.44 1037.25C1773.61 1038.69 1773.22 1040.14 1772.36 1041.3C1771.5 1042.47 1770.23 1043.26 1768.8 1043.53H1767.99Z" fill="#282928"/>
<path d="M1454.98 1034.8H1453.07C1451.76 1034.2 1450.72 1033.15 1450.12 1031.85C1449.52 1030.55 1449.4 1029.08 1449.79 1027.7L1462.35 994.407C1462.56 993.731 1462.91 993.105 1463.37 992.569C1463.84 992.033 1464.41 991.598 1465.05 991.291C1465.69 990.984 1466.38 990.812 1467.09 990.785C1467.8 990.757 1468.51 990.876 1469.17 991.132C1469.85 991.376 1470.48 991.754 1471.02 992.244C1471.56 992.735 1472 993.329 1472.3 993.99C1472.61 994.651 1472.78 995.367 1472.8 996.094C1472.82 996.822 1472.7 997.548 1472.44 998.228L1460.16 1031.52C1459.7 1032.5 1458.96 1033.33 1458.04 1033.91C1457.13 1034.49 1456.06 1034.8 1454.98 1034.8V1034.8Z" fill="#282928"/>
<path d="M1261.5 993.043L1089.57 1051.44C1087.49 1052.15 1085.7 1053.52 1084.47 1055.35C1083.23 1057.17 1082.63 1059.34 1082.75 1061.54L1097.76 1372.64C1097.87 1375 1098.8 1377.25 1100.39 1379C1101.99 1380.74 1104.15 1381.87 1106.49 1382.19L1746.15 1466.51C1747.49 1466.76 1748.86 1466.71 1750.18 1466.38C1751.5 1466.05 1752.73 1465.45 1753.8 1464.6L1879.87 1365C1881.16 1363.99 1882.19 1362.71 1882.9 1361.24C1883.61 1359.78 1883.98 1358.17 1883.97 1356.54L1872.23 1052.53C1872.11 1050.01 1871.07 1047.63 1869.31 1045.82C1867.55 1044.01 1865.19 1042.91 1862.68 1042.71L1265.59 992.497L1261.5 993.043Z" fill="#282928"/>
<path d="M1501.64 1012.42L1348 1083.37L1350.46 1149.41C1350.52 1150.72 1351.05 1151.97 1351.95 1152.92C1352.85 1153.87 1354.06 1154.47 1355.37 1154.6L1452.79 1162.51C1454.16 1162.59 1455.5 1162.16 1456.56 1161.3C1457.62 1160.44 1458.32 1159.22 1458.52 1157.87L1463.98 1094.01L1596.34 1020.06L1501.64 1012.42Z" fill="#35E166"/>
<path d="M1749.16 1468.7C1748.12 1468.7 1747.12 1468.31 1746.35 1467.6C1745.59 1466.89 1745.13 1465.91 1745.06 1464.88L1729.51 1124.58C1729.36 1122.38 1729.88 1120.18 1731 1118.28C1732.12 1116.38 1733.79 1114.87 1735.79 1113.93L1848.76 1057.45C1849.23 1057.07 1849.78 1056.81 1850.36 1056.67C1850.94 1056.53 1851.55 1056.52 1852.13 1056.64C1852.72 1056.76 1853.27 1057.01 1853.75 1057.37C1854.23 1057.72 1854.63 1058.18 1854.91 1058.71C1855.2 1059.24 1855.36 1059.82 1855.4 1060.42C1855.43 1061.02 1855.33 1061.61 1855.11 1062.17C1854.89 1062.73 1854.55 1063.23 1854.11 1063.64C1853.67 1064.05 1853.15 1064.35 1852.58 1064.54L1739.33 1121.03C1738.83 1121.35 1738.41 1121.8 1738.13 1122.32C1737.84 1122.85 1737.69 1123.43 1737.7 1124.03L1753.25 1464.6C1753.25 1465.64 1752.86 1466.64 1752.15 1467.41C1751.44 1468.17 1750.47 1468.63 1749.43 1468.7H1749.16Z" fill="white"/>
<path d="M1670.83 1165.78H1670.02C1664.89 1165.78 1660.74 1169.94 1660.74 1175.06V1225.96C1660.74 1231.08 1664.89 1235.24 1670.02 1235.24H1670.83C1675.96 1235.24 1680.11 1231.08 1680.11 1225.96V1175.06C1680.11 1169.94 1675.96 1165.78 1670.83 1165.78Z" fill="white"/>
<path d="M1626.9 1165.78H1626.08C1620.96 1165.78 1616.8 1169.94 1616.8 1175.06V1225.96C1616.8 1231.08 1620.96 1235.24 1626.08 1235.24H1626.9C1632.02 1235.24 1636.18 1231.08 1636.18 1225.96V1175.06C1636.18 1169.94 1632.02 1165.78 1626.9 1165.78Z" fill="white"/>
<path d="M1688.3 1123.21H1688.03L1123.96 1071.09C1123.43 1071.06 1122.92 1070.92 1122.44 1070.67C1121.97 1070.43 1121.56 1070.1 1121.23 1069.69C1120.89 1069.28 1120.65 1068.8 1120.51 1068.29C1120.37 1067.78 1120.33 1067.25 1120.41 1066.72C1120.54 1065.66 1121.06 1064.69 1121.87 1063.98C1122.67 1063.28 1123.71 1062.89 1124.78 1062.9L1688.58 1115.03C1689.13 1115.02 1689.67 1115.13 1690.18 1115.36C1690.68 1115.58 1691.13 1115.92 1691.49 1116.33C1691.85 1116.74 1692.12 1117.23 1692.28 1117.76C1692.43 1118.29 1692.47 1118.85 1692.4 1119.39C1692.33 1120.43 1691.86 1121.4 1691.1 1122.11C1690.34 1122.82 1689.34 1123.21 1688.3 1123.21Z" fill="white"/>
<path d="M1274.59 1362.81C1275.14 1358.17 1278.14 1355.17 1274.87 1352.17C1271.59 1349.17 1267.5 1345.89 1261.77 1348.08C1244.3 1355.17 1241.57 1348.9 1236.39 1346.99C1231.2 1345.08 1218.92 1351.08 1218.92 1351.08C1218.92 1351.08 1208.55 1339.34 1198.46 1341.53C1197.17 1341.75 1195.94 1342.23 1194.85 1342.96C1193.76 1343.69 1192.84 1344.63 1192.14 1345.74C1191.44 1346.85 1190.99 1348.09 1190.81 1349.39C1190.63 1350.69 1190.72 1352.01 1191.09 1353.26C1191.09 1353.26 1188.63 1331.98 1165.44 1339.89C1156.98 1342.89 1156.16 1379.19 1163.53 1392.83C1170.89 1406.48 1169.26 1419.03 1193.54 1414.39C1193.54 1414.39 1194.09 1426.4 1216.47 1418.21C1216.47 1418.21 1236.93 1417.12 1253.58 1417.39C1262.59 1417.67 1269.14 1421.76 1273.5 1418.21C1273.5 1418.21 1273.5 1374 1274.59 1362.81Z" fill="white"/>
<path d="M1184.27 1419.58C1179.83 1419.66 1175.49 1418.21 1171.99 1415.48C1154.8 1403.47 1153.7 1366.09 1153.7 1358.72C1153.7 1358.72 1154.25 1340.98 1158.07 1336.07C1161.89 1331.16 1172.81 1324.88 1180.45 1327.06C1181.78 1327.56 1182.88 1328.53 1183.54 1329.79C1184.19 1331.05 1184.35 1332.51 1184 1333.89C1183.81 1334.59 1183.48 1335.24 1183.03 1335.81C1182.58 1336.38 1182.01 1336.84 1181.37 1337.17C1180.73 1337.51 1180.02 1337.7 1179.3 1337.75C1178.58 1337.79 1177.85 1337.69 1177.17 1337.43C1174.17 1336.62 1170.08 1338.53 1167.08 1342.35C1165.64 1347.69 1164.82 1353.19 1164.62 1358.72C1164.89 1377.28 1168.99 1400.2 1178.26 1406.75C1179.9 1407.83 1181.79 1408.48 1183.75 1408.62C1185.71 1408.76 1187.67 1408.4 1189.45 1407.57C1190.83 1407.14 1192.32 1407.27 1193.6 1407.94C1194.87 1408.6 1195.84 1409.74 1196.28 1411.12C1196.53 1411.78 1196.65 1412.48 1196.62 1413.19C1196.6 1413.9 1196.42 1414.6 1196.12 1415.24C1195.81 1415.88 1195.37 1416.45 1194.84 1416.91C1194.3 1417.38 1193.68 1417.72 1193 1417.94C1190.2 1418.96 1187.25 1419.52 1184.27 1419.58Z" fill="#282928"/>
<path d="M1208.83 1427.22C1205.24 1427.25 1201.75 1425.99 1199 1423.67C1182.9 1411.39 1176.08 1368.27 1187.27 1349.44C1192.46 1340.71 1198.46 1336.34 1205.01 1336.34H1205.28C1215.38 1336.34 1222.2 1346.99 1223.02 1348.08C1223.78 1349.34 1224 1350.86 1223.65 1352.29C1223.29 1353.73 1222.38 1354.96 1221.11 1355.72C1219.84 1356.48 1218.33 1356.7 1216.89 1356.35C1215.46 1355.99 1214.23 1355.07 1213.47 1353.81C1212.38 1351.62 1208.56 1347.26 1205.28 1347.26H1205.01C1202.55 1347.26 1199.55 1349.99 1196.55 1354.9C1187.82 1369.91 1194.64 1406.75 1205.55 1414.94C1206.92 1416.03 1209.37 1417.94 1214.29 1413.03C1215.34 1412.24 1216.64 1411.86 1217.95 1411.95C1219.26 1412.04 1220.49 1412.6 1221.42 1413.53C1222.35 1414.46 1222.91 1415.69 1223.01 1417.01C1223.1 1418.32 1222.72 1419.62 1221.93 1420.67C1220.31 1422.6 1218.32 1424.18 1216.06 1425.31C1213.81 1426.44 1211.35 1427.09 1208.83 1427.22Z" fill="#282928"/>
<path d="M1238.3 1428.03C1235.7 1427.96 1233.13 1427.5 1230.66 1426.67C1209.65 1420.67 1206.92 1390.1 1210.19 1371.27C1213.47 1352.44 1218.93 1343.98 1227.66 1339.62C1230.54 1338.28 1233.69 1337.64 1236.86 1337.73C1240.04 1337.83 1243.15 1338.66 1245.94 1340.16C1247.07 1340.92 1247.88 1342.07 1248.2 1343.39C1248.53 1344.71 1248.35 1346.1 1247.7 1347.3C1247.05 1348.49 1245.98 1349.4 1244.69 1349.85C1243.41 1350.3 1242.01 1350.25 1240.76 1349.71C1239.45 1349.04 1238 1348.69 1236.53 1348.69C1235.06 1348.69 1233.61 1349.04 1232.3 1349.71C1227.11 1352.17 1223.02 1360.63 1220.84 1372.91C1218.65 1385.19 1220.29 1412.48 1233.66 1416.3C1236.12 1416.85 1239.67 1417.66 1241.58 1416.03C1243.03 1414.57 1243.91 1412.63 1244.03 1410.57C1244.03 1409.12 1244.61 1407.73 1245.63 1406.71C1246.65 1405.69 1248.04 1405.11 1249.49 1405.11C1250.94 1405.11 1252.33 1405.69 1253.35 1406.71C1254.37 1407.73 1254.95 1409.12 1254.95 1410.57C1254.88 1413.28 1254.24 1415.95 1253.07 1418.4C1251.89 1420.85 1250.21 1423.02 1248.13 1424.76C1245.33 1426.96 1241.86 1428.12 1238.3 1428.03Z" fill="#282928"/>
<path d="M1266.95 1428.31H1263.68C1242.12 1424.49 1241.03 1403.47 1246.76 1368.54C1248.94 1354.9 1258.22 1340.71 1268.05 1342.07C1282.51 1344.26 1278.96 1373.46 1277.6 1383.01C1277.6 1384.29 1277.51 1385.56 1277.32 1386.83C1276.92 1394.22 1277.38 1401.64 1278.69 1408.93C1279.78 1416.57 1278.96 1422.03 1275.41 1425.31C1273.1 1427.39 1270.06 1428.47 1266.95 1428.31V1428.31ZM1266.14 1352.99C1263.68 1354.35 1258.77 1360.9 1257.4 1369.91C1250.85 1411.39 1257.13 1415.75 1265.59 1417.39C1266.3 1417.59 1267.06 1417.59 1267.77 1417.39C1268.05 1417.12 1268.59 1415.21 1267.77 1410.57C1266.6 1402.44 1266.14 1394.22 1266.41 1386.01C1266.68 1382.46 1266.68 1381.64 1266.95 1381.37C1269.41 1360.9 1267.23 1354.63 1266.14 1352.99V1352.99Z" fill="#282928"/>
<path d="M1668.65 1407.29C1669.2 1402.93 1672.2 1399.65 1668.65 1396.65C1665.11 1393.65 1661.28 1390.38 1655.55 1392.83C1638.09 1399.65 1635.63 1393.38 1630.18 1391.47C1624.72 1389.56 1612.71 1395.56 1612.71 1395.56C1612.71 1395.56 1602.61 1383.83 1592.52 1386.01C1591.2 1386.19 1589.94 1386.66 1588.82 1387.37C1587.7 1388.08 1586.75 1389.02 1586.02 1390.14C1585.3 1391.25 1584.82 1392.5 1584.62 1393.82C1584.42 1395.13 1584.51 1396.47 1584.87 1397.74C1584.87 1397.74 1582.42 1376.73 1559.22 1384.64C1551.04 1387.37 1550.22 1423.94 1557.31 1437.31C1564.41 1450.68 1563.04 1463.51 1587.33 1459.14C1587.33 1459.14 1587.88 1470.88 1610.53 1462.69C1610.53 1462.69 1630.99 1461.6 1647.37 1461.87C1656.37 1462.15 1662.92 1466.24 1667.56 1462.69C1667.56 1462.69 1667.29 1418.76 1668.65 1407.29Z" fill="white"/>
<path d="M1578.33 1464.06C1573.86 1464.03 1569.5 1462.71 1565.77 1460.24C1548.86 1447.96 1547.76 1410.84 1547.76 1403.47C1547.76 1403.2 1548.31 1385.46 1552.13 1380.55C1555.95 1375.64 1566.59 1369.36 1574.23 1371.82C1574.94 1372 1575.59 1372.33 1576.16 1372.78C1576.72 1373.23 1577.19 1373.8 1577.52 1374.44C1577.86 1375.09 1578.05 1375.79 1578.1 1376.51C1578.14 1377.24 1578.03 1377.96 1577.78 1378.64C1577.34 1380.01 1576.38 1381.16 1575.1 1381.82C1573.82 1382.49 1572.33 1382.62 1570.96 1382.19C1567.96 1381.1 1563.86 1383.01 1560.86 1387.1C1559.49 1392.45 1558.76 1397.95 1558.68 1403.47C1558.68 1421.76 1563.05 1444.68 1572.32 1451.23C1573.91 1452.31 1575.74 1452.98 1577.64 1453.17C1579.55 1453.36 1581.47 1453.07 1583.24 1452.32C1583.92 1452.06 1584.65 1451.94 1585.37 1451.96C1586.1 1451.99 1586.82 1452.16 1587.48 1452.46C1588.14 1452.77 1588.73 1453.2 1589.22 1453.74C1589.71 1454.28 1590.09 1454.91 1590.34 1455.6C1590.77 1457.01 1590.65 1458.54 1589.99 1459.86C1589.33 1461.18 1588.18 1462.2 1586.79 1462.69C1584.07 1463.63 1581.21 1464.1 1578.33 1464.06V1464.06Z" fill="#282928"/>
<path d="M1602.61 1471.7C1599.03 1471.64 1595.58 1470.39 1592.79 1468.15C1576.69 1455.87 1569.86 1412.75 1581.05 1393.92C1586.24 1385.46 1592.24 1380.82 1599.06 1380.82C1609.43 1380.82 1615.98 1391.47 1616.8 1392.56C1617.19 1393.18 1617.45 1393.88 1617.57 1394.6C1617.69 1395.33 1617.65 1396.07 1617.48 1396.79C1617.3 1397.5 1616.98 1398.17 1616.53 1398.76C1616.09 1399.34 1615.53 1399.83 1614.89 1400.2C1614.29 1400.59 1613.61 1400.84 1612.91 1400.96C1612.2 1401.07 1611.48 1401.03 1610.79 1400.85C1610.1 1400.68 1609.45 1400.35 1608.89 1399.91C1608.33 1399.47 1607.86 1398.92 1607.52 1398.29C1606.16 1396.11 1602.34 1391.74 1599.06 1391.74C1596.33 1391.74 1593.33 1394.47 1590.6 1399.65C1581.6 1414.66 1588.69 1451.23 1599.34 1459.69C1600.97 1460.78 1603.43 1462.69 1608.07 1457.78C1608.57 1457.26 1609.17 1456.84 1609.83 1456.56C1610.49 1456.27 1611.21 1456.11 1611.93 1456.1C1612.65 1456.09 1613.37 1456.22 1614.04 1456.48C1614.71 1456.75 1615.33 1457.14 1615.85 1457.64C1616.37 1458.15 1616.78 1458.74 1617.07 1459.41C1617.36 1460.07 1617.51 1460.78 1617.53 1461.5C1617.54 1462.23 1617.41 1462.94 1617.14 1463.62C1616.88 1464.29 1616.48 1464.9 1615.98 1465.42C1612.51 1469.17 1607.72 1471.42 1602.61 1471.7V1471.7Z" fill="#282928"/>
<path d="M1632.08 1472.52C1629.5 1472.52 1626.92 1472.15 1624.44 1471.42C1603.43 1465.42 1600.7 1434.86 1603.98 1415.75C1607.25 1396.65 1612.71 1388.46 1621.71 1384.37C1624.58 1383.02 1627.72 1382.34 1630.89 1382.38C1634.06 1382.43 1637.17 1383.2 1640 1384.64C1641.26 1385.37 1642.19 1386.57 1642.57 1387.97C1642.96 1389.38 1642.77 1390.88 1642.04 1392.15C1641.32 1393.42 1640.12 1394.34 1638.72 1394.73C1637.31 1395.11 1635.81 1394.92 1634.54 1394.2C1633.21 1393.58 1631.77 1393.27 1630.31 1393.27C1628.85 1393.27 1627.41 1393.58 1626.08 1394.2C1620.89 1396.65 1617.07 1405.11 1614.89 1417.66C1612.71 1430.22 1614.35 1456.96 1627.44 1460.78C1630.17 1461.6 1633.72 1462.15 1635.63 1460.51C1637.09 1459.05 1637.96 1457.11 1638.09 1455.05C1638.09 1453.6 1638.66 1452.22 1639.69 1451.19C1640.71 1450.17 1642.1 1449.59 1643.54 1449.59C1644.99 1449.59 1646.38 1450.17 1647.4 1451.19C1648.43 1452.22 1649 1453.6 1649 1455.05C1648.98 1457.81 1648.36 1460.53 1647.18 1463.03C1646 1465.53 1644.3 1467.74 1642.18 1469.51C1639.2 1471.51 1635.68 1472.56 1632.08 1472.52Z" fill="#282928"/>
<path d="M1660.74 1473.06H1657.46C1635.9 1469.24 1634.81 1448.23 1640.54 1413.03C1642.73 1399.38 1652 1385.19 1661.83 1386.83C1676.56 1388.74 1672.74 1417.94 1671.65 1427.49L1666.19 1426.94L1671.65 1427.49C1671.37 1428.83 1671.28 1430.21 1671.38 1431.58C1670.9 1438.97 1671.26 1446.38 1672.47 1453.69C1673.93 1461.15 1672.84 1466.6 1669.2 1470.06C1668.09 1471.15 1666.76 1471.98 1665.3 1472.5C1663.84 1473.02 1662.28 1473.21 1660.74 1473.06V1473.06ZM1660.19 1397.47C1657.73 1398.84 1652.82 1405.38 1651.46 1414.66C1644.64 1455.87 1651.19 1460.51 1659.37 1461.87C1660.09 1462.07 1660.84 1462.07 1661.56 1461.87C1661.83 1461.6 1662.65 1459.69 1661.83 1455.05C1660.38 1447.04 1659.92 1438.89 1660.46 1430.76C1660.45 1429.12 1660.54 1427.48 1660.74 1425.85C1663.19 1405.39 1661.01 1399.11 1660.19 1397.47Z" fill="#282928"/>
<path d="M1146.61 1130.85L1271.05 1144.77L1273.23 1273.85L1144.42 1259.66L1146.61 1130.85Z" fill="white"/>
<path d="M1242.94 1180.79H1242.12L1169.53 1171.24C1168.73 1171.29 1167.93 1171.16 1167.19 1170.86C1166.44 1170.56 1165.77 1170.1 1165.23 1169.52C1164.68 1168.93 1164.27 1168.23 1164.02 1167.47C1163.78 1166.7 1163.7 1165.89 1163.81 1165.1C1163.91 1164.3 1164.18 1163.54 1164.61 1162.87C1165.04 1162.19 1165.62 1161.62 1166.29 1161.19C1166.97 1160.76 1167.74 1160.48 1168.53 1160.38C1169.33 1160.28 1170.13 1160.35 1170.9 1160.6L1243.49 1169.88C1244.2 1169.95 1244.9 1170.16 1245.54 1170.5C1246.17 1170.84 1246.74 1171.3 1247.19 1171.86C1247.65 1172.41 1247.99 1173.06 1248.2 1173.75C1248.41 1174.44 1248.47 1175.16 1248.4 1175.88C1248.21 1177.21 1247.56 1178.43 1246.56 1179.33C1245.56 1180.22 1244.28 1180.74 1242.94 1180.79V1180.79Z" fill="#282928"/>
<path d="M1231.2 1218.18H1230.11L1176.35 1208.9C1174.91 1208.57 1173.63 1207.72 1172.78 1206.52C1171.92 1205.31 1171.54 1203.82 1171.71 1202.35C1172.04 1200.93 1172.9 1199.68 1174.12 1198.87C1175.34 1198.05 1176.82 1197.74 1178.26 1197.99L1232.02 1207.54C1232.73 1207.63 1233.42 1207.88 1234.03 1208.25C1234.65 1208.63 1235.17 1209.12 1235.59 1209.71C1236 1210.3 1236.28 1210.97 1236.42 1211.68C1236.56 1212.39 1236.55 1213.11 1236.39 1213.81C1236.19 1215.04 1235.56 1216.16 1234.61 1216.96C1233.66 1217.76 1232.45 1218.2 1231.2 1218.18V1218.18Z" fill="#282928"/>
<path d="M1254.67 1253.38H1253.85L1159.98 1239.19C1159.27 1239.13 1158.58 1238.92 1157.96 1238.57C1157.33 1238.23 1156.79 1237.76 1156.35 1237.2C1155.92 1236.64 1155.6 1235.99 1155.43 1235.3C1155.25 1234.61 1155.22 1233.89 1155.34 1233.19C1155.44 1232.47 1155.68 1231.78 1156.05 1231.15C1156.42 1230.53 1156.92 1229.98 1157.5 1229.55C1158.09 1229.12 1158.75 1228.81 1159.46 1228.63C1160.16 1228.46 1160.9 1228.43 1161.62 1228.55L1255.49 1242.47C1256.21 1242.52 1256.91 1242.72 1257.55 1243.04C1258.19 1243.36 1258.76 1243.81 1259.23 1244.35C1259.7 1244.9 1260.06 1245.53 1260.28 1246.21C1260.51 1246.9 1260.59 1247.62 1260.54 1248.33C1260.49 1249.05 1260.29 1249.75 1259.97 1250.39C1259.64 1251.03 1259.2 1251.6 1258.65 1252.07C1258.11 1252.54 1257.48 1252.9 1256.79 1253.12C1256.11 1253.35 1255.39 1253.44 1254.67 1253.38V1253.38Z" fill="#282928"/>
<path d="M732.9 731.064H437.083C420.957 731.064 407.884 744.137 407.884 760.264V1477.56C407.884 1493.69 420.957 1506.76 437.083 1506.76H732.9C749.027 1506.76 762.1 1493.69 762.1 1477.56V760.264C762.1 744.137 749.027 731.064 732.9 731.064Z" fill="#282928"/>
<path d="M476.928 1463.51L479.384 1243.01H753.096V1474.43L476.928 1463.51Z" fill="white"/>
<path d="M758.554 1479.88L471.47 1468.7L473.926 1237.55H758.554V1479.88ZM482.659 1458.33L747.638 1468.7V1248.47H484.569L482.659 1458.33Z" fill="#282928"/>
<path d="M568.891 1468.15C567.443 1468.15 566.055 1467.58 565.032 1466.55C564.008 1465.53 563.433 1464.14 563.433 1462.69V1250.38C563.433 1248.93 564.008 1247.55 565.032 1246.52C566.055 1245.5 567.443 1244.92 568.891 1244.92C570.338 1244.92 571.727 1245.5 572.75 1246.52C573.774 1247.55 574.349 1248.93 574.349 1250.38V1462.69C574.349 1464.14 573.774 1465.53 572.75 1466.55C571.727 1467.58 570.338 1468.15 568.891 1468.15Z" fill="#282928"/>
<path d="M555.52 1239.46L550.881 1127.03H753.914V1248.2L555.52 1239.46Z" fill="white"/>
<path d="M759.373 1253.93L550.336 1244.65L545.151 1121.58H759.373V1253.93ZM560.706 1234.28L748.457 1242.47V1132.49H556.613L560.706 1234.28Z" fill="#282928"/>
<path d="M665.496 1246.29C664.049 1246.29 662.66 1245.71 661.637 1244.69C660.613 1243.67 660.038 1242.28 660.038 1240.83L660.857 1130.31C660.857 1128.86 661.432 1127.47 662.456 1126.45C663.479 1125.43 664.867 1124.85 666.315 1124.85C667.765 1124.98 669.118 1125.63 670.122 1126.69C671.126 1127.74 671.713 1129.13 671.773 1130.58L670.954 1240.83C670.954 1242.28 670.379 1243.67 669.356 1244.69C668.332 1245.71 666.944 1246.29 665.496 1246.29Z" fill="#282928"/>
<path d="M2496.88 1056.35C2495.44 1056.33 2494.07 1055.74 2493.06 1054.72L2359.35 922.363C2358.82 921.877 2358.39 921.287 2358.1 920.629C2357.82 919.971 2357.67 919.261 2357.67 918.542C2357.67 917.824 2357.82 917.113 2358.1 916.456C2358.39 915.798 2358.82 915.208 2359.35 914.722C2360.33 913.685 2361.68 913.075 2363.11 913.024C2364.54 912.973 2365.93 913.485 2366.99 914.449L2500.98 1047.08C2501.92 1048.13 2502.44 1049.49 2502.44 1050.9C2502.44 1052.31 2501.92 1053.67 2500.98 1054.72C2500.45 1055.26 2499.81 1055.68 2499.1 1055.97C2498.4 1056.25 2497.64 1056.38 2496.88 1056.35V1056.35Z" fill="#282928"/>
<path d="M2470.42 1114.75C2468.98 1114.73 2467.6 1114.14 2466.59 1113.12L2363.71 1011.6C2362.72 1010.54 2362.14 1009.15 2362.09 1007.69C2362.04 1006.24 2362.52 1004.81 2363.44 1003.69C2364.56 1002.78 2365.96 1002.28 2367.4 1002.28C2368.84 1002.28 2370.24 1002.78 2371.35 1003.69L2474.51 1105.47C2475.45 1106.53 2475.97 1107.89 2475.97 1109.3C2475.97 1110.71 2475.45 1112.07 2474.51 1113.12C2473.98 1113.66 2473.34 1114.08 2472.63 1114.37C2471.93 1114.65 2471.17 1114.78 2470.42 1114.75V1114.75Z" fill="#282928"/>
<path d="M898.548 2216.97C897.101 2216.97 895.713 2216.39 894.689 2215.37C893.666 2214.35 893.091 2212.96 893.091 2211.51L896.092 2073.43C896.162 2072.03 896.768 2070.71 897.784 2069.74C898.8 2068.78 900.149 2068.24 901.55 2068.24V2068.24C902.998 2068.24 904.386 2068.82 905.41 2069.84C906.433 2070.86 907.008 2072.25 907.008 2073.7L904.006 2211.78C904.007 2212.49 903.865 2213.19 903.587 2213.83C903.31 2214.48 902.903 2215.07 902.393 2215.55C901.882 2216.04 901.277 2216.41 900.617 2216.66C899.956 2216.9 899.252 2217.01 898.548 2216.97V2216.97Z" fill="#282928"/>
<path d="M923.925 2185.04H685.416C674.715 2185.04 666.04 2193.72 666.04 2204.42V2318.95C666.04 2329.65 674.715 2338.33 685.416 2338.33H923.925C934.625 2338.33 943.3 2329.65 943.3 2318.95V2204.42C943.3 2193.72 934.625 2185.04 923.925 2185.04Z" fill="#282928"/>
<path d="M731.537 2317.4C746.909 2317.4 759.372 2304.93 759.372 2289.56C759.372 2274.19 746.909 2261.73 731.537 2261.73C716.164 2261.73 703.701 2274.19 703.701 2289.56C703.701 2304.93 716.164 2317.4 731.537 2317.4Z" fill="white"/>
<path d="M893.091 2232.52H833.054C831.968 2232.52 830.927 2232.09 830.16 2231.33C829.392 2230.56 828.961 2229.52 828.961 2228.43C828.961 2227.35 829.392 2226.3 830.16 2225.54C830.927 2224.77 831.968 2224.34 833.054 2224.34H893.091C894.176 2224.34 895.218 2224.77 895.985 2225.54C896.753 2226.3 897.184 2227.35 897.184 2228.43C897.184 2229.52 896.753 2230.56 895.985 2231.33C895.218 2232.09 894.176 2232.52 893.091 2232.52V2232.52Z" fill="white"/>
<path d="M891.725 2255.99H845.606C844.52 2255.99 843.479 2255.56 842.712 2254.8C841.944 2254.03 841.513 2252.99 841.513 2251.9C841.513 2250.82 841.944 2249.77 842.712 2249.01C843.479 2248.24 844.52 2247.81 845.606 2247.81H891.725C892.811 2247.81 893.852 2248.24 894.62 2249.01C895.387 2249.77 895.819 2250.82 895.819 2251.9C895.819 2252.99 895.387 2254.03 894.62 2254.8C893.852 2255.56 892.811 2255.99 891.725 2255.99V2255.99Z" fill="white"/>
</svg>
