<svg width="3000" height="3000" viewBox="0 0 3000 3000" fill="none" xmlns="http://www.w3.org/2000/svg">
<path d="M2393.92 2839.61H2392.28C2391.57 2839.42 2390.91 2839.09 2390.33 2838.64C2389.76 2838.19 2389.28 2837.63 2388.92 2837C2388.56 2836.36 2388.34 2835.66 2388.26 2834.93C2388.18 2834.21 2388.24 2833.47 2388.45 2832.77L2519.72 2380.43C2520.16 2379.05 2521.11 2377.88 2522.38 2377.17C2523.65 2376.46 2525.14 2376.26 2526.56 2376.6C2527.26 2376.79 2527.92 2377.12 2528.5 2377.57C2529.08 2378.02 2529.56 2378.58 2529.91 2379.21C2530.27 2379.85 2530.5 2380.55 2530.58 2381.28C2530.66 2382.01 2530.59 2382.74 2530.39 2383.44L2399.11 2835.78C2398.73 2836.86 2398.03 2837.81 2397.1 2838.49C2396.18 2839.18 2395.07 2839.56 2393.92 2839.61Z" fill="#282928"/>
<path d="M1487.87 2642.7C1486.35 2642.7 1484.88 2642.11 1483.77 2641.06C1483.27 2640.54 1482.89 2639.92 1482.65 2639.24C1482.4 2638.56 1482.3 2637.83 1482.36 2637.11C1482.41 2636.39 1482.61 2635.69 1482.95 2635.05C1483.28 2634.41 1483.75 2633.85 1484.32 2633.4L2172.4 2003.3C2173.46 2002.34 2174.85 2001.82 2176.28 2001.87C2177.71 2001.93 2179.07 2002.54 2180.06 2003.58C2180.98 2004.71 2181.46 2006.13 2181.41 2007.59C2181.36 2009.05 2180.78 2010.44 2179.78 2011.51L1491.7 2641.34C1491.19 2641.81 1490.59 2642.17 1489.93 2642.41C1489.27 2642.64 1488.57 2642.74 1487.87 2642.7V2642.7Z" fill="#282928"/>
<path d="M1564.18 1150.04C1512.49 1165.63 1405.56 1171.37 1369.46 1173.01C1365.98 1173.12 1362.63 1174.39 1359.95 1176.62C1357.28 1178.85 1355.42 1181.91 1354.69 1185.32C1348.13 1214.31 1333.63 1286.23 1348.68 1293.34C1388.6 1311.67 1832.74 1229.08 1832.74 1229.08L1712.68 1115.85L1564.18 1150.04Z" fill="white"/>
<path d="M1372.19 1301.28C1359.89 1301.28 1350.86 1300.18 1346.48 1298.27C1342.11 1296.35 1325.7 1288.7 1349.49 1184.23C1350.43 1179.59 1352.91 1175.41 1356.54 1172.37C1360.17 1169.34 1364.73 1167.64 1369.46 1167.54C1401.73 1165.9 1511.12 1160.16 1562.53 1144.84H1562.81L1714.04 1110.11L1844.22 1232.63L1833.56 1234.55C1793.08 1241.93 1470.92 1301.28 1372.19 1301.28ZM1565.54 1155.24C1514.13 1170.82 1411.57 1176.57 1369.73 1178.48C1367.47 1178.5 1365.28 1179.3 1363.53 1180.75C1361.79 1182.19 1360.6 1184.19 1360.16 1186.41C1344.3 1256.42 1346.21 1285.96 1351.13 1288.42C1378.48 1301 1642.94 1258.34 1820.97 1225.52L1711.04 1121.87L1565.54 1155.24Z" fill="#282928"/>
<path d="M1824.26 1016.03C1802.65 1016.03 1785.42 1009.74 1773.12 996.891C1722.52 944.109 1775.85 802.172 1778.04 796.156C1778.59 794.81 1779.63 793.724 1780.95 793.115C1782.27 792.506 1783.77 792.42 1785.15 792.874C1785.84 793.118 1786.47 793.496 1787.01 793.988C1787.55 794.48 1787.98 795.075 1788.29 795.737C1788.6 796.4 1788.77 797.117 1788.79 797.846C1788.81 798.576 1788.69 799.303 1788.43 799.984C1787.88 801.352 1735.1 941.648 1781.05 989.233C1799.37 1008.38 1831.92 1010.29 1878.13 994.703C1879.55 994.264 1881.08 994.389 1882.4 995.052C1883.73 995.714 1884.75 996.863 1885.24 998.258C1885.6 999.636 1885.44 1001.1 1884.78 1002.36C1884.13 1003.63 1883.02 1004.6 1881.69 1005.1C1860.08 1012.48 1840.94 1016.03 1824.26 1016.03Z" fill="#282928"/>
<path d="M1927.36 1115.31C1926.04 1115.32 1924.76 1114.86 1923.76 1114.01C1922.75 1113.15 1922.09 1111.96 1921.89 1110.66L1918.88 1082.22C1917.56 1069.66 1917.74 1056.99 1919.43 1044.48L1933.92 941.374L1937.48 940.554C1943.77 939.186 1961.82 933.17 1967.56 922.777C1968.68 920.899 1969.36 918.791 1969.55 916.613C1969.74 914.434 1969.44 912.241 1968.66 910.197C1967.56 906.642 1965.65 901.993 1962.09 901.446C1958.54 900.899 1947.33 908.009 1943.77 911.838C1943.3 912.359 1942.74 912.783 1942.11 913.085C1941.48 913.387 1940.79 913.563 1940.09 913.601C1939.4 913.639 1938.7 913.539 1938.04 913.307C1937.38 913.075 1936.77 912.715 1936.25 912.248C1935.73 911.781 1935.3 911.217 1935 910.586C1934.7 909.955 1934.52 909.271 1934.49 908.573C1934.45 907.875 1934.55 907.175 1934.78 906.516C1935.01 905.856 1935.37 905.248 1935.84 904.728C1937.21 902.813 1951.15 887.772 1964.55 890.507C1971.48 892.147 1976.41 897.617 1979.32 906.915C1980.48 910.425 1980.88 914.139 1980.51 917.815C1980.13 921.491 1978.98 925.046 1977.13 928.247C1969.48 941.374 1951.43 947.938 1943.77 950.399L1930.37 1045.84C1928.69 1057.53 1928.5 1069.39 1929.82 1081.12L1932.83 1109.29C1932.95 1110 1932.92 1110.72 1932.74 1111.41C1932.57 1112.1 1932.25 1112.75 1931.81 1113.31C1931.38 1113.88 1930.83 1114.34 1930.21 1114.69C1929.58 1115.03 1928.89 1115.24 1928.18 1115.31H1927.36Z" fill="#282928"/>
<path d="M1820.19 862.754C1821.21 857.413 1819.27 852.555 1815.85 851.904C1812.44 851.253 1808.85 855.056 1807.83 860.397C1806.81 865.738 1808.75 870.595 1812.16 871.246C1815.58 871.897 1819.17 868.095 1820.19 862.754Z" fill="#282928"/>
<path d="M1889.43 878.654C1890.45 873.313 1888.51 868.456 1885.1 867.805C1881.69 867.154 1878.1 870.956 1877.08 876.297C1876.06 881.638 1878 886.495 1881.41 887.146C1884.82 887.797 1888.41 883.995 1889.43 878.654Z" fill="#282928"/>
<path d="M1832.19 848.39H1830.55L1798.28 840.185C1797.4 839.991 1796.56 839.625 1795.82 839.106C1795.08 838.588 1794.45 837.929 1793.97 837.166C1793.49 836.403 1793.16 835.552 1793.01 834.662C1792.86 833.772 1792.88 832.861 1793.08 831.981C1793.59 830.229 1794.76 828.741 1796.34 827.825C1797.92 826.908 1799.79 826.634 1801.56 827.058L1833.83 834.989C1834.71 835.183 1835.55 835.549 1836.29 836.068C1837.03 836.586 1837.66 837.246 1838.14 838.008C1838.62 838.771 1838.95 839.622 1839.1 840.512C1839.25 841.402 1839.23 842.313 1839.03 843.193C1838.61 844.686 1837.72 846.002 1836.48 846.94C1835.25 847.878 1833.74 848.387 1832.19 848.39V848.39Z" fill="#282928"/>
<path d="M1913.96 857.415C1912.69 857.435 1911.45 857.052 1910.41 856.321L1881.69 839.365C1880.18 838.407 1879.11 836.899 1878.7 835.161C1878.29 833.424 1878.58 831.595 1879.5 830.066C1880.42 828.514 1881.91 827.385 1883.65 826.924C1885.39 826.463 1887.24 826.708 1888.8 827.605L1917.52 844.561C1919.09 845.526 1920.22 847.064 1920.68 848.849C1921.14 850.635 1920.89 852.53 1919.98 854.133C1919.35 855.161 1918.47 856.006 1917.41 856.582C1916.35 857.158 1915.16 857.445 1913.96 857.415Z" fill="#282928"/>
<path d="M1830 921.956H1828.63C1819.61 919.768 1816.87 914.846 1816.33 911.29C1814.41 901.171 1827.27 891.326 1831.37 888.591C1831.96 888.178 1832.63 887.886 1833.33 887.731C1834.04 887.577 1834.77 887.562 1835.48 887.689C1836.19 887.816 1836.87 888.082 1837.48 888.471C1838.09 888.861 1838.61 889.366 1839.03 889.959C1839.44 890.551 1839.73 891.219 1839.89 891.925C1840.04 892.631 1840.06 893.36 1839.93 894.071C1839.8 894.782 1839.54 895.461 1839.15 896.069C1838.76 896.678 1838.25 897.203 1837.66 897.616C1831.64 901.718 1826.72 907.735 1826.99 909.376C1828.23 910.483 1829.74 911.238 1831.37 911.564C1832.06 911.721 1832.72 912.02 1833.29 912.441C1833.87 912.863 1834.35 913.398 1834.71 914.014C1835.07 914.629 1835.3 915.312 1835.38 916.02C1835.47 916.727 1835.4 917.445 1835.2 918.127C1834.89 919.258 1834.21 920.251 1833.27 920.946C1832.32 921.641 1831.17 921.997 1830 921.956Z" fill="#282928"/>
<path d="M1801.01 1112.03C1800.07 1112.11 1799.12 1111.92 1798.28 1111.48C1797.06 1110.74 1796.18 1109.55 1795.82 1108.18C1795.46 1106.8 1795.66 1105.33 1796.36 1104.09C1819.33 1063.89 1813.59 1017.4 1813.59 1016.85C1813.43 1015.41 1813.82 1013.96 1814.68 1012.8C1815.54 1011.63 1816.81 1010.83 1818.24 1010.56C1819.71 1010.47 1821.16 1010.92 1822.32 1011.83C1823.48 1012.74 1824.27 1014.04 1824.53 1015.49C1824.8 1017.4 1830.55 1066.08 1805.93 1109.29C1805.44 1110.15 1804.72 1110.86 1803.85 1111.34C1802.98 1111.82 1802 1112.06 1801.01 1112.03Z" fill="#282928"/>
<path d="M1802.65 736.536C1802.65 736.536 1749.6 694.694 1787.88 694.694C1826.17 694.694 1922.16 697.428 1957.17 754.039C1957.17 754.039 2009.13 774.824 2015.42 848.117C2021.71 921.41 1934.74 975.286 1934.74 975.286L1938.85 946.023C1938.85 946.023 2015.97 918.948 1949.24 894.335C1949.24 894.335 1945.14 922.504 1932.83 911.838C1920.52 901.172 1923.81 807.094 1912.32 795.335C1912.32 795.335 1849.97 830.34 1832.19 815.846C1814.41 801.351 1837.11 786.857 1837.11 786.857C1837.11 786.857 1770.38 819.948 1753.43 809.282C1736.47 798.617 1773.12 769.081 1773.12 769.081C1773.12 769.081 1719.51 802.992 1715.14 775.097C1710.76 747.202 1797.18 735.989 1799.92 736.263" fill="#282928"/>
<path d="M1848.32 970.636L1840.66 970.089C1839.24 969.761 1837.99 968.898 1837.17 967.678C1836.36 966.457 1836.04 964.972 1836.29 963.526C1836.56 962.118 1837.36 960.871 1838.54 960.052C1839.72 959.234 1841.17 958.91 1842.58 959.15C1843.4 959.424 1862.82 962.979 1868.29 948.758C1868.53 948.07 1868.91 947.438 1869.4 946.899C1869.89 946.359 1870.49 945.924 1871.15 945.618C1871.81 945.312 1872.53 945.142 1873.26 945.118C1873.99 945.093 1874.72 945.215 1875.4 945.476C1876.74 946.022 1877.81 947.077 1878.37 948.41C1878.93 949.743 1878.95 951.244 1878.41 952.587C1873.21 966.808 1858.99 970.636 1848.32 970.636Z" fill="#282928"/>
<path d="M1982.61 827.058C1981.8 827.072 1981 826.845 1980.32 826.407C1979.64 825.969 1979.1 825.339 1978.78 824.597C1962.64 787.403 1938.03 777.285 1938.03 777.285C1937 776.858 1936.17 776.054 1935.71 775.038C1935.26 774.021 1935.2 772.869 1935.57 771.815C1935.99 770.855 1936.76 770.094 1937.73 769.687C1938.7 769.28 1939.78 769.259 1940.76 769.627C1941.86 769.901 1968.66 780.566 1986.44 821.589C1986.8 822.57 1986.78 823.656 1986.38 824.622C1985.97 825.588 1985.21 826.362 1984.25 826.785L1982.61 827.058Z" fill="white"/>
<path d="M1983.15 891.053L1980.69 890.506C1980.24 890.203 1979.85 889.814 1979.55 889.36C1979.25 888.907 1979.04 888.398 1978.94 887.863C1978.84 887.329 1978.84 886.779 1978.95 886.247C1979.07 885.715 1979.28 885.21 1979.59 884.763C1981.85 881.481 1983.42 877.782 1984.21 873.883C1985.01 869.985 1985.02 865.966 1984.24 862.064C1984.12 861.524 1984.12 860.966 1984.22 860.423C1984.32 859.88 1984.53 859.363 1984.84 858.903C1985.14 858.444 1985.54 858.051 1986 857.748C1986.46 857.445 1986.98 857.239 1987.53 857.141C1988.03 856.975 1988.56 856.915 1989.09 856.965C1989.61 857.014 1990.12 857.173 1990.59 857.43C1991.05 857.686 1991.45 858.037 1991.77 858.458C1992.09 858.879 1992.32 859.362 1992.45 859.876C1994.14 870.039 1991.99 880.467 1986.43 889.138C1986.1 889.716 1985.62 890.196 1985.04 890.531C1984.47 890.867 1983.82 891.047 1983.15 891.053V891.053Z" fill="white"/>
<path d="M2246.51 1554.52C2246.51 1554.52 2310.24 1695.36 2163.38 1794.64C2016.52 1893.91 1819.34 1895 1814.96 1917.16C1810.58 1939.31 1888.53 2111.87 1877.86 2286.08L1793.36 2323.28C1793.36 2323.28 1619.69 1960.64 1628.45 1898.29C1637.2 1835.93 1698.46 1743.49 1922.99 1677.04C2147.51 1610.58 2246.51 1554.52 2246.51 1554.52Z" fill="#282928"/>
<path d="M2104.3 1828C2137.67 2093.28 2428.65 2466.03 2428.65 2466.03L2520.82 2403.41C2395.29 2252.44 2252.8 1684.7 2252.8 1684.7" fill="#282928"/>
<path d="M1376.29 833.349C1375.41 833.33 1374.55 833.044 1373.83 832.528C1350.59 820.495 1356.88 752.125 1367.27 680.199C1368.09 675.003 1368.64 670.901 1368.91 668.166C1369.18 665.431 1368.91 659.962 1368.64 659.415C1368.36 658.868 1367.27 658.321 1362.89 658.321C1354.41 658.321 1342.65 678.285 1337.46 691.959C1336.91 693.299 1335.86 694.368 1334.52 694.932C1333.19 695.496 1331.69 695.508 1330.35 694.967C1329.69 694.725 1329.1 694.355 1328.59 693.877C1328.08 693.399 1327.68 692.824 1327.39 692.186C1327.11 691.549 1326.96 690.861 1326.96 690.164C1326.95 689.467 1327.08 688.775 1327.34 688.13C1329.8 681.293 1343.75 647.381 1362.89 647.381C1365.43 647.188 1367.98 647.525 1370.39 648.373C1372.79 649.221 1374.98 650.559 1376.84 652.304C1380.67 656.953 1380.67 663.517 1379.85 669.533C1379.03 675.55 1378.75 676.644 1378.21 681.567C1375.2 701.257 1370.55 734.349 1369.18 764.432C1367.27 811.744 1375.47 821.042 1379.03 822.957C1380.24 823.698 1381.14 824.863 1381.54 826.228C1381.95 827.592 1381.83 829.057 1381.22 830.341C1380.78 831.272 1380.09 832.055 1379.21 832.591C1378.33 833.126 1377.32 833.39 1376.29 833.349V833.349Z" fill="#282928"/>
<path d="M1337.19 886.13C1335.89 886.036 1334.66 885.56 1333.63 884.763C1332.26 883.669 1300.27 857.962 1299.99 825.964C1299.92 825.238 1299.99 824.503 1300.22 823.808C1300.45 823.113 1300.82 822.473 1301.31 821.931C1301.8 821.389 1302.4 820.957 1303.07 820.662C1303.73 820.367 1304.46 820.217 1305.19 820.221C1306.67 820.22 1308.09 820.787 1309.16 821.806C1310.23 822.824 1310.86 824.216 1310.93 825.691C1311.21 852.492 1340.2 876.011 1340.47 876.285C1341.57 877.196 1342.3 878.486 1342.5 879.902C1342.7 881.318 1342.37 882.759 1341.56 883.942C1341.04 884.607 1340.38 885.147 1339.62 885.526C1338.86 885.904 1338.03 886.11 1337.19 886.13V886.13Z" fill="#282928"/>
<path d="M1349.22 1194.62H1348.68C1304.1 1189.42 1289.33 1069.09 1286.05 1032.44C1285.5 1027.25 1283.59 1024.79 1282.22 1024.51C1280.85 1024.24 1279.76 1025.06 1278.39 1026.7C1277.02 1028.34 1268.82 1045.84 1267.45 1050.77C1266.95 1052.16 1265.94 1053.31 1264.61 1053.97C1263.29 1054.64 1261.76 1054.76 1260.34 1054.32C1259.02 1053.83 1257.93 1052.84 1257.32 1051.56C1256.71 1050.29 1256.62 1048.83 1257.06 1047.48C1257.61 1045.3 1263.62 1027.52 1269.91 1019.59C1276.2 1011.66 1280.03 1012.21 1285.5 1013.85C1290.97 1015.49 1295.89 1022.32 1296.71 1031.35C1303.55 1102.45 1322.97 1180.67 1350.04 1183.95C1351.45 1184.16 1352.72 1184.9 1353.58 1186.02C1354.45 1187.14 1354.85 1188.56 1354.69 1189.97C1354.49 1191.27 1353.83 1192.46 1352.83 1193.32C1351.82 1194.17 1350.54 1194.63 1349.22 1194.62V1194.62Z" fill="#282928"/>
<path d="M1308.2 1249.31C1307.23 1249.33 1306.27 1249.05 1305.47 1248.49C1304.37 1247.95 1279.76 1233.18 1270.19 1210.48C1269.63 1209.17 1269.6 1207.7 1270.11 1206.37C1270.62 1205.04 1271.63 1203.97 1272.92 1203.37C1273.58 1203.05 1274.3 1202.87 1275.04 1202.83C1275.77 1202.8 1276.51 1202.91 1277.19 1203.17C1277.88 1203.42 1278.51 1203.81 1279.05 1204.32C1279.58 1204.82 1280.01 1205.43 1280.31 1206.1C1288.51 1225.52 1310.66 1238.92 1310.94 1239.19C1311.57 1239.53 1312.12 1240 1312.56 1240.56C1313.01 1241.13 1313.33 1241.78 1313.51 1242.47C1313.69 1243.16 1313.72 1243.88 1313.61 1244.59C1313.49 1245.3 1313.24 1245.98 1312.85 1246.58C1312.36 1247.38 1311.68 1248.05 1310.87 1248.53C1310.06 1249 1309.14 1249.27 1308.2 1249.31V1249.31Z" fill="#282928"/>
<path d="M1919.7 2295.93L1948.69 2388.09C1952.24 2399.61 1951.42 2412.04 1946.37 2422.99C1941.32 2433.94 1932.41 2442.65 1921.34 2447.44L1727.99 2516.9C1687.24 2534.95 1655.52 2497.76 1683.96 2463.3C1687.95 2458.62 1692.77 2454.72 1698.18 2451.81C1740.57 2429.39 1754.52 2402.31 1737.56 2342.69C1736.01 2337.25 1736.62 2331.42 1739.27 2326.43C1741.93 2321.43 1746.41 2317.65 1751.79 2315.89L1879.78 2275.14C1883.76 2273.87 1887.96 2273.4 1892.13 2273.76C1896.3 2274.12 1900.35 2275.29 1904.06 2277.23C1907.78 2279.16 1911.07 2281.8 1913.75 2285.01C1916.44 2288.22 1918.46 2291.93 1919.7 2295.93V2295.93Z" fill="#35E166"/>
<path d="M1759.71 2445.52C1758.82 2445.57 1757.93 2445.39 1757.12 2445.01C1756.31 2444.63 1755.6 2444.05 1755.07 2443.33C1750.81 2437.18 1744.66 2432.58 1737.54 2430.26C1730.43 2427.94 1722.75 2428.02 1715.68 2430.48C1714.27 2430.92 1712.74 2430.79 1711.41 2430.13C1710.09 2429.47 1709.07 2428.32 1708.57 2426.92C1708.2 2425.58 1708.32 2424.15 1708.93 2422.89C1709.53 2421.63 1710.57 2420.63 1711.86 2420.09C1721.23 2416.91 1731.37 2416.85 1740.78 2419.9C1750.2 2422.96 1758.37 2428.97 1764.09 2437.04C1764.86 2438.26 1765.15 2439.72 1764.9 2441.14C1764.65 2442.56 1763.87 2443.83 1762.72 2444.7C1761.82 2445.26 1760.78 2445.55 1759.71 2445.52Z" fill="#282928"/>
<path d="M1735.65 2470.68C1734.73 2470.7 1733.82 2470.48 1733.01 2470.05C1732.2 2469.62 1731.51 2468.99 1731 2468.22C1716.51 2446.62 1688.89 2454.27 1687.52 2454.55C1686.18 2454.9 1684.75 2454.72 1683.54 2454.06C1682.32 2453.4 1681.4 2452.31 1680.95 2450.99C1680.53 2449.61 1680.66 2448.12 1681.32 2446.84C1681.99 2445.56 1683.14 2444.59 1684.51 2444.15C1697.09 2440.33 1724.99 2439.51 1740.03 2462.2C1740.44 2462.8 1740.74 2463.46 1740.9 2464.17C1741.05 2464.88 1741.07 2465.61 1740.94 2466.32C1740.81 2467.03 1740.55 2467.71 1740.16 2468.32C1739.76 2468.93 1739.26 2469.45 1738.66 2469.86C1737.74 2470.38 1736.71 2470.67 1735.65 2470.68V2470.68Z" fill="#282928"/>
<path d="M1818.52 2473.14H1816.88C1815.5 2472.7 1814.36 2471.74 1813.69 2470.46C1813.02 2469.18 1812.89 2467.68 1813.32 2466.31L1839.85 2385.63C1840.29 2384.25 1841.25 2383.11 1842.53 2382.44C1843.82 2381.78 1845.31 2381.64 1846.69 2382.07C1848.02 2382.57 1849.12 2383.54 1849.78 2384.81C1850.44 2386.07 1850.6 2387.53 1850.24 2388.91L1823.71 2469.86C1823.31 2470.89 1822.59 2471.76 1821.65 2472.35C1820.72 2472.94 1819.62 2473.22 1818.52 2473.14V2473.14Z" fill="white"/>
<path d="M1862.27 2458.37H1860.63C1859.93 2458.19 1859.27 2457.86 1858.71 2457.41C1858.14 2456.96 1857.67 2456.39 1857.34 2455.74C1857 2455.1 1856.81 2454.39 1856.76 2453.67C1856.72 2452.94 1856.82 2452.22 1857.08 2451.54L1883.33 2370.86C1883.49 2370.12 1883.81 2369.42 1884.26 2368.81C1884.71 2368.2 1885.28 2367.69 1885.94 2367.31C1886.59 2366.93 1887.32 2366.69 1888.08 2366.61C1888.83 2366.53 1889.59 2366.61 1890.32 2366.83C1891.04 2367.06 1891.71 2367.44 1892.28 2367.94C1892.85 2368.44 1893.31 2369.05 1893.63 2369.74C1893.95 2370.43 1894.12 2371.17 1894.14 2371.93C1894.15 2372.69 1894.01 2373.44 1893.72 2374.14L1867.47 2454.82C1867.07 2455.88 1866.36 2456.78 1865.43 2457.42C1864.5 2458.06 1863.4 2458.39 1862.27 2458.37Z" fill="white"/>
<path d="M1921.62 2447.44H1921.34L1727.99 2516.9C1713.5 2523.19 1700.1 2522.64 1689.98 2517.72C1689.66 2517.49 1689.41 2517.17 1689.25 2516.8C1689.1 2516.44 1689.04 2516.04 1689.1 2515.64C1689.16 2515.25 1689.32 2514.88 1689.57 2514.57C1689.82 2514.26 1690.15 2514.03 1690.53 2513.89C1718.42 2505.96 1866.1 2462.75 1905.48 2415.17C1917.79 2400.12 1927.84 2383.35 1935.29 2365.39C1935.52 2364.72 1935.96 2364.14 1936.55 2363.74C1937.13 2363.35 1937.83 2363.15 1938.54 2363.18C1939.25 2363.21 1939.93 2363.47 1940.47 2363.92C1941.02 2364.36 1941.41 2364.98 1941.58 2365.67L1948.69 2388.09C1952.2 2399.58 1951.38 2411.96 1946.4 2422.89C1941.41 2433.82 1932.6 2442.55 1921.62 2447.44V2447.44Z" fill="#282928"/>
<path d="M2529.57 2345.15L2589.46 2420.91C2596.89 2430.37 2600.58 2442.23 2599.83 2454.23C2599.07 2466.24 2593.92 2477.55 2585.36 2486L2429.2 2619.73C2397.47 2651.18 2354.81 2627.66 2369.03 2585.54C2371.07 2579.7 2374.22 2574.31 2378.33 2569.68C2409.78 2533.58 2413.06 2503.23 2376.14 2453.73C2372.7 2449.21 2371.18 2443.53 2371.89 2437.9C2372.61 2432.27 2375.51 2427.15 2379.97 2423.64L2484.99 2339.96C2488.24 2337.34 2491.98 2335.39 2496 2334.23C2500.01 2333.07 2504.22 2332.72 2508.37 2333.2C2512.52 2333.69 2516.53 2334.99 2520.17 2337.05C2523.81 2339.1 2527 2341.85 2529.57 2345.15V2345.15Z" fill="#35E166"/>
<path d="M2383.26 2544.79C2381.7 2544.69 2380.24 2544.01 2379.15 2542.88C2378.22 2541.79 2377.76 2540.37 2377.86 2538.94C2377.96 2537.51 2378.62 2536.17 2379.7 2535.22C2387.29 2528.92 2396.7 2525.22 2406.55 2524.68C2416.4 2524.13 2426.17 2526.78 2434.4 2532.21C2435.59 2533.05 2436.42 2534.3 2436.73 2535.72C2437.03 2537.14 2436.78 2538.62 2436.04 2539.87C2435.21 2541.06 2433.95 2541.9 2432.53 2542.2C2431.11 2542.5 2429.63 2542.26 2428.38 2541.51C2422.17 2537.3 2414.77 2535.21 2407.28 2535.56C2399.78 2535.9 2392.6 2538.66 2386.81 2543.43C2385.82 2544.27 2384.56 2544.76 2383.26 2544.79V2544.79Z" fill="#282928"/>
<path d="M2366.02 2577.07C2365.17 2577.11 2364.31 2576.94 2363.55 2576.55C2362.78 2576.17 2362.12 2575.59 2361.65 2574.88C2360.85 2573.69 2360.51 2572.25 2360.71 2570.84C2360.92 2569.42 2361.64 2568.13 2362.74 2567.22C2373.14 2559.29 2398.84 2548.62 2420.99 2564.49C2421.59 2564.9 2422.1 2565.42 2422.49 2566.03C2422.88 2566.64 2423.15 2567.32 2423.28 2568.03C2423.4 2568.74 2423.39 2569.47 2423.23 2570.18C2423.07 2570.88 2422.78 2571.55 2422.36 2572.14C2421.96 2572.75 2421.43 2573.26 2420.81 2573.65C2420.19 2574.04 2419.5 2574.3 2418.78 2574.4C2418.06 2574.5 2417.32 2574.45 2416.62 2574.25C2415.92 2574.05 2415.26 2573.71 2414.7 2573.24C2393.65 2558.2 2370.4 2575.43 2369.31 2575.97C2368.39 2576.75 2367.22 2577.14 2366.02 2577.07Z" fill="#282928"/>
<path d="M2496.47 2546.98C2495.77 2547.02 2495.06 2546.91 2494.4 2546.67C2493.74 2546.42 2493.13 2546.05 2492.62 2545.56C2492.11 2545.08 2491.7 2544.49 2491.42 2543.84C2491.15 2543.19 2491 2542.49 2491 2541.79L2486.63 2457.01C2486.62 2455.58 2487.15 2454.19 2488.11 2453.13C2489.07 2452.07 2490.4 2451.4 2491.82 2451.26C2492.54 2451.23 2493.26 2451.33 2493.94 2451.57C2494.62 2451.82 2495.24 2452.19 2495.77 2452.67C2496.31 2453.15 2496.74 2453.74 2497.05 2454.39C2497.36 2455.04 2497.53 2455.74 2497.57 2456.46L2501.94 2541.24C2501.98 2541.96 2501.87 2542.68 2501.63 2543.36C2501.39 2544.03 2501.02 2544.66 2500.54 2545.19C2500.05 2545.72 2499.47 2546.16 2498.82 2546.46C2498.17 2546.77 2497.47 2546.95 2496.75 2546.98H2496.47Z" fill="white"/>
<path d="M2531.75 2517.72C2530.37 2517.66 2529.05 2517.1 2528.05 2516.15C2527.04 2515.19 2526.42 2513.9 2526.28 2512.52L2522.18 2427.74C2522.15 2427.03 2522.25 2426.31 2522.49 2425.63C2522.74 2424.95 2523.11 2424.33 2523.59 2423.8C2524.07 2423.26 2524.66 2422.83 2525.31 2422.52C2525.96 2422.21 2526.66 2422.04 2527.38 2422C2528.1 2421.97 2528.82 2422.07 2529.49 2422.31C2530.17 2422.56 2530.79 2422.93 2531.33 2423.41C2531.86 2423.89 2532.29 2424.48 2532.6 2425.13C2532.91 2425.78 2533.09 2426.48 2533.12 2427.2L2537.22 2511.98C2537.26 2512.7 2537.16 2513.41 2536.91 2514.09C2536.67 2514.77 2536.3 2515.39 2535.82 2515.93C2535.33 2516.46 2534.75 2516.89 2534.1 2517.2C2533.45 2517.51 2532.75 2517.69 2532.03 2517.72H2531.75Z" fill="white"/>
<path d="M2585.36 2486H2585.08L2429.2 2620C2417.99 2630.94 2405.13 2635.32 2394.19 2633.95C2393.76 2633.98 2393.34 2633.86 2392.99 2633.61C2392.64 2633.37 2392.38 2633.01 2392.25 2632.6C2392.12 2632.19 2392.14 2631.75 2392.29 2631.35C2392.45 2630.95 2392.73 2630.61 2393.1 2630.4C2416.34 2612.89 2538.86 2520.18 2558.83 2461.66C2564.93 2443.09 2568.33 2423.75 2568.95 2404.23C2569 2403.58 2569.23 2402.96 2569.63 2402.45C2570.03 2401.94 2570.57 2401.56 2571.18 2401.36C2571.8 2401.15 2572.46 2401.14 2573.08 2401.3C2573.7 2401.47 2574.26 2401.82 2574.69 2402.31L2589.46 2420.91C2596.89 2430.37 2600.58 2442.23 2599.82 2454.24C2599.07 2466.24 2593.92 2477.55 2585.36 2486V2486Z" fill="#282928"/>
<path d="M1979.87 1063.89C1979.87 1063.89 1866.38 1035.45 1824.53 1045.3C1788.16 1053.77 1494.71 912.932 1403.37 821.862C1401.42 819.9 1399 818.463 1396.35 817.685C1393.69 816.908 1390.88 816.815 1388.18 817.415C1385.48 818.016 1382.97 819.29 1380.89 821.119C1378.81 822.949 1377.23 825.274 1376.3 827.879V827.879C1369.98 845.371 1359.35 860.986 1345.39 873.277L1337.19 880.661C1335.45 882.185 1334.04 884.056 1333.06 886.154C1332.08 888.252 1331.55 890.532 1331.49 892.847C1331.44 895.162 1331.87 897.463 1332.76 899.602C1333.65 901.742 1334.97 903.673 1336.64 905.274C1382.31 949.031 1613.68 1141.56 1759.99 1172.74C1765.78 1173.97 1771.18 1176.62 1775.72 1180.43C1780.25 1184.25 1783.77 1189.12 1785.97 1194.62C1814.41 1264.9 1911.77 1515.14 1912.87 1641.76C1913.96 1789.99 2267.3 1613.04 2249.52 1545.77C2231.75 1478.49 2088.44 1083.31 1979.87 1063.89Z" fill="white"/>
<path d="M1981.51 1704.93C1967.27 1705.3 1953.12 1702.69 1939.94 1697.28C1918.61 1687.43 1907.67 1668.56 1907.4 1641.76C1906.31 1516.78 1810.31 1269.28 1780.78 1196.53C1778.95 1191.89 1776 1187.78 1772.17 1184.58C1768.35 1181.38 1763.79 1179.19 1758.9 1178.21C1605.75 1145.39 1369.73 944.655 1332.81 909.103C1328.48 904.738 1326.02 898.847 1325.98 892.694C1326.1 889.626 1326.84 886.615 1328.15 883.841C1329.47 881.068 1331.33 878.59 1333.63 876.558L1341.84 869.174C1355.19 857.511 1365.36 842.641 1371.38 825.964C1372.59 822.5 1374.68 819.404 1377.43 816.968C1380.17 814.533 1383.5 812.838 1387.08 812.044C1390.67 811.25 1394.4 811.384 1397.92 812.432C1401.44 813.48 1404.63 815.408 1407.2 818.033C1501.01 911.564 1790.62 1047.48 1823.17 1039.83C1865.56 1029.98 1974.4 1056.78 1981.24 1058.7C2029.1 1067.45 2087.35 1143.48 2153.81 1284.59C2205.77 1394.53 2245.97 1509.94 2254.99 1544.4C2260.46 1565.46 2237.22 1590.07 2216.71 1607.3C2162.01 1653.25 2054.53 1704.93 1981.51 1704.93ZM1391.61 822.409H1389.42C1387.63 822.77 1385.95 823.59 1384.56 824.787C1383.17 825.985 1382.12 827.521 1381.49 829.246C1374.96 847.743 1363.75 864.233 1348.95 877.105L1340.75 884.489C1339.54 885.492 1338.58 886.747 1337.92 888.165C1337.26 889.583 1336.91 891.129 1336.92 892.694C1336.88 894.237 1337.18 895.77 1337.79 897.187C1338.41 898.603 1339.32 899.869 1340.47 900.898C1392.43 950.945 1620.79 1137.19 1761.09 1167C1767.73 1168.43 1773.93 1171.48 1779.13 1175.86C1784.32 1180.25 1788.36 1185.84 1790.9 1192.16C1820.71 1265.45 1917.24 1514.32 1918.34 1641.49C1918.61 1663.91 1927.09 1678.95 1944.59 1686.88C1954.71 1691.81 1967.29 1693.72 1981.51 1693.72C2050.16 1693.72 2155.72 1643.95 2209.87 1598.55C2234.76 1577.49 2247.34 1558.89 2244.33 1546.86C2235.3 1512.68 2195.37 1398.36 2143.96 1288.97C2079.97 1153.05 2022.81 1077.02 1979.05 1069.09H1978.78C1977.41 1068.54 1865.83 1040.92 1825.63 1050.22L1821.25 1050.77C1767.92 1050.77 1488.97 914.846 1399.54 825.417C1397.34 823.506 1394.53 822.44 1391.61 822.409Z" fill="#282928"/>
<path d="M1885.79 2651.18C1884.61 2651.2 1883.45 2650.81 1882.51 2650.09C1881.39 2649.18 1880.68 2647.86 1880.52 2646.43C1880.37 2644.99 1880.79 2643.56 1881.69 2642.43L2300.66 2110.23C2301.09 2109.65 2301.64 2109.16 2302.26 2108.79C2302.89 2108.43 2303.59 2108.2 2304.31 2108.13C2305.03 2108.05 2305.76 2108.12 2306.45 2108.34C2307.14 2108.57 2307.78 2108.93 2308.32 2109.41C2309.44 2110.32 2310.15 2111.64 2310.31 2113.07C2310.46 2114.51 2310.04 2115.94 2309.14 2117.07L1890.17 2648.99C1889.64 2649.66 1888.98 2650.2 1888.22 2650.58C1887.47 2650.95 1886.64 2651.16 1885.79 2651.18V2651.18Z" fill="#282928"/>
<path d="M1892.35 2840.16C1890.97 2840.1 1889.65 2839.54 1888.65 2838.58C1887.64 2837.63 1887.01 2836.34 1886.88 2834.96L1880.59 2651.18L1482.4 2642.7V2383.17H1088.59V2026.82H528.501C527.05 2026.82 525.659 2026.25 524.633 2025.22C523.608 2024.19 523.031 2022.8 523.031 2021.35C523.031 2019.9 523.608 2018.51 524.633 2017.48C525.659 2016.46 527.05 2015.88 528.501 2015.88H1099.53V2372.23H1493.34V2632.04L1891.26 2640.24L1897.82 2834.69C1897.86 2835.39 1897.75 2836.1 1897.51 2836.76C1897.26 2837.42 1896.89 2838.03 1896.4 2838.54C1895.91 2839.05 1895.33 2839.46 1894.68 2839.74C1894.03 2840.01 1893.33 2840.16 1892.63 2840.16H1892.35Z" fill="#282928"/>
<path d="M1094.06 2383.17C1093.16 2383.1 1092.28 2382.85 1091.48 2382.42C1090.68 2382 1089.98 2381.42 1089.41 2380.71C1088.67 2379.46 1088.42 2377.98 1088.73 2376.55C1089.03 2375.13 1089.86 2373.88 1091.05 2373.05L1656.61 2000.02C1657.85 1999.22 1659.35 1998.95 1660.78 1999.25C1662.22 1999.56 1663.47 2000.43 1664.27 2001.66C1665.07 2002.89 1665.34 2004.39 1665.04 2005.83C1664.73 2007.27 1663.86 2008.52 1662.63 2009.32L1097.07 2382.07C1096.19 2382.72 1095.15 2383.1 1094.06 2383.17V2383.17Z" fill="#282928"/>
<path d="M1487.87 2383.17C1487.06 2383.17 1486.26 2382.97 1485.55 2382.59C1484.83 2382.21 1484.22 2381.65 1483.77 2380.98C1483.29 2380.44 1482.92 2379.8 1482.7 2379.11C1482.48 2378.42 1482.41 2377.69 1482.48 2376.97C1482.56 2376.25 1482.79 2375.55 1483.15 2374.92C1483.51 2374.3 1484.01 2373.75 1484.59 2373.32L2139.03 1846.6C2140.16 1845.7 2141.6 1845.28 2143.03 1845.43C2144.46 1845.59 2145.78 1846.3 2146.69 1847.42C2147.61 1848.59 2148.03 1850.07 2147.88 1851.55C2147.73 1853.03 2147.01 1854.39 2145.87 1855.35L1491.43 2381.8C1490.43 2382.65 1489.18 2383.13 1487.87 2383.17V2383.17Z" fill="#282928"/>
<path d="M2019.52 2847.81C2018.58 2847.9 2017.63 2847.71 2016.79 2847.27C2016.15 2846.9 2015.59 2846.41 2015.14 2845.82C2014.7 2845.23 2014.38 2844.56 2014.2 2843.84C2014.02 2843.13 2013.99 2842.39 2014.1 2841.66C2014.22 2840.93 2014.48 2840.23 2014.87 2839.61L2346.33 2295.11C2347.12 2293.94 2348.3 2293.1 2349.66 2292.75C2351.02 2292.39 2352.46 2292.55 2353.72 2293.19C2354.36 2293.56 2354.92 2294.05 2355.36 2294.64C2355.81 2295.23 2356.13 2295.9 2356.31 2296.61C2356.48 2297.33 2356.52 2298.07 2356.4 2298.8C2356.28 2299.53 2356.02 2300.23 2355.63 2300.85L2024.17 2845.35C2023.67 2846.12 2022.97 2846.75 2022.16 2847.18C2021.35 2847.61 2020.44 2847.83 2019.52 2847.81V2847.81Z" fill="#282928"/>
<path d="M1806.21 2833.86C1804.8 2833.87 1803.45 2833.33 1802.43 2832.36C1801.42 2831.39 1800.81 2830.07 1800.74 2828.67L1796.91 2734.86L1398.72 2726.39V2466.85H1004.91V2110.78H444.817C443.366 2110.78 441.975 2110.2 440.949 2109.18C439.923 2108.15 439.347 2106.76 439.347 2105.31C439.347 2103.86 439.923 2102.47 440.949 2101.44C441.975 2100.42 443.366 2099.84 444.817 2099.84H1015.85V2455.91H1409.66V2715.72L1807.3 2724.2L1811.68 2828.12C1811.68 2829.55 1811.15 2830.94 1810.19 2832C1809.23 2833.06 1807.91 2833.73 1806.48 2833.86H1806.21Z" fill="#282928"/>
<path d="M1094.06 2026.82C1093.14 2026.84 1092.23 2026.62 1091.42 2026.19C1090.61 2025.76 1089.92 2025.13 1089.41 2024.36C1089.02 2023.74 1088.76 2023.04 1088.64 2022.31C1088.53 2021.58 1088.56 2020.84 1088.74 2020.12C1088.92 2019.41 1089.24 2018.74 1089.68 2018.15C1090.13 2017.56 1090.69 2017.07 1091.33 2016.7L1845.59 1565.73L909.735 1549.32C908.285 1549.32 906.893 1548.75 905.868 1547.72C904.842 1546.7 904.266 1545.3 904.266 1543.85C904.266 1542.4 904.842 1541.01 905.868 1539.99C906.893 1538.96 908.285 1538.38 909.735 1538.38L1857.9 1555.07C1859.52 1555.07 1861.09 1555.61 1862.38 1556.6C1863.66 1557.59 1864.59 1558.97 1865.01 1560.54C1865.44 1562.11 1865.35 1563.79 1864.76 1565.31C1864.17 1566.84 1863.11 1568.14 1861.72 1569.01L1096.8 2026.27L1094.06 2026.82Z" fill="#282928"/>
<path d="M2125.09 1820.89C2124.34 1820.95 2123.6 1820.77 2122.96 1820.37C2122.32 1819.98 2121.82 1819.4 2121.53 1818.7C2121.02 1817.79 2120.88 1816.71 2121.13 1815.7C2121.38 1814.68 2122.02 1813.8 2122.9 1813.23C2182.25 1780.41 2236.12 1695.91 2236.67 1695.09C2236.97 1694.64 2237.36 1694.25 2237.82 1693.95C2238.27 1693.65 2238.78 1693.44 2239.31 1693.34C2239.85 1693.24 2240.4 1693.24 2240.93 1693.36C2241.46 1693.47 2241.97 1693.69 2242.41 1693.99C2243.3 1694.56 2243.93 1695.44 2244.19 1696.46C2244.44 1697.47 2244.29 1698.55 2243.78 1699.46C2241.32 1703.02 2187.99 1786.7 2127 1820.34L2125.09 1820.89Z" fill="white"/>
<path d="M1863.09 1043.66L1865.83 1046.94C1889.89 1076.47 2079.96 1317.96 2127 1651.33L2074.77 1684.7C2074.77 1684.7 2139.58 1477.4 1833.83 1041.74L1863.09 1043.66Z" fill="#282928"/>
<path d="M1974.95 1061.98C1974.95 1061.98 2096.37 1147.03 2237.49 1581.32L2217.8 1609.49C2217.8 1609.49 2093.64 1147.03 1947.05 1060.61L1974.95 1061.98Z" fill="#282928"/>
<path d="M1865.01 1697.28C1863.56 1697.28 1862.17 1696.7 1861.14 1695.67C1860.11 1694.65 1859.54 1693.26 1859.54 1691.81V1560.54C1859.54 1559.09 1860.11 1557.69 1861.14 1556.67C1862.17 1555.64 1863.56 1555.07 1865.01 1555.07C1866.46 1555.07 1867.85 1555.64 1868.88 1556.67C1869.9 1557.69 1870.48 1559.09 1870.48 1560.54V1691.81C1870.48 1693.26 1869.9 1694.65 1868.88 1695.67C1867.85 1696.7 1866.46 1697.28 1865.01 1697.28Z" fill="#282928"/>
<path d="M1849.15 1796.28H1847.23C1846.28 1795.7 1845.58 1794.79 1845.28 1793.73C1844.98 1792.66 1845.09 1791.52 1845.59 1790.53C1867.74 1750.33 1895.64 1724.9 1928.46 1715.6C1954.84 1708.22 1983.02 1710.95 2007.49 1723.26C2007.99 1723.51 2008.43 1723.87 2008.78 1724.3C2009.14 1724.73 2009.4 1725.24 2009.55 1725.77C2009.71 1726.31 2009.75 1726.88 2009.68 1727.43C2009.6 1727.98 2009.42 1728.52 2009.13 1729C2008.61 1729.93 2007.75 1730.62 2006.73 1730.93C2005.71 1731.23 2004.61 1731.13 2003.66 1730.64C1980.93 1719.35 1954.85 1716.82 1930.37 1723.53C1900.01 1732.28 1873.76 1756.07 1852.7 1794.63C1852.31 1795.2 1851.78 1795.66 1851.15 1795.94C1850.52 1796.23 1849.83 1796.35 1849.15 1796.28V1796.28Z" fill="white"/>
<path d="M1334.23 250.633L699.867 160.925C668.915 156.548 640.274 178.092 635.897 209.045L408.925 1814.06C404.548 1845.01 426.092 1873.65 457.045 1878.03L1091.4 1967.74C1122.36 1972.11 1151 1950.57 1155.37 1919.62L1382.35 314.603C1386.72 283.65 1365.18 255.01 1334.23 250.633Z" fill="#35E166"/>
<path d="M817.199 318.075L778.796 310.68C750.765 305.282 723.665 323.63 718.267 351.661L692.394 486.016C686.996 514.047 705.344 541.147 733.376 546.545L771.778 553.94C799.81 559.338 826.91 540.99 832.308 512.959L858.18 378.604C863.578 350.573 845.23 323.473 817.199 318.075Z" fill="white"/>
<path d="M781.473 560.14C777.888 560.183 774.309 559.816 770.807 559.046L732.246 551.662C717.439 548.749 704.385 540.099 695.931 527.598C687.478 515.097 684.311 499.76 687.122 484.933L712.829 350.38C715.809 335.536 724.503 322.457 737.037 313.965C749.571 305.472 764.941 302.246 779.832 304.982L818.12 312.366C825.504 313.776 832.538 316.629 838.819 320.761C845.099 324.894 850.503 330.224 854.72 336.448C858.937 342.672 861.885 349.667 863.394 357.032C864.904 364.397 864.946 371.988 863.518 379.369L837.537 513.922C834.952 526.907 827.959 538.601 817.743 547.024C807.526 555.446 794.714 560.08 781.473 560.14ZM772.722 548.38C778.684 549.532 784.814 549.497 790.762 548.278C796.711 547.059 802.361 544.68 807.39 541.277C812.418 537.874 816.727 533.513 820.07 528.444C823.412 523.375 825.724 517.697 826.871 511.734L852.852 377.454C855.132 365.393 852.578 352.918 845.741 342.722C838.836 332.614 828.223 325.637 816.205 323.305L777.644 315.921C771.699 314.772 765.585 314.81 759.655 316.032C753.724 317.254 748.093 319.636 743.086 323.042C738.08 326.448 733.795 330.809 730.48 335.876C727.165 340.944 724.884 346.616 723.768 352.568L697.788 486.847C696.629 492.819 696.66 498.962 697.88 504.922C699.101 510.882 701.485 516.543 704.898 521.579C711.824 531.666 722.428 538.637 734.434 540.996L772.722 548.38Z" fill="#282928"/>
<path d="M829.88 390.036H828.513L739.085 370.345C737.706 369.959 736.521 369.072 735.762 367.858C735.003 366.644 734.725 365.19 734.982 363.781C735.368 362.402 736.255 361.217 737.469 360.458C738.683 359.7 740.137 359.422 741.546 359.679L830.974 379.37C831.675 379.531 832.337 379.829 832.922 380.246C833.508 380.663 834.005 381.192 834.386 381.801C834.767 382.411 835.024 383.089 835.143 383.799C835.261 384.508 835.239 385.233 835.077 385.933C834.822 387.115 834.165 388.17 833.216 388.919C832.268 389.668 831.088 390.063 829.88 390.036V390.036Z" fill="#282928"/>
<path d="M807.452 434.887H806.631L748.106 426.409C747.384 426.309 746.69 426.066 746.063 425.693C745.437 425.321 744.891 424.828 744.458 424.242C744.025 423.656 743.713 422.989 743.541 422.281C743.369 421.573 743.341 420.838 743.457 420.119C743.523 419.408 743.734 418.719 744.077 418.094C744.421 417.469 744.889 416.921 745.454 416.485C746.018 416.049 746.666 415.734 747.358 415.559C748.049 415.384 748.77 415.354 749.473 415.469L808.272 423.947C809.676 424.151 810.946 424.893 811.813 426.016C812.68 427.138 813.078 428.554 812.921 429.964C812.73 431.295 812.078 432.517 811.078 433.416C810.079 434.316 808.795 434.836 807.452 434.887V434.887Z" fill="#282928"/>
<path d="M804.721 487.942H803.627L730.881 473.994C729.473 473.728 728.226 472.92 727.407 471.743C726.589 470.567 726.265 469.117 726.505 467.704C726.833 466.275 727.696 465.025 728.917 464.211C730.137 463.398 731.623 463.082 733.069 463.328L805.541 477.276C806.992 477.385 808.34 478.065 809.289 479.168C810.237 480.271 810.709 481.705 810.601 483.156C810.492 484.606 809.811 485.955 808.709 486.903C807.606 487.852 806.171 488.324 804.721 488.215V487.942Z" fill="#282928"/>
<path d="M659.502 1569.01C711.913 1569.01 754.4 1528.36 754.4 1478.22C754.4 1428.07 711.913 1387.42 659.502 1387.42C607.091 1387.42 564.604 1428.07 564.604 1478.22C564.604 1528.36 607.091 1569.01 659.502 1569.01Z" fill="white"/>
<path d="M962.981 1388.25L731.086 1320.88C713.681 1315.82 695.472 1325.83 690.415 1343.23L660.415 1446.5C655.358 1463.9 665.368 1482.11 682.773 1487.17L914.669 1554.54C932.074 1559.6 950.283 1549.59 955.34 1532.18L985.34 1428.92C990.397 1411.51 980.387 1393.3 962.981 1388.25Z" fill="white"/>
<path d="M572.808 697.975C571.648 697.971 570.519 697.597 569.585 696.909C568.651 696.221 567.96 695.253 567.612 694.146C567.404 693.446 567.339 692.711 567.42 691.986C567.501 691.26 567.727 690.558 568.084 689.92C568.441 689.283 568.922 688.724 569.498 688.275C570.075 687.827 570.735 687.498 571.441 687.309L1353.32 470.712C1354.73 470.428 1356.2 470.659 1357.45 471.361C1358.71 472.063 1359.67 473.191 1360.16 474.541C1360.51 475.954 1360.3 477.445 1359.59 478.714C1358.88 479.983 1357.72 480.935 1356.33 481.378L574.176 697.702L572.808 697.975Z" fill="#282928"/>
<path d="M560.229 778.378C559.021 778.405 557.841 778.011 556.893 777.262C555.945 776.513 555.287 775.457 555.033 774.276C554.828 773.594 554.765 772.876 554.849 772.169C554.933 771.461 555.162 770.778 555.521 770.162C555.88 769.547 556.362 769.012 556.936 768.59C557.511 768.169 558.166 767.87 558.862 767.713L1341.57 550.568C1342.91 550.219 1344.33 550.392 1345.55 551.052C1346.77 551.712 1347.69 552.81 1348.13 554.124C1348.34 554.824 1348.4 555.559 1348.32 556.284C1348.24 557.01 1348.01 557.713 1347.66 558.35C1347.3 558.987 1346.82 559.546 1346.24 559.995C1345.67 560.443 1345.01 560.772 1344.3 560.961L561.596 778.105L560.229 778.378Z" fill="#282928"/>
<path d="M1227.8 1385.23C1226.82 1385.25 1225.86 1384.97 1225.06 1384.41L528.777 987.045C527.559 986.306 526.678 985.12 526.32 983.741C525.963 982.362 526.158 980.898 526.863 979.661C527.557 978.396 528.722 977.457 530.105 977.047C531.488 976.637 532.976 976.79 534.247 977.473L1230.53 1374.84C1231.75 1375.58 1232.63 1376.77 1232.99 1378.14C1233.35 1379.52 1233.15 1380.99 1232.45 1382.23C1232.06 1383.14 1231.41 1383.91 1230.58 1384.45C1229.75 1384.98 1228.78 1385.26 1227.8 1385.23V1385.23Z" fill="#282928"/>
<path d="M1215.21 1461.81C1214.27 1461.89 1213.32 1461.7 1212.48 1461.26L517.014 1069.36C515.75 1068.67 514.81 1067.5 514.401 1066.12C513.991 1064.74 514.144 1063.25 514.827 1061.98C515.616 1060.74 516.85 1059.85 518.274 1059.5C519.698 1059.14 521.205 1059.34 522.484 1060.06L1217.95 1451.69C1219.17 1452.43 1220.05 1453.61 1220.4 1454.99C1220.76 1456.37 1220.57 1457.84 1219.86 1459.07C1219.44 1459.93 1218.77 1460.65 1217.95 1461.14C1217.12 1461.62 1216.17 1461.86 1215.21 1461.81V1461.81Z" fill="#282928"/>
<path d="M412.821 1822.8C411.66 1822.8 410.532 1822.43 409.598 1821.74C408.663 1821.05 407.972 1820.08 407.624 1818.98C407.264 1817.6 407.428 1816.14 408.085 1814.87C408.742 1813.61 409.845 1812.63 411.18 1812.14L1196.07 1569.83C1196.77 1569.63 1197.51 1569.56 1198.23 1569.64C1198.96 1569.72 1199.66 1569.95 1200.3 1570.31C1200.93 1570.66 1201.49 1571.14 1201.94 1571.72C1202.39 1572.3 1202.72 1572.96 1202.91 1573.66C1203.27 1575.04 1203.1 1576.5 1202.45 1577.77C1201.79 1579.03 1200.69 1580 1199.35 1580.5L414.461 1822.53L412.821 1822.8Z" fill="#282928"/>
<path d="M477.911 1880.78C476.729 1880.88 475.552 1880.54 474.598 1879.84C473.643 1879.13 472.974 1878.11 472.715 1876.95C472.462 1876.27 472.354 1875.55 472.399 1874.82C472.444 1874.1 472.64 1873.39 472.975 1872.75C473.31 1872.1 473.776 1871.53 474.344 1871.08C474.911 1870.63 475.568 1870.3 476.27 1870.12L1184.31 1657.89C1185.69 1657.53 1187.15 1657.7 1188.42 1658.36C1189.68 1659.01 1190.65 1660.12 1191.15 1661.45C1191.36 1662.15 1191.42 1662.88 1191.34 1663.61C1191.26 1664.34 1191.04 1665.04 1190.68 1665.68C1190.32 1666.31 1189.84 1666.87 1189.26 1667.32C1188.69 1667.77 1188.03 1668.1 1187.32 1668.29L479.278 1880.51L477.911 1880.78Z" fill="#282928"/>
</svg>
