<svg width="3000" height="3000" viewBox="0 0 3000 3000" fill="none" xmlns="http://www.w3.org/2000/svg">
<path d="M2693.53 2118.51C2677.38 2118.51 2662.67 2116.49 2651.7 2111.88C2617.38 2097.45 2615.36 2082.74 2616.22 2066.01C2616.51 2060.53 2616.51 2056.2 2614.2 2052.16C2604.97 2047.26 2531.99 2042.36 2392.09 2043.22C2265.45 2044.09 2178.33 2049.28 2169.97 2053.61C2161.6 2057.93 2159.58 2068.61 2158.14 2076.4C2156.63 2085.72 2151.86 2094.21 2144.67 2100.34C2137.49 2106.47 2128.35 2109.84 2118.91 2109.86H1054.18C1028.51 2111.01 899.277 2115.63 884.277 2109.57C869.277 2103.51 836.969 2070.05 824.565 2046.39C822.545 2044.66 811.584 2040.91 754.179 2042.36C714.948 2043.51 665.043 2046.97 616.581 2050.14C513.31 2056.78 449.56 2060.53 433.406 2054.18C417.251 2047.84 399.944 2058.22 384.366 2068.89C368.789 2079.57 359.847 2085.91 348.308 2081.88L344.27 2080.43C238.98 2044.95 180.71 2011.78 170.902 1982.36C155.325 1935.34 180.133 1901.01 204.076 1868.12C210.422 1859.18 207.537 1783.6 204.941 1710.04C198.018 1523.7 187.633 1241.58 264.076 1177.54C373.693 1085.8 975.72 1147.25 1001.39 1149.84C1002.15 1149.92 1002.89 1150.14 1003.56 1150.5C1004.23 1150.86 1004.82 1151.35 1005.3 1151.94C1005.79 1152.53 1006.15 1153.21 1006.37 1153.94C1006.59 1154.67 1006.66 1155.43 1006.59 1156.19C1006.51 1156.95 1006.29 1157.68 1005.93 1158.35C1005.57 1159.03 1005.08 1159.62 1004.49 1160.1C1003.9 1160.58 1003.22 1160.94 1002.49 1161.16C1001.76 1161.38 1001 1161.46 1000.24 1161.38C993.894 1160.81 377.155 1097.63 271.288 1186.48C199.46 1246.48 210.133 1536.39 216.48 1709.47C220.23 1812.74 221.672 1863.22 213.306 1874.47C189.941 1906.78 168.017 1937.07 181.864 1978.32C186.768 1993.03 214.749 2024.18 347.731 2069.18L352.058 2070.63C358.116 2072.64 367.635 2066.3 377.732 2059.09C394.174 2047.84 414.655 2033.7 437.733 2043.22C452.444 2048.99 539.272 2043.22 615.716 2038.32C773.795 2027.93 827.738 2026.78 834.661 2040.34C846.199 2063.13 875.911 2093.41 888.604 2098.61C901.296 2103.8 980.336 2100.91 1053.89 2098.03H2118.91C2125.62 2098.05 2132.12 2095.68 2137.25 2091.35C2142.38 2087.02 2145.79 2081 2146.89 2074.38C2149.2 2059.38 2154.97 2048.7 2163.91 2043.51C2178.04 2034.86 2321.99 2031.97 2396.12 2031.39C2453.82 2031.11 2507.18 2031.68 2546.13 2033.41C2617.67 2036.59 2621.13 2041.49 2623.43 2044.95C2625.74 2048.41 2628.05 2059.66 2627.76 2066.3C2626.9 2078.13 2626.61 2088.51 2656.03 2100.91C2685.45 2113.32 2767.09 2101.78 2803.73 2075.53C2812.67 2069.47 2822.76 2059.66 2821.9 2048.41C2821.03 2037.16 2821.32 2027.93 2821.03 2012.07C2819.59 1946.87 2816.99 1811.3 2782.96 1784.18L2781.23 1782.74V1781.01C2780.94 1779.85 2756.99 1666.77 2675.36 1626.68C2639.59 1609.08 2566.9 1604.75 2490.16 1600.14C2384.3 1594.08 2274.68 1587.45 2226.22 1547.06C2207.18 1530.91 2188.43 1511 2166.79 1487.93C2095.54 1411.48 1987.95 1296.38 1726.6 1186.48C1725.27 1185.85 1724.24 1184.73 1723.71 1183.36C1723.18 1181.99 1723.19 1180.47 1723.74 1179.11C1724.29 1177.75 1725.34 1176.65 1726.68 1176.03C1728.01 1175.42 1729.53 1175.34 1730.92 1175.81C1994.58 1286.87 2103.33 1403.12 2175.16 1479.85C2196.51 1502.93 2214.97 1522.54 2233.43 1538.12C2279.01 1576.2 2391.22 1582.83 2490.45 1588.6C2568.34 1593.22 2642.18 1597.54 2679.97 1616.29C2761.9 1656.39 2788.15 1760.53 2791.61 1776.68C2825.65 1806.97 2830.55 1913.99 2832.57 2012.07C2832.86 2027.64 2832.86 2040.05 2833.44 2048.13C2834.3 2061.11 2826.51 2073.8 2810.65 2085.34C2781.8 2105.82 2733.05 2118.51 2693.53 2118.51Z" fill="#282928"/>
<path d="M378.599 2065.43C378.599 2065.43 367.926 1859.47 523.986 1815.04C680.046 1770.62 859.76 1863.22 833.221 2048.41H423.888L378.599 2065.43Z" fill="#282928"/>
<path d="M1362.55 429.546H1341.79C1334.46 429.546 1328.52 435.48 1328.52 442.801C1328.52 450.122 1334.46 456.056 1341.79 456.056H1362.55C1369.88 456.056 1375.82 450.122 1375.82 442.801C1375.82 435.48 1369.88 429.546 1362.55 429.546Z" fill="#282928"/>
<path d="M983.796 2721.4C956.68 2721.4 939.084 2706.11 933.603 2689.67C928.122 2673.23 936.487 2647.84 958.122 2634.29C964.943 2630.14 972.475 2627.31 980.334 2625.92C1028.22 2617.84 1056.49 2598.52 1059.37 2524.09C1059.67 2515.98 1063.13 2508.31 1069 2502.7C1074.87 2497.1 1082.7 2494.01 1090.82 2494.09H1091.1L1248.9 2495.53C1260.38 2495.77 1271.33 2500.42 1279.47 2508.52C1283.45 2512.59 1286.57 2517.42 1288.65 2522.72C1290.73 2528.02 1291.73 2533.69 1291.59 2539.38L1289.86 2652.46C1289.58 2668.07 1283.58 2683.04 1273 2694.53C1262.42 2706.01 1247.99 2713.22 1232.45 2714.77H1232.16L991.007 2721.11L983.796 2721.4ZM1090.82 2505.63C1085.68 2505.63 1080.75 2507.6 1077.04 2511.15C1073.33 2514.7 1071.14 2519.54 1070.91 2524.67C1068.03 2596.21 1044.09 2626.79 982.353 2637.46C975.915 2638.44 969.737 2640.7 964.18 2644.09C946.872 2655.06 939.372 2670.92 944.564 2685.92C949.757 2700.92 963.026 2711.88 990.142 2709.58H990.431L1231.59 2703.23C1244.27 2702.02 1256.05 2696.17 1264.68 2686.8C1273.3 2677.42 1278.16 2665.2 1278.32 2652.46L1280.05 2539.09C1280.19 2534.93 1279.46 2530.78 1277.92 2526.91C1276.39 2523.04 1274.07 2519.53 1271.11 2516.59C1268.24 2513.59 1264.79 2511.2 1260.97 2509.57C1257.16 2507.93 1253.05 2507.08 1248.9 2507.07L1090.82 2505.63V2505.63Z" fill="#282928"/>
<path d="M1287.26 2670.63C1279.76 2695.73 1261.88 2714.48 1237.94 2717.08L985.242 2724.86C955.241 2728.04 934.76 2710.15 930.433 2687.65L932.164 2685.92C932.164 2685.92 1167.26 2697.75 1287.26 2670.63Z" fill="#35E166"/>
<path d="M1211.11 2630.25C1226.09 2630.25 1238.23 2618.11 1238.23 2603.13C1238.23 2588.16 1226.09 2576.02 1211.11 2576.02C1196.14 2576.02 1184 2588.16 1184 2603.13C1184 2618.11 1196.14 2630.25 1211.11 2630.25Z" fill="#35E166"/>
<path d="M1355.63 772.243H1354.47C1263.9 771.378 1252.94 650.511 1252.65 649.357C1252.63 647.813 1253.18 646.318 1254.19 645.149C1255.2 643.981 1256.6 643.221 1258.13 643.01C1259.64 643.004 1261.1 643.562 1262.22 644.576C1263.34 645.59 1264.04 646.987 1264.19 648.491C1264.47 649.645 1274.28 759.839 1354.76 760.704H1355.34C1440.73 760.704 1444.76 653.395 1444.76 648.78C1444.9 647.247 1445.59 645.817 1446.71 644.756C1447.82 643.694 1449.28 643.074 1450.82 643.01C1451.58 643.047 1452.32 643.234 1453.01 643.558C1453.7 643.883 1454.31 644.34 1454.82 644.902C1455.33 645.465 1455.72 646.123 1455.98 646.837C1456.23 647.552 1456.34 648.31 1456.3 649.068C1456.3 650.222 1451.98 772.243 1355.63 772.243Z" fill="#282928"/>
<path d="M1263.03 687.434C1254.65 687.418 1246.52 684.572 1239.96 679.357C1230.15 671.857 1224.38 659.741 1222.65 643.299C1220.05 618.779 1226.4 611.856 1234.76 605.51C1243.13 599.164 1241.98 599.741 1240.82 588.202C1240.67 586.672 1241.13 585.144 1242.1 583.954C1243.08 582.763 1244.48 582.009 1246.01 581.856C1247.54 581.703 1249.07 582.164 1250.26 583.138C1251.45 584.111 1252.21 585.518 1252.36 587.048C1254.09 603.779 1248.61 609.548 1241.69 614.741C1234.76 619.933 1231.88 622.241 1234.19 641.857C1237.94 677.626 1261.59 676.184 1264.19 675.895C1264.95 675.816 1265.71 675.887 1266.44 676.106C1267.17 676.324 1267.85 676.685 1268.44 677.168C1269.03 677.651 1269.52 678.246 1269.88 678.919C1270.24 679.592 1270.46 680.329 1270.53 681.088C1270.66 681.83 1270.62 682.59 1270.44 683.319C1270.25 684.049 1269.92 684.732 1269.46 685.328C1269 685.923 1268.42 686.417 1267.76 686.78C1267.11 687.142 1266.38 687.365 1265.63 687.434H1263.03Z" fill="#282928"/>
<path d="M1451.11 677.626H1450.25C1448.69 677.479 1447.25 676.737 1446.23 675.555C1445.21 674.372 1444.68 672.84 1444.77 671.28C1444.84 670.521 1445.06 669.783 1445.42 669.111C1445.78 668.438 1446.27 667.843 1446.86 667.36C1447.45 666.877 1448.13 666.516 1448.86 666.298C1449.59 666.079 1450.35 666.008 1451.11 666.087C1451.98 666.087 1473.32 666.953 1477.36 630.895C1479.67 610.414 1474.48 604.644 1468.71 598.587C1462.94 592.529 1456.59 585.606 1458.32 568.009C1458.48 566.479 1459.23 565.072 1460.42 564.099C1461.61 563.125 1463.14 562.664 1464.67 562.817C1466.2 562.97 1467.61 563.724 1468.58 564.915C1469.55 566.105 1470.02 567.633 1469.86 569.163C1468.71 581.567 1472.17 585.606 1477.07 590.798C1481.98 595.99 1491.79 606.375 1488.9 632.048C1484 675.607 1456.3 677.626 1451.11 677.626Z" fill="#282928"/>
<path d="M1356.5 717.434C1349.86 717.434 1345.25 716.858 1344.67 716.858C1343.92 716.788 1343.19 716.566 1342.53 716.203C1341.88 715.841 1341.3 715.346 1340.84 714.751C1340.38 714.156 1340.04 713.472 1339.86 712.743C1339.68 712.013 1339.64 711.254 1339.77 710.511C1339.84 709.752 1340.06 709.015 1340.42 708.342C1340.78 707.669 1341.27 707.074 1341.86 706.591C1342.45 706.109 1343.13 705.748 1343.86 705.529C1344.59 705.311 1345.35 705.239 1346.11 705.319C1346.4 705.319 1376.69 709.069 1392.27 696.665C1394.71 694.83 1396.72 692.487 1398.16 689.797C1399.61 687.107 1400.45 684.135 1400.63 681.088C1400.85 679.584 1401.62 678.216 1402.79 677.255C1403.97 676.293 1405.46 675.808 1406.98 675.895C1408.48 676.11 1409.85 676.881 1410.81 678.057C1411.77 679.232 1412.26 680.726 1412.17 682.242C1411.84 686.855 1410.54 691.347 1408.35 695.423C1406.16 699.499 1403.14 703.067 1399.48 705.896C1387.07 715.704 1368.32 717.434 1356.5 717.434Z" fill="#282928"/>
<path d="M1724 1217.34C1721.72 1217.28 1719.56 1216.35 1717.94 1214.75C1680.73 1184.46 1547.46 1212.73 1546.01 1213.02H1544C1540.82 1212.44 1234.18 1159.94 1195.53 1154.17C1175.91 1151 1113.89 1168.31 1025.62 1201.19C1021.51 1202.77 1017.05 1203.23 1012.7 1202.53C1008.35 1201.84 1004.26 1200.01 1000.83 1197.23C997.414 1194.46 994.785 1190.83 993.211 1186.71C991.638 1182.59 991.177 1178.14 991.873 1173.79C997.931 1133.11 1012.35 1068.78 1047.84 992.63C1102.07 875.224 1272.26 844.647 1292.17 841.474C1304.57 829.935 1308.03 785.223 1307.45 759.261C1307.37 758.495 1307.45 757.719 1307.69 756.986C1307.93 756.253 1308.32 755.579 1308.84 755.007C1309.36 754.435 1309.99 753.979 1310.69 753.669C1311.4 753.358 1312.16 753.199 1312.93 753.204C1314.47 753.267 1315.93 753.888 1317.05 754.949C1318.16 756.01 1318.85 757.44 1318.99 758.973C1318.99 766.473 1320.43 834.839 1297.93 851.57L1296.78 852.436H1295.34C1293.61 852.724 1112.16 880.705 1058.22 997.245C1023.6 1071.96 1009.18 1135.13 1003.12 1175.23C1002.78 1177.61 1003.08 1180.05 1004 1182.28C1004.91 1184.51 1006.4 1186.46 1008.32 1187.92C1010.1 1189.48 1012.29 1190.52 1014.63 1190.93C1016.97 1191.34 1019.37 1191.09 1021.58 1190.23C1086.2 1166 1169.28 1138.02 1197.26 1142.34C1234.76 1148.11 1524.67 1197.73 1544.86 1201.19C1558.71 1198.31 1679.29 1174.36 1722.27 1203.21C1724.57 1185.61 1712.46 1114.07 1671.5 1035.03C1630.54 955.995 1553.8 857.917 1423.71 845.801C1402.94 843.782 1395.15 784.646 1392.55 759.261C1392.4 757.731 1392.86 756.203 1393.83 755.013C1394.81 753.823 1396.21 753.068 1397.74 752.915C1399.27 752.762 1400.8 753.223 1401.99 754.197C1403.18 755.171 1403.94 756.577 1404.09 758.108C1404.09 758.396 1406.11 778.012 1410.15 797.627C1417.36 832.532 1424.57 834.262 1424.57 834.262C1508.51 842.051 1580.34 884.455 1638.04 960.322C1695.73 1036.19 1719.09 1117.54 1726.59 1149.27C1731.79 1171.19 1739 1209.27 1728.32 1215.9C1727.09 1216.86 1725.56 1217.37 1724 1217.34V1217.34Z" fill="#282928"/>
<path d="M1356.21 916.765H1355.34C1298.23 916.188 1259.28 863.975 1257.55 861.668C1256.67 860.405 1256.33 858.845 1256.6 857.33C1256.87 855.816 1257.73 854.47 1259 853.591C1260.26 852.711 1261.82 852.369 1263.33 852.639C1264.85 852.91 1266.19 853.771 1267.07 855.033C1267.36 855.321 1304 904.649 1355.34 905.226H1356.21C1389.96 905.226 1422.84 884.456 1454 843.494C1454.45 842.888 1455.02 842.378 1455.67 841.992C1456.33 841.606 1457.05 841.352 1457.8 841.245C1458.55 841.137 1459.31 841.179 1460.05 841.367C1460.78 841.555 1461.47 841.886 1462.08 842.341C1462.68 842.795 1463.19 843.365 1463.58 844.017C1463.96 844.668 1464.22 845.39 1464.33 846.14C1464.43 846.89 1464.39 847.654 1464.2 848.388C1464.01 849.122 1463.68 849.811 1463.23 850.418C1429.77 894.553 1393.71 916.765 1356.21 916.765Z" fill="#282928"/>
<path d="M1142.17 1161.09H1141.3C1140.55 1161.03 1139.83 1160.8 1139.17 1160.44C1138.51 1160.08 1137.93 1159.58 1137.47 1158.99C1137.01 1158.39 1136.68 1157.71 1136.49 1156.98C1136.31 1156.25 1136.28 1155.49 1136.4 1154.75C1145.92 1076 1172.17 1035.04 1173.32 1033.3C1174.2 1032.05 1175.52 1031.17 1177.02 1030.85C1178.52 1030.53 1180.08 1030.79 1181.4 1031.57C1182.03 1032.01 1182.56 1032.56 1182.98 1033.2C1183.39 1033.84 1183.67 1034.56 1183.81 1035.31C1183.94 1036.06 1183.92 1036.83 1183.76 1037.58C1183.59 1038.32 1183.28 1039.03 1182.84 1039.65C1182.84 1039.94 1157.17 1080.32 1147.94 1156.19C1147.73 1157.57 1147.03 1158.82 1145.97 1159.72C1144.91 1160.62 1143.56 1161.11 1142.17 1161.09Z" fill="#282928"/>
<path d="M1564.19 1201.77C1562.66 1201.77 1561.19 1201.16 1560.11 1200.08C1559.03 1199 1558.42 1197.53 1558.42 1196C1558.42 1195.13 1557.84 1099.65 1527.55 1069.65C1526.48 1068.52 1525.88 1067.03 1525.88 1065.47C1525.88 1063.91 1526.48 1062.41 1527.55 1061.29C1528.66 1060.29 1530.1 1059.74 1531.59 1059.74C1533.08 1059.74 1534.52 1060.29 1535.63 1061.29C1569.38 1094.75 1569.96 1191.96 1569.96 1196C1569.96 1197.53 1569.35 1199 1568.27 1200.08C1567.19 1201.16 1565.72 1201.77 1564.19 1201.77Z" fill="#282928"/>
<path d="M1169.57 1523.41C1168.06 1523.34 1166.64 1522.71 1165.57 1521.64C1164.5 1520.57 1163.87 1519.15 1163.8 1517.64L1154.28 1300.13C1154.26 1299.38 1154.39 1298.62 1154.67 1297.92C1154.94 1297.21 1155.35 1296.56 1155.87 1296.01C1156.39 1295.46 1157.02 1295.02 1157.71 1294.72C1158.4 1294.41 1159.15 1294.24 1159.91 1294.22C1160.67 1294.2 1161.42 1294.33 1162.13 1294.61C1162.83 1294.88 1163.48 1295.29 1164.03 1295.81C1164.58 1296.33 1165.02 1296.96 1165.33 1297.65C1165.63 1298.34 1165.8 1299.09 1165.82 1299.85L1175.34 1517.35C1175.38 1518.11 1175.27 1518.87 1175.01 1519.58C1174.76 1520.3 1174.37 1520.95 1173.86 1521.52C1173.35 1522.08 1172.73 1522.53 1172.05 1522.86C1171.36 1523.18 1170.62 1523.37 1169.86 1523.41H1169.57Z" fill="#282928"/>
<path d="M1556.4 1524.85H1556.11C1555.37 1524.85 1554.63 1524.7 1553.94 1524.41C1553.26 1524.11 1552.64 1523.68 1552.13 1523.14C1551.62 1522.6 1551.22 1521.96 1550.96 1521.27C1550.7 1520.57 1550.59 1519.82 1550.63 1519.08L1558.42 1321.48C1558.42 1320.74 1558.57 1320 1558.86 1319.31C1559.16 1318.63 1559.58 1318.01 1560.12 1317.5C1560.66 1316.99 1561.3 1316.59 1562 1316.33C1562.7 1316.07 1563.44 1315.96 1564.19 1316C1565.74 1316.07 1567.21 1316.75 1568.29 1317.87C1569.36 1319 1569.96 1320.5 1569.96 1322.06L1562.17 1519.37C1562.03 1520.82 1561.37 1522.18 1560.31 1523.19C1559.25 1524.2 1557.86 1524.79 1556.4 1524.85V1524.85Z" fill="#282928"/>
<path d="M1314.67 618.779C1318.17 618.779 1321.02 614.517 1321.02 609.26C1321.02 604.003 1318.17 599.741 1314.67 599.741C1311.16 599.741 1308.32 604.003 1308.32 609.26C1308.32 614.517 1311.16 618.779 1314.67 618.779Z" fill="#282928"/>
<path d="M1395.44 618.779C1398.94 618.779 1401.79 614.517 1401.79 609.26C1401.79 604.003 1398.94 599.741 1395.44 599.741C1391.93 599.741 1389.09 604.003 1389.09 609.26C1389.09 614.517 1391.93 618.779 1395.44 618.779Z" fill="#282928"/>
<path d="M1296.49 594.836C1294.91 594.772 1293.38 594.207 1292.14 593.222C1290.9 592.238 1290 590.884 1289.57 589.355C1289.19 587.487 1289.51 585.546 1290.47 583.898C1291.43 582.25 1292.95 581.01 1294.76 580.413L1326.78 572.047C1328.54 571.763 1330.35 572.14 1331.84 573.106C1333.34 574.073 1334.43 575.56 1334.89 577.281C1335.36 579.002 1335.17 580.835 1334.37 582.425C1333.56 584.016 1332.2 585.251 1330.53 585.894L1298.51 594.548L1296.49 594.836Z" fill="#282928"/>
<path d="M1416.49 592.818H1415.92L1383.03 589.934C1381.09 589.715 1379.31 588.749 1378.08 587.241C1376.84 585.733 1376.23 583.801 1376.4 581.856C1376.62 579.994 1377.55 578.289 1379 577.104C1380.46 575.919 1382.32 575.347 1384.19 575.51L1417.07 578.395C1418.02 578.468 1418.94 578.727 1419.79 579.159C1420.64 579.59 1421.39 580.185 1422.01 580.909C1422.63 581.633 1423.09 582.471 1423.38 583.377C1423.67 584.282 1423.78 585.236 1423.71 586.183C1423.5 587.97 1422.66 589.623 1421.33 590.841C1420.01 592.059 1418.29 592.761 1416.49 592.818V592.818Z" fill="#282928"/>
<path d="M1348.71 667.241H1348.42C1338.9 666.664 1335.44 662.337 1334 658.876C1330.54 649.356 1341.21 637.241 1344.67 633.779C1345.78 632.946 1347.16 632.541 1348.54 632.64C1349.93 632.738 1351.23 633.333 1352.21 634.315C1353.19 635.297 1353.79 636.6 1353.89 637.986C1353.99 639.371 1353.58 640.745 1352.75 641.856V641.856C1347.84 646.76 1344.38 653.106 1344.96 654.837C1345.54 656.568 1345.82 655.703 1349.29 655.703C1350.04 655.775 1350.78 655.997 1351.45 656.355C1352.13 656.714 1352.72 657.203 1353.21 657.793C1353.69 658.383 1354.05 659.063 1354.27 659.793C1354.49 660.524 1354.56 661.291 1354.48 662.049C1354.33 663.477 1353.66 664.8 1352.6 665.76C1351.53 666.72 1350.14 667.248 1348.71 667.241Z" fill="#282928"/>
<path d="M1137.55 1459.94C1138.48 1453.94 1141.46 1448.45 1145.98 1444.4C1150.51 1440.35 1156.29 1438 1162.36 1437.73C1246.59 1433.41 1550.06 1419.27 1572.56 1441.77C1595.06 1464.27 1734.96 2370.63 1704.39 2404.96C1682.46 2429.48 1463.23 2426.59 1424.58 2383.32C1385.92 2340.05 1368.32 1771.49 1368.32 1771.49C1368.32 1771.49 1358.81 2366.59 1335.44 2379.57C1312.07 2392.55 1026.2 2420.25 1014.67 2387.65C1003.13 2355.05 1116.78 1597.25 1137.55 1459.94Z" fill="#282928"/>
<path d="M1160.05 2308.03C1120.66 2307.69 1081.38 2303.93 1042.65 2296.78C1041.16 2296.5 1039.84 2295.65 1038.98 2294.41C1038.12 2293.17 1037.78 2291.64 1038.03 2290.15C1038.38 2288.64 1039.29 2287.32 1040.57 2286.46C1041.86 2285.61 1043.43 2285.27 1044.95 2285.53C1046.11 2285.82 1162.36 2307.17 1229.28 2288.99C1230.02 2288.77 1230.8 2288.71 1231.56 2288.79C1232.33 2288.88 1233.07 2289.12 1233.74 2289.49C1234.41 2289.87 1235 2290.38 1235.48 2290.98C1235.95 2291.59 1236.29 2292.29 1236.49 2293.03C1236.85 2294.48 1236.63 2296.02 1235.87 2297.31C1235.12 2298.6 1233.89 2299.55 1232.46 2299.96C1211.11 2305.72 1185.44 2308.03 1160.05 2308.03Z" fill="white"/>
<path d="M1592.46 2323.61C1518.33 2323.61 1440.15 2308.61 1436.11 2307.74C1434.63 2307.46 1433.31 2306.61 1432.45 2305.37C1431.59 2304.13 1431.24 2302.6 1431.5 2301.11C1431.78 2299.62 1432.63 2298.31 1433.87 2297.45C1435.11 2296.58 1436.64 2296.24 1438.13 2296.49C1439.57 2296.78 1570.83 2321.88 1652.75 2307.74C1654.24 2307.49 1655.77 2307.83 1657.01 2308.7C1658.25 2309.56 1659.1 2310.87 1659.39 2312.36C1659.64 2313.85 1659.3 2315.38 1658.43 2316.62C1657.57 2317.86 1656.26 2318.71 1654.77 2318.99C1634.17 2322.34 1613.33 2323.88 1592.46 2323.61Z" fill="white"/>
<path d="M1319 2297.07H1274.86C1273.33 2297.07 1271.86 2296.46 1270.78 2295.38C1269.7 2294.3 1269.09 2292.83 1269.09 2291.3C1269.09 2289.77 1269.7 2288.3 1270.78 2287.22C1271.86 2286.14 1273.33 2285.53 1274.86 2285.53H1319C1320.53 2285.53 1321.99 2286.14 1323.08 2287.22C1324.16 2288.3 1324.77 2289.77 1324.77 2291.3C1324.77 2292.83 1324.16 2294.3 1323.08 2295.38C1321.99 2296.46 1320.53 2297.07 1319 2297.07Z" fill="white"/>
<path d="M1361.4 1768.31H1359.67C1339.77 1761.68 1329.96 1722.45 1329.67 1647.74C1329.67 1594.95 1334.86 1542.73 1334.86 1542.16C1334.93 1541.4 1335.16 1540.66 1335.52 1539.99C1335.87 1539.32 1336.36 1538.72 1336.95 1538.24C1337.54 1537.75 1338.22 1537.39 1338.95 1537.18C1339.68 1536.96 1340.45 1536.89 1341.21 1536.96C1342.71 1537.18 1344.08 1537.95 1345.04 1539.13C1346 1540.3 1346.49 1541.79 1346.4 1543.31C1346.4 1543.89 1341.21 1595.52 1341.21 1647.74C1341.5 1740.33 1356.5 1755.04 1363.13 1757.06C1364.6 1757.59 1365.82 1758.66 1366.51 1760.06C1367.21 1761.46 1367.35 1763.07 1366.88 1764.56C1366.43 1765.65 1365.68 1766.59 1364.7 1767.26C1363.73 1767.92 1362.58 1768.29 1361.4 1768.31Z" fill="white"/>
<path d="M1372.65 1583.41C1378.07 1583.41 1382.46 1579.02 1382.46 1573.6C1382.46 1568.18 1378.07 1563.79 1372.65 1563.79C1367.23 1563.79 1362.84 1568.18 1362.84 1573.6C1362.84 1579.02 1367.23 1583.41 1372.65 1583.41Z" fill="white"/>
<path d="M1389.09 995.515C1399.29 995.515 1407.55 987.249 1407.55 977.053C1407.55 966.857 1399.29 958.591 1389.09 958.591C1378.9 958.591 1370.63 966.857 1370.63 977.053C1370.63 987.249 1378.9 995.515 1389.09 995.515Z" fill="#282928"/>
<path d="M1372.65 1652.35C1378.07 1652.35 1382.46 1647.96 1382.46 1642.54C1382.46 1637.13 1378.07 1632.74 1372.65 1632.74C1367.23 1632.74 1362.84 1637.13 1362.84 1642.54C1362.84 1647.96 1367.23 1652.35 1372.65 1652.35Z" fill="white"/>
<path d="M1254.38 2507.07L1131.49 2505.92V2397.46L1260.44 2376.4L1254.38 2507.07ZM1143.03 2494.38L1243.42 2495.53L1248.32 2390.24L1143.03 2407.26V2494.38Z" fill="#282928"/>
<path d="M1510.83 2507.07L1504.48 2376.4L1633.71 2397.46V2505.92L1510.83 2507.07ZM1516.88 2390.24L1521.79 2495.53L1622.17 2494.38V2407.26L1516.88 2390.24Z" fill="#282928"/>
<path d="M1348.71 1122.73H1348.42C1346.91 1122.58 1345.52 1121.88 1344.5 1120.76C1343.49 1119.64 1342.93 1118.18 1342.94 1116.67L1348.71 963.206C1348.74 962.448 1348.93 961.705 1349.26 961.019C1349.58 960.333 1350.04 959.718 1350.6 959.209C1351.16 958.7 1351.82 958.307 1352.53 958.052C1353.25 957.798 1354.01 957.687 1354.77 957.725C1355.54 957.721 1356.3 957.88 1357.01 958.19C1357.71 958.501 1358.34 958.957 1358.86 959.529C1359.38 960.101 1359.77 960.775 1360.01 961.508C1360.25 962.241 1360.33 963.017 1360.25 963.783L1354.48 1117.25C1354.4 1118.73 1353.76 1120.12 1352.69 1121.14C1351.61 1122.16 1350.19 1122.73 1348.71 1122.73Z" fill="#282928"/>
<path d="M1348.71 1403.4C1347.18 1403.4 1345.71 1402.8 1344.63 1401.72C1343.55 1400.63 1342.94 1399.17 1342.94 1397.64V1332.15C1342.94 1330.62 1343.55 1329.16 1344.63 1328.07C1345.71 1326.99 1347.18 1326.38 1348.71 1326.38C1350.24 1326.38 1351.71 1326.99 1352.79 1328.07C1353.87 1329.16 1354.48 1330.62 1354.48 1332.15V1397.64C1354.48 1398.39 1354.33 1399.14 1354.04 1399.84C1353.75 1400.54 1353.32 1401.18 1352.79 1401.72C1352.25 1402.25 1351.62 1402.68 1350.92 1402.97C1350.22 1403.26 1349.47 1403.4 1348.71 1403.4Z" fill="#282928"/>
<path d="M1273.42 1445.52L1263.03 1440.91C1274.86 1412.92 1266.78 1393.6 1256.11 1385.52C1251.53 1381.93 1245.87 1380.01 1240.05 1380.06C1234.23 1380.11 1228.6 1382.14 1224.09 1385.81C1200.43 1404.56 1218.61 1433.41 1219.18 1434.56L1209.67 1440.91C1201.01 1427.64 1191.49 1397.06 1216.88 1376.87C1223.36 1371.54 1231.46 1368.58 1239.85 1368.48C1248.24 1368.37 1256.42 1371.13 1263.03 1376.29C1277.17 1386.96 1288.13 1411.48 1273.42 1445.52Z" fill="#282928"/>
<path d="M1244.57 1383.79C1247.08 1383.09 1249.3 1381.58 1250.86 1379.49C1252.43 1377.41 1253.26 1374.86 1253.23 1372.25L1246.3 863.975C1246.26 862.158 1245.8 860.376 1244.94 858.773C1244.08 857.17 1242.86 855.792 1241.37 854.752C1239.88 853.712 1238.17 853.038 1236.37 852.786C1234.57 852.534 1232.73 852.711 1231.01 853.302L1196.97 865.129C1194.62 865.981 1192.6 867.558 1191.2 869.631C1189.8 871.704 1189.1 874.168 1189.19 876.668L1226.4 1373.98C1226.51 1375.71 1227.01 1377.4 1227.85 1378.91C1228.69 1380.43 1229.85 1381.75 1231.25 1382.76C1232.66 1383.78 1234.27 1384.48 1235.97 1384.81C1237.67 1385.13 1239.43 1385.08 1241.11 1384.66L1244.57 1383.79Z" fill="#282928"/>
<path d="M1522.36 1440.62L1512.27 1434.85L1517.46 1437.73L1512.27 1434.85C1513.13 1433.41 1532.75 1399.08 1509.09 1380.33C1504.68 1376.59 1499.11 1374.49 1493.33 1374.39C1487.55 1374.28 1481.91 1376.18 1477.36 1379.75C1466.69 1387.83 1458.32 1407.44 1470.44 1435.42L1459.77 1440.04C1445.05 1406 1456.3 1381.19 1470.15 1370.52C1476.78 1365.35 1484.98 1362.61 1493.38 1362.77C1501.78 1362.93 1509.88 1365.97 1516.31 1371.39C1541.69 1391.29 1531.31 1425.33 1522.36 1440.62Z" fill="#282928"/>
<path d="M1488.9 1378.02C1486.34 1377.37 1484.06 1375.89 1482.44 1373.79C1480.82 1371.7 1479.94 1369.13 1479.96 1366.48L1486.88 858.493C1486.88 856.652 1487.31 854.835 1488.15 853.195C1488.98 851.555 1490.2 850.14 1491.7 849.067C1493.2 847.994 1494.93 847.294 1496.75 847.027C1498.57 846.76 1500.43 846.933 1502.17 847.532L1536.5 859.647C1538.82 860.51 1540.81 862.098 1542.16 864.176C1543.51 866.254 1544.15 868.712 1544 871.186L1506.79 1368.5C1506.68 1370.23 1506.19 1371.91 1505.35 1373.42C1504.51 1374.93 1503.34 1376.23 1501.92 1377.22C1500.51 1378.22 1498.89 1378.89 1497.19 1379.18C1495.48 1379.46 1493.74 1379.36 1492.08 1378.88L1488.9 1378.02Z" fill="#282928"/>
<path d="M1216.59 2173.32H1213.42L1150.82 2168.7C1140.15 2167.89 1130.24 2162.88 1123.26 2154.77C1116.28 2146.66 1112.81 2136.11 1113.61 2125.43L1121.97 2016.68C1122.35 2011.38 1123.76 2006.21 1126.14 2001.46C1128.51 1996.71 1131.8 1992.47 1135.82 1988.99C1143.99 1982.07 1154.56 1978.65 1165.24 1979.47L1227.84 1984.37C1233.14 1984.74 1238.31 1986.15 1243.05 1988.53C1247.8 1990.91 1252.03 1994.21 1255.49 1998.23C1258.95 2002.26 1261.58 2006.93 1263.22 2011.98C1264.86 2017.03 1265.48 2022.35 1265.05 2027.64L1256.69 2136.4C1255.82 2146.45 1251.23 2155.81 1243.81 2162.64C1236.39 2169.48 1226.68 2173.28 1216.59 2173.32ZM1214.28 2161.78C1221.92 2162.26 1229.44 2159.71 1235.21 2154.69C1240.99 2149.67 1244.56 2142.58 1245.15 2134.95L1253.51 2026.49C1254.07 2018.85 1251.6 2011.3 1246.64 2005.47C1241.67 1999.64 1234.61 1996 1226.97 1995.34L1164.38 1990.72C1160.58 1990.38 1156.76 1990.82 1153.13 1992.01C1149.51 1993.2 1146.17 1995.12 1143.32 1997.64C1140.42 2000.08 1138.03 2003.07 1136.3 2006.44C1134.57 2009.81 1133.52 2013.48 1133.22 2017.26L1125.15 2126.01C1124.59 2133.62 1127.07 2141.14 1132.04 2146.92C1137.02 2152.71 1144.08 2156.29 1151.69 2156.88L1214.28 2161.78Z" fill="white"/>
<path d="M1212.55 2054.18H1210.24L1171.01 2051.01C1164.06 2050.48 1157.45 2047.81 1152.07 2043.37C1146.7 2038.92 1142.84 2032.93 1141.01 2026.2L1132.93 1995.62C1132.72 1994.9 1132.65 1994.15 1132.74 1993.4C1132.83 1992.65 1133.07 1991.93 1133.45 1991.28C1133.83 1990.64 1134.34 1990.07 1134.94 1989.63C1135.55 1989.18 1136.24 1988.87 1136.97 1988.7C1137.71 1988.48 1138.49 1988.41 1139.25 1988.5C1140.02 1988.58 1140.76 1988.82 1141.43 1989.2C1142.1 1989.58 1142.69 1990.08 1143.17 1990.69C1143.64 1991.3 1143.99 1992 1144.18 1992.74L1152.26 2023.32C1153.45 2027.71 1155.98 2031.63 1159.49 2034.53C1163.01 2037.42 1167.34 2039.15 1171.88 2039.47L1211.11 2042.64C1215.24 2042.91 1219.37 2042.02 1223.04 2040.09C1226.7 2038.15 1229.76 2035.24 1231.88 2031.68L1248.61 2002.26C1249.37 2000.92 1250.64 1999.94 1252.13 1999.53C1253.62 1999.13 1255.2 1999.33 1256.54 2000.1C1257.88 2000.86 1258.86 2002.13 1259.27 2003.61C1259.67 2005.1 1259.47 2006.69 1258.71 2008.03L1241.69 2037.45C1238.76 2042.58 1234.52 2046.84 1229.39 2049.78C1224.27 2052.72 1218.46 2054.24 1212.55 2054.18V2054.18Z" fill="white"/>
<path d="M1054.18 2646.98C1052.94 2647.08 1051.7 2646.73 1050.69 2645.98C1049.68 2645.24 1048.98 2644.16 1048.7 2642.94C1039.18 2612.94 1009.76 2613.52 1008.61 2613.52H1008.32C1006.81 2613.45 1005.38 2612.82 1004.32 2611.75C1003.25 2610.68 1002.62 2609.26 1002.55 2607.75C1002.55 2606.22 1003.16 2604.75 1004.24 2603.67C1005.32 2602.59 1006.79 2601.98 1008.32 2601.98C1019.77 2601.89 1030.94 2605.49 1040.19 2612.25C1049.43 2619 1056.26 2628.55 1059.67 2639.48C1060.05 2640.93 1059.87 2642.48 1059.18 2643.81C1058.49 2645.14 1057.32 2646.17 1055.92 2646.69L1054.18 2646.98Z" fill="#282928"/>
<path d="M1018.12 2666.02C1016.85 2666.08 1015.6 2665.71 1014.55 2664.98C1013.51 2664.25 1012.74 2663.2 1012.36 2661.98C1003.99 2631.69 968.797 2630.25 968.509 2630.25C967.751 2630.21 967.008 2630.03 966.322 2629.7C965.636 2629.38 965.021 2628.92 964.512 2628.36C964.002 2627.79 963.609 2627.14 963.355 2626.42C963.1 2625.71 962.989 2624.95 963.028 2624.19C963.027 2623.45 963.178 2622.71 963.471 2622.02C963.764 2621.34 964.194 2620.72 964.734 2620.21C965.274 2619.7 965.913 2619.3 966.611 2619.04C967.31 2618.78 968.054 2618.67 968.797 2618.71C984.086 2619.29 1015.24 2628.23 1023.61 2658.81C1023.82 2659.55 1023.89 2660.32 1023.81 2661.09C1023.72 2661.85 1023.48 2662.59 1023.11 2663.26C1022.73 2663.94 1022.22 2664.53 1021.62 2665C1021.01 2665.47 1020.31 2665.82 1019.57 2666.02H1018.12Z" fill="#282928"/>
<path d="M1769.58 2724.29H1762.37L1520.92 2717.94C1505.38 2716.52 1490.92 2709.39 1480.32 2697.94C1469.72 2686.49 1463.74 2671.52 1463.52 2655.92L1461.79 2542.55C1461.64 2536.86 1462.64 2531.2 1464.72 2525.9C1466.81 2520.6 1469.93 2515.77 1473.9 2511.69C1482.05 2503.6 1493 2498.95 1504.48 2498.71L1662.27 2497.27H1662.56C1670.67 2497.18 1678.5 2500.27 1684.37 2505.88C1690.25 2511.48 1693.7 2519.15 1694 2527.27C1696.89 2601.69 1725.15 2621.02 1773.04 2629.09C1780.95 2630.46 1788.51 2633.4 1795.25 2637.75C1816.89 2651.31 1826.69 2672.94 1819.77 2692.84C1812.85 2712.75 1796.69 2724.29 1769.58 2724.29ZM1521.79 2706.11L1763.23 2712.46C1790.35 2715.06 1804.77 2701.5 1808.81 2689.09C1812.85 2676.69 1806.5 2657.94 1789.19 2646.98C1783.58 2643.71 1777.42 2641.46 1771.02 2640.34C1709.29 2629.67 1685.35 2599.09 1682.46 2527.55C1682.24 2522.43 1680.04 2517.58 1676.33 2514.04C1672.63 2510.49 1667.69 2508.51 1662.56 2508.52V2508.52L1504.48 2509.96C1496.12 2510.11 1488.14 2513.52 1482.27 2519.48C1479.31 2522.41 1476.99 2525.92 1475.45 2529.79C1473.91 2533.67 1473.19 2537.81 1473.32 2541.98L1475.06 2655.34C1475.21 2668.08 1480.07 2680.31 1488.7 2689.68C1497.32 2699.05 1509.11 2704.91 1521.79 2706.11V2706.11Z" fill="#282928"/>
<path d="M1466.11 2673.52C1473.61 2698.61 1491.5 2717.36 1515.44 2719.96L1768.13 2727.75C1798.13 2730.92 1818.62 2713.04 1822.94 2690.54L1821.21 2688.81C1821.21 2688.81 1586.11 2700.63 1466.11 2673.52Z" fill="#35E166"/>
<path d="M1542.27 2633.13C1557.24 2633.13 1569.38 2620.99 1569.38 2606.02C1569.38 2591.04 1557.24 2578.9 1542.27 2578.9C1527.29 2578.9 1515.15 2591.04 1515.15 2606.02C1515.15 2620.99 1527.29 2633.13 1542.27 2633.13Z" fill="#35E166"/>
<path d="M1699.19 2649.86H1697.46C1696.01 2649.4 1694.81 2648.38 1694.1 2647.03C1693.4 2645.68 1693.26 2644.11 1693.71 2642.65C1697.08 2631.7 1703.9 2622.12 1713.15 2615.36C1722.41 2608.6 1733.6 2605.02 1745.06 2605.15C1746.59 2605.15 1748.06 2605.76 1749.14 2606.84C1750.22 2607.92 1750.83 2609.39 1750.83 2610.92C1750.69 2612.45 1750 2613.88 1748.89 2614.94C1747.77 2616.01 1746.31 2616.63 1744.77 2616.69C1743.62 2616.69 1714.19 2616.4 1704.68 2646.11C1704.34 2647.28 1703.61 2648.29 1702.61 2648.98C1701.61 2649.66 1700.4 2649.98 1699.19 2649.86V2649.86Z" fill="#282928"/>
<path d="M1735.25 2669.19H1733.81C1733.07 2668.99 1732.37 2668.65 1731.76 2668.17C1731.15 2667.7 1730.65 2667.11 1730.27 2666.44C1729.89 2665.77 1729.65 2665.02 1729.57 2664.26C1729.48 2663.49 1729.55 2662.72 1729.77 2661.98C1738.14 2631.4 1769.29 2622.46 1784.58 2621.88C1785.32 2621.84 1786.07 2621.96 1786.77 2622.21C1787.46 2622.47 1788.1 2622.87 1788.64 2623.38C1789.18 2623.9 1789.61 2624.51 1789.91 2625.2C1790.2 2625.88 1790.35 2626.62 1790.35 2627.36C1790.43 2628.13 1790.35 2628.91 1790.11 2629.64C1789.87 2630.37 1789.48 2631.05 1788.96 2631.62C1788.45 2632.19 1787.81 2632.65 1787.11 2632.96C1786.4 2633.27 1785.64 2633.43 1784.87 2633.42C1783.43 2633.42 1749.1 2635.15 1741.02 2665.15C1740.6 2666.34 1739.82 2667.37 1738.78 2668.1C1737.75 2668.82 1736.51 2669.2 1735.25 2669.19V2669.19Z" fill="#282928"/>
<path d="M1475.05 578.971C1475.05 489.835 1447.36 437.046 1337.45 439.642C1217.74 442.238 1235.05 578.971 1235.05 578.971L1352.17 531.374L1475.05 578.971Z" fill="#35E166"/>
<path d="M1389.09 492.431C1394.86 492.431 1436.11 501.373 1436.11 501.373V524.451L1389.09 514.931V492.431Z" fill="white"/>
<path d="M1228.13 619.068C1227.22 619.373 1226.25 619.478 1225.3 619.374C1224.35 619.27 1223.43 618.961 1222.6 618.468C1221.78 617.974 1221.08 617.308 1220.54 616.515C1220 615.722 1219.63 614.822 1219.47 613.876C1218.32 606.953 1219.19 596.28 1234.19 591.664C1254.96 585.318 1245.72 612.434 1228.13 619.068Z" fill="#282928"/>
<path d="M1262.46 603.202C1262.46 603.202 1269.38 568.009 1258.42 569.451C1247.46 570.894 1241.69 599.163 1241.69 599.163C1241.69 599.163 1244.86 642.721 1258.42 613.298" fill="#282928"/>
<path d="M1466.11 620.222C1466.11 620.222 1480.82 595.125 1475.34 587.625C1469.86 580.125 1450.25 568.587 1450.54 575.798C1450.82 583.01 1455.44 648.78 1466.11 620.222Z" fill="#282928"/>
<path d="M1234.47 597.144C1236.43 597.83 1238.53 597.977 1240.56 597.571C1242.59 597.165 1244.47 596.221 1246.01 594.836C1260.15 580.701 1308.32 538.585 1361.98 546.951C1426.3 557.336 1472.46 595.702 1482.27 599.163C1492.07 602.625 1511.11 580.99 1464.96 558.49C1418.8 535.989 1378.71 516.374 1326.21 527.912C1273.71 539.451 1226.4 575.509 1226.4 584.451C1226.4 593.394 1228.71 594.836 1234.47 597.144Z" fill="#35E166"/>
<path d="M1241.69 571.759C1240.97 571.823 1240.25 571.663 1239.63 571.301C1239.01 570.94 1238.52 570.394 1238.22 569.74C1237.85 569.328 1237.56 568.836 1237.4 568.301C1237.24 567.766 1237.2 567.202 1237.28 566.648C1237.36 566.095 1237.57 565.568 1237.88 565.104C1238.19 564.641 1238.61 564.254 1239.09 563.971C1241.97 561.663 1310.34 514.066 1355.05 520.124C1399.76 526.182 1463.8 553.297 1466.69 554.451C1467.7 554.897 1468.5 555.713 1468.93 556.732C1469.36 557.752 1469.38 558.897 1469 559.932C1468.78 560.468 1468.45 560.955 1468.04 561.363C1467.63 561.771 1467.14 562.092 1466.6 562.307C1466.06 562.522 1465.49 562.627 1464.91 562.616C1464.33 562.604 1463.76 562.476 1463.23 562.24C1462.65 562.24 1396.59 534.547 1353.9 528.778C1311.21 523.008 1244.86 570.317 1243.99 570.894C1243.69 571.185 1243.32 571.411 1242.93 571.56C1242.53 571.708 1242.11 571.776 1241.69 571.759V571.759Z" fill="white"/>
<path d="M1573.42 1022.34H1148.51C1129.39 1022.34 1113.9 1037.84 1113.9 1056.96V1507.86C1113.9 1526.98 1129.39 1542.47 1148.51 1542.47H1573.42C1592.54 1542.47 1608.04 1526.98 1608.04 1507.86V1056.96C1608.04 1037.84 1592.54 1022.34 1573.42 1022.34Z" fill="#35E166"/>
<path d="M1101.78 1470.62C1095.41 1470.59 1089.18 1468.69 1083.89 1465.14C1026.78 1428.5 1018.41 1205.52 1017.83 1196C1017.83 1194.47 1018.44 1193 1019.52 1191.92C1020.61 1190.84 1022.07 1190.23 1023.6 1190.23C1024.35 1190.19 1025.09 1190.3 1025.79 1190.56C1026.49 1190.82 1027.13 1191.22 1027.67 1191.73C1028.21 1192.24 1028.64 1192.86 1028.93 1193.54C1029.22 1194.23 1029.37 1194.96 1029.37 1195.71C1031.68 1258.6 1046.97 1427.92 1090.24 1455.62C1093.37 1457.69 1096.98 1458.91 1100.72 1459.16C1104.46 1459.41 1108.21 1458.69 1111.59 1457.06C1113 1456.49 1114.59 1456.5 1115.99 1457.1C1117.4 1457.69 1118.51 1458.82 1119.09 1460.23C1119.42 1460.91 1119.61 1461.65 1119.64 1462.4C1119.67 1463.16 1119.55 1463.91 1119.28 1464.61C1119.01 1465.32 1118.6 1465.96 1118.07 1466.49C1117.54 1467.03 1116.9 1467.45 1116.2 1467.73C1111.63 1469.63 1106.73 1470.61 1101.78 1470.62V1470.62Z" fill="#282928"/>
<path d="M1170.43 1492.25C1176.2 1492.25 1180.53 1495.43 1183.7 1490.81C1186.88 1486.2 1187.45 1481.58 1186.59 1473.79C1185.72 1466 1182.26 1448.98 1183.99 1442.06C1185.72 1435.14 1176.2 1421 1176.2 1421C1176.2 1421 1189.18 1406.29 1184.86 1394.17C1184.37 1392.59 1183.57 1391.12 1182.49 1389.86C1181.42 1388.6 1180.1 1387.57 1178.61 1386.84C1177.12 1386.11 1175.5 1385.7 1173.85 1385.62C1172.19 1385.54 1170.54 1385.8 1168.99 1386.39C1168.99 1386.39 1194.95 1380.04 1181.39 1352.35C1176.49 1342.54 1130.91 1347.15 1115.34 1358.4C1099.76 1369.66 1083.32 1369.66 1093.12 1399.37C1093.12 1399.37 1078.12 1401.96 1092.26 1428.79C1092.26 1428.79 1096.59 1453.89 1098.89 1474.66C1100.05 1485.91 1096.01 1494.85 1101.2 1499.75C1101.2 1499.75 1156.01 1492.54 1170.43 1492.25Z" fill="white"/>
<path d="M1094.57 1401.96C1093.5 1401.94 1092.46 1401.63 1091.55 1401.08C1090.63 1400.52 1089.89 1399.73 1089.38 1398.79C1087.41 1395.12 1086.36 1391.02 1086.31 1386.85C1086.26 1382.69 1087.21 1378.57 1089.09 1374.85C1100.05 1354.37 1139.57 1346.58 1162.07 1343.4C1167.77 1342.66 1173.54 1344.11 1178.22 1347.44C1185.72 1352.92 1189.19 1360.42 1188.03 1367.92C1187.75 1369.49 1186.87 1370.87 1185.57 1371.79C1184.28 1372.71 1182.68 1373.08 1181.11 1372.83C1179.66 1372.48 1178.38 1371.62 1177.53 1370.39C1176.68 1369.17 1176.31 1367.67 1176.49 1366.19C1177.07 1362.73 1175.34 1359.85 1171.3 1356.67C1169.08 1355.23 1166.43 1354.62 1163.8 1354.94C1137.26 1358.4 1106.4 1366.77 1099.47 1380.33C1097.17 1384.37 1097.45 1388.41 1099.76 1393.6C1100.11 1394.28 1100.31 1395.02 1100.37 1395.78C1100.43 1396.54 1100.33 1397.31 1100.09 1398.03C1099.85 1398.76 1099.47 1399.43 1098.96 1400C1098.46 1400.58 1097.85 1401.05 1097.17 1401.39L1094.57 1401.96Z" fill="#282928"/>
<path d="M1093.99 1436.29C1092.67 1436.22 1091.38 1435.82 1090.24 1435.14C1080.44 1427.35 1077.84 1417.54 1083.32 1408.02C1095.73 1386.96 1148.23 1371.67 1172.75 1382.06C1184 1386.96 1190.05 1393.6 1191.21 1401.39C1192.94 1413.79 1181.11 1423.6 1179.67 1424.46C1178.48 1425.41 1176.96 1425.86 1175.45 1425.69C1173.94 1425.53 1172.55 1424.78 1171.59 1423.6C1170.64 1422.41 1170.2 1420.89 1170.36 1419.38C1170.52 1417.87 1171.28 1416.48 1172.46 1415.52C1174.76 1413.79 1180.53 1408.02 1179.67 1403.12C1178.8 1398.21 1173.03 1394.75 1168.13 1392.73C1147.65 1383.79 1102.07 1398.79 1093.42 1413.79C1091.69 1416.96 1090.53 1420.71 1097.46 1425.91C1098.64 1426.87 1099.39 1428.25 1099.55 1429.77C1099.71 1431.28 1099.27 1432.79 1098.32 1433.98C1097.85 1434.69 1097.2 1435.28 1096.45 1435.68C1095.69 1436.08 1094.85 1436.29 1093.99 1436.29Z" fill="#282928"/>
<path d="M1105.24 1474.37C1102.37 1474.51 1099.49 1474.04 1096.81 1473C1094.12 1471.96 1091.69 1470.36 1089.67 1468.31C1085.05 1463.69 1083.32 1456.77 1084.76 1447.83C1088.8 1421.29 1125.72 1413.21 1149.67 1414.37C1173.61 1415.52 1183.13 1420.42 1188.32 1430.23C1193.51 1440.04 1187.46 1452.16 1187.17 1452.44C1186.78 1453.12 1186.26 1453.71 1185.64 1454.18C1185.02 1454.65 1184.31 1454.99 1183.56 1455.18C1182.8 1455.36 1182.02 1455.4 1181.25 1455.28C1180.48 1455.15 1179.75 1454.88 1179.09 1454.46C1177.85 1453.64 1176.98 1452.37 1176.66 1450.92C1176.34 1449.47 1176.59 1447.95 1177.36 1446.67C1177.36 1446.39 1180.82 1440.33 1178.22 1435.42C1175.63 1430.52 1170.15 1426.77 1149.09 1425.91C1128.03 1425.04 1098.9 1431.67 1096.01 1449.56C1095.43 1453.02 1095.43 1457.93 1098.03 1460.52C1099.16 1461.42 1100.45 1462.08 1101.84 1462.48C1103.23 1462.88 1104.68 1462.99 1106.11 1462.83C1106.87 1462.75 1107.63 1462.82 1108.36 1463.04C1109.09 1463.26 1109.77 1463.62 1110.36 1464.1C1110.95 1464.58 1111.44 1465.18 1111.8 1465.85C1112.16 1466.53 1112.38 1467.26 1112.45 1468.02C1112.62 1469.51 1112.2 1471 1111.29 1472.19C1110.37 1473.37 1109.03 1474.15 1107.55 1474.37H1105.24Z" fill="#282928"/>
<path d="M1103.22 1505.23C1101.1 1505.44 1098.96 1505.16 1096.96 1504.4C1094.96 1503.65 1093.17 1502.44 1091.72 1500.87C1090.27 1499.31 1089.2 1497.43 1088.59 1495.39C1087.98 1493.34 1087.86 1491.18 1088.22 1489.08C1089.67 1462.25 1115.34 1457.92 1158.9 1459.37C1175.92 1459.94 1194.38 1468.89 1194.38 1480.71C1194.38 1492.54 1178.22 1498.02 1145.92 1498.02H1141.01C1131.62 1498.73 1122.33 1500.47 1113.32 1503.21C1110.07 1504.38 1106.67 1505.06 1103.22 1505.23ZM1146.21 1470.62C1104.38 1470.62 1100.34 1479.27 1099.76 1489.66C1099.63 1490.84 1099.83 1492.04 1100.34 1493.12C1101.2 1493.69 1104.09 1494.27 1110.15 1492.54C1119.9 1489.54 1129.97 1487.7 1140.15 1487.06L1145.92 1486.48C1176.21 1486.48 1181.97 1481.29 1182.55 1480.42C1183.13 1479.56 1171.88 1471.19 1158.61 1470.91L1146.21 1470.62Z" fill="#282928"/>
<path d="M1631.98 1487.93C1627.1 1487.84 1622.29 1486.76 1617.85 1484.75C1616.43 1484.18 1615.3 1483.06 1614.71 1481.66C1614.12 1480.25 1614.1 1478.67 1614.67 1477.25C1614.95 1476.55 1615.37 1475.92 1615.91 1475.39C1616.45 1474.86 1617.09 1474.44 1617.79 1474.17C1618.5 1473.9 1619.25 1473.78 1620 1473.81C1620.76 1473.85 1621.5 1474.04 1622.17 1474.37C1625.58 1475.96 1629.33 1476.63 1633.07 1476.33C1636.82 1476.02 1640.42 1474.75 1643.52 1472.64C1687.65 1444.66 1705.25 1271.86 1708.14 1207.54C1708.28 1206.03 1708.98 1204.64 1710.1 1203.62C1711.22 1202.61 1712.68 1202.05 1714.19 1202.06C1714.96 1202.05 1715.73 1202.21 1716.43 1202.52C1717.14 1202.83 1717.77 1203.29 1718.29 1203.86C1718.81 1204.43 1719.2 1205.11 1719.43 1205.84C1719.67 1206.57 1719.76 1207.35 1719.67 1208.11C1719.39 1217.63 1707.85 1445.52 1649.87 1482.44C1644.51 1485.86 1638.33 1487.76 1631.98 1487.93V1487.93Z" fill="#282928"/>
<path d="M1563.61 1509.56C1557.84 1509.27 1553.52 1512.73 1550.34 1507.83C1547.17 1502.93 1546.31 1498.6 1547.46 1491.1C1548.61 1483.6 1551.5 1466 1549.77 1459.08C1548.04 1452.16 1557.84 1438.02 1557.84 1438.02C1557.84 1438.02 1544.86 1423.31 1549.19 1411.19C1549.67 1409.61 1550.47 1408.15 1551.55 1406.89C1552.63 1405.64 1553.96 1404.63 1555.46 1403.92C1556.95 1403.21 1558.58 1402.83 1560.23 1402.79C1561.89 1402.75 1563.53 1403.06 1565.06 1403.69C1565.06 1403.69 1539.09 1397.35 1552.65 1369.65C1557.56 1359.56 1602.85 1364.46 1618.71 1375.71C1634.58 1386.96 1650.44 1386.96 1640.92 1416.39C1640.92 1416.39 1655.63 1418.98 1641.79 1445.81C1641.79 1445.81 1637.46 1471.19 1635.15 1491.68C1633.71 1502.93 1638.04 1511.87 1632.85 1516.77C1632.85 1516.77 1578.04 1509.56 1563.61 1509.56Z" fill="white"/>
<path d="M1639.19 1418.98C1638.29 1419.07 1637.38 1418.87 1636.6 1418.4C1635.92 1418.1 1635.32 1417.66 1634.82 1417.11C1634.32 1416.56 1633.93 1415.91 1633.69 1415.21C1633.45 1414.51 1633.35 1413.77 1633.4 1413.03C1633.46 1412.29 1633.66 1411.56 1634 1410.9C1635.23 1408.87 1635.92 1406.57 1636.02 1404.2C1636.12 1401.83 1635.63 1399.47 1634.58 1397.35C1627.37 1384.08 1596.5 1375.42 1570.25 1371.96C1567.49 1371.59 1564.69 1372.32 1562.46 1373.98C1558.71 1376.87 1556.69 1380.04 1557.27 1383.21C1557.52 1384 1557.61 1384.83 1557.52 1385.64C1557.42 1386.46 1557.16 1387.25 1556.73 1387.96C1556.31 1388.67 1555.74 1389.28 1555.06 1389.75C1554.38 1390.21 1553.61 1390.53 1552.8 1390.68C1551.99 1390.82 1551.16 1390.79 1550.36 1390.59C1549.56 1390.39 1548.81 1390.01 1548.17 1389.5C1547.53 1388.98 1547 1388.33 1546.63 1387.6C1546.26 1386.86 1546.05 1386.06 1546.02 1385.23C1544.58 1377.44 1548.04 1370.23 1555.83 1364.46C1560.44 1361.22 1566.12 1359.88 1571.69 1360.71C1594.19 1363.6 1633.71 1371.67 1644.67 1391.87C1646.62 1395.57 1647.62 1399.69 1647.57 1403.87C1647.52 1408.06 1646.42 1412.16 1644.39 1415.81C1643.93 1416.79 1643.19 1417.62 1642.27 1418.18C1641.35 1418.75 1640.27 1419.03 1639.19 1418.98Z" fill="#282928"/>
<path d="M1640.06 1453.31C1639.17 1453.29 1638.29 1453.07 1637.49 1452.67C1636.69 1452.27 1635.99 1451.7 1635.44 1451C1634.52 1449.78 1634.13 1448.24 1634.35 1446.72C1634.56 1445.21 1635.37 1443.84 1636.6 1442.92C1643.23 1438.02 1642.37 1433.98 1640.64 1431.1C1631.69 1416.1 1586.4 1401.1 1565.92 1409.75C1560.73 1412.06 1554.67 1415.52 1554.1 1420.14C1553.52 1424.75 1559.29 1431.1 1561.31 1432.83C1561.93 1433.28 1562.44 1433.85 1562.83 1434.52C1563.21 1435.18 1563.45 1435.91 1563.53 1436.67C1563.61 1437.44 1563.53 1438.21 1563.3 1438.93C1563.07 1439.66 1562.68 1440.33 1562.17 1440.91C1561.21 1442.09 1559.82 1442.84 1558.31 1443C1556.8 1443.16 1555.28 1442.72 1554.1 1441.77C1552.94 1440.62 1541.11 1431.1 1542.85 1418.69C1543.71 1410.62 1550.06 1404.27 1561.31 1399.37C1585.54 1388.69 1638.33 1403.98 1650.44 1425.33C1656.21 1434.85 1653.62 1444.66 1643.52 1452.16C1642.56 1452.97 1641.32 1453.38 1640.06 1453.31V1453.31Z" fill="#282928"/>
<path d="M1628.8 1491.67H1626.5C1625.74 1491.6 1625 1491.38 1624.33 1491.02C1623.65 1490.66 1623.06 1490.17 1622.58 1489.58C1622.09 1488.99 1621.73 1488.31 1621.51 1487.58C1621.3 1486.85 1621.22 1486.09 1621.3 1485.33C1621.37 1484.58 1621.6 1483.85 1621.96 1483.19C1622.32 1482.53 1622.81 1481.96 1623.41 1481.5C1624.01 1481.04 1624.69 1480.7 1625.42 1480.52C1626.15 1480.33 1626.91 1480.3 1627.65 1480.42C1630.66 1480.58 1633.62 1479.66 1636.02 1477.83C1638.61 1475.23 1638.32 1470.62 1637.75 1466.87C1635.15 1449.27 1605.15 1442.35 1584.96 1443.21C1564.76 1444.08 1557.55 1449.85 1555.82 1453.02C1554.09 1456.19 1556.69 1463.98 1556.69 1463.98C1557.43 1465.29 1557.64 1466.83 1557.26 1468.29C1556.88 1469.74 1555.95 1470.99 1554.67 1471.77C1554.05 1472.19 1553.35 1472.48 1552.62 1472.62C1551.88 1472.76 1551.13 1472.75 1550.4 1472.59C1549.67 1472.42 1548.98 1472.12 1548.38 1471.68C1547.77 1471.24 1547.26 1470.68 1546.88 1470.04C1546.59 1469.46 1539.96 1458.21 1545.44 1447.54C1550.92 1436.87 1563.9 1432.54 1584.38 1431.67C1604.86 1430.81 1645.25 1438.89 1649.28 1465.14C1650.73 1474.08 1649 1481 1644.38 1485.91C1640.11 1489.75 1634.54 1491.81 1628.8 1491.67V1491.67Z" fill="#282928"/>
<path d="M1630.83 1522.25C1627.3 1522.17 1623.81 1521.59 1620.44 1520.52C1611.48 1518.04 1602.31 1516.4 1593.04 1515.62H1587.85C1555.54 1515.62 1539.96 1509.85 1539.67 1498.02C1539.38 1486.2 1558.14 1477.25 1574.87 1476.68C1618.71 1475.23 1644.39 1479.85 1645.54 1506.39C1645.9 1508.83 1645.64 1511.33 1644.79 1513.65C1643.93 1515.97 1642.5 1518.04 1640.64 1519.66C1637.76 1521.61 1634.3 1522.53 1630.83 1522.25V1522.25ZM1551.21 1497.45C1552.08 1498.31 1557.85 1503.79 1587.85 1503.79H1593.9C1604.08 1504.48 1614.14 1506.32 1623.91 1509.27C1629.96 1511 1632.56 1510.71 1633.42 1510.14C1634.29 1509.56 1634.29 1508.7 1634.29 1506.39C1633.71 1495.14 1628.81 1485.91 1575.15 1487.64C1562.17 1488.5 1552.08 1494.85 1551.21 1497.45V1497.45Z" fill="#282928"/>
<path d="M1297.07 1028.69V1094.17C1297.06 1097.12 1298.14 1099.96 1300.12 1102.15C1302.09 1104.34 1304.81 1105.71 1307.74 1106L1383.03 1112.06C1384.64 1112.22 1386.27 1112.04 1387.8 1111.53C1389.34 1111.03 1390.75 1110.2 1391.95 1109.11C1393.15 1108.02 1394.1 1106.7 1394.75 1105.22C1395.4 1103.74 1395.73 1102.13 1395.73 1100.52V1028.69H1297.07Z" fill="#35E166"/>
<path d="M1300.82 1522.25H1262.46C1251.74 1522.25 1241.47 1518 1233.9 1510.42C1226.33 1502.85 1222.07 1492.58 1222.07 1481.87V1424.46C1222.07 1413.75 1226.33 1403.48 1233.9 1395.91C1241.47 1388.33 1251.74 1384.08 1262.46 1384.08H1300.82C1306.14 1384.04 1311.4 1385.06 1316.32 1387.07C1321.24 1389.09 1325.71 1392.06 1329.46 1395.82C1333.22 1399.58 1336.19 1404.05 1338.21 1408.96C1340.23 1413.88 1341.24 1419.15 1341.21 1424.46V1481.87C1341.24 1487.18 1340.23 1492.45 1338.21 1497.37C1336.19 1502.28 1333.22 1506.75 1329.46 1510.51C1325.71 1514.27 1321.24 1517.24 1316.32 1519.26C1311.4 1521.27 1306.14 1522.29 1300.82 1522.25V1522.25ZM1262.46 1395.62C1254.8 1395.62 1247.47 1398.65 1242.06 1404.06C1236.65 1409.47 1233.61 1416.81 1233.61 1424.46V1481.87C1233.61 1489.52 1236.65 1496.85 1242.06 1502.26C1247.47 1507.67 1254.8 1510.71 1262.46 1510.71H1300.82C1304.62 1510.75 1308.39 1510.03 1311.91 1508.6C1315.42 1507.16 1318.62 1505.04 1321.3 1502.35C1323.99 1499.66 1326.11 1496.47 1327.55 1492.95C1328.99 1489.43 1329.71 1485.67 1329.67 1481.87V1424.46C1329.67 1416.81 1326.63 1409.47 1321.22 1404.06C1315.81 1398.65 1308.47 1395.62 1300.82 1395.62H1262.46Z" fill="#282928"/>
<path d="M1308.61 1435.14H1253.23C1251.7 1435.14 1250.23 1434.53 1249.15 1433.45C1248.07 1432.36 1247.46 1430.9 1247.46 1429.37C1247.46 1427.84 1248.07 1426.37 1249.15 1425.29C1250.23 1424.21 1251.7 1423.6 1253.23 1423.6H1308.61C1310.14 1423.6 1311.61 1424.21 1312.69 1425.29C1313.77 1426.37 1314.38 1427.84 1314.38 1429.37C1314.38 1430.9 1313.77 1432.36 1312.69 1433.45C1311.61 1434.53 1310.14 1435.14 1308.61 1435.14Z" fill="#282928"/>
<path d="M1308.61 1459.08H1253.23C1251.7 1459.08 1250.23 1458.47 1249.15 1457.39C1248.07 1456.31 1247.46 1454.84 1247.46 1453.31C1247.46 1451.78 1248.07 1450.31 1249.15 1449.23C1250.23 1448.15 1251.7 1447.54 1253.23 1447.54H1308.61C1310.14 1447.54 1311.61 1448.15 1312.69 1449.23C1313.77 1450.31 1314.38 1451.78 1314.38 1453.31C1314.38 1454.84 1313.77 1456.31 1312.69 1457.39C1311.61 1458.47 1310.14 1459.08 1308.61 1459.08Z" fill="#282928"/>
<path d="M1520.34 1191.96H1206.2C1204.67 1191.96 1203.21 1191.35 1202.13 1190.27C1201.04 1189.19 1200.44 1187.72 1200.44 1186.19C1200.44 1184.66 1201.04 1183.19 1202.13 1182.11C1203.21 1181.03 1204.67 1180.42 1206.2 1180.42H1520.34C1521.87 1180.42 1523.34 1181.03 1524.42 1182.11C1525.51 1183.19 1526.11 1184.66 1526.11 1186.19C1526.11 1187.72 1525.51 1189.19 1524.42 1190.27C1523.34 1191.35 1521.87 1191.96 1520.34 1191.96Z" fill="#282928"/>
<path d="M1515.73 1253.98H1412.75C1411.22 1253.98 1409.75 1253.37 1408.67 1252.29C1407.59 1251.21 1406.98 1249.74 1406.98 1248.21C1406.94 1247.44 1407.06 1246.67 1407.33 1245.96C1407.61 1245.24 1408.03 1244.58 1408.58 1244.04C1409.12 1243.49 1409.77 1243.07 1410.49 1242.8C1411.21 1242.52 1411.98 1242.4 1412.75 1242.44H1515.73C1516.5 1242.4 1517.27 1242.52 1517.99 1242.8C1518.7 1243.07 1519.36 1243.49 1519.9 1244.04C1520.45 1244.58 1520.87 1245.24 1521.14 1245.96C1521.42 1246.67 1521.54 1247.44 1521.5 1248.21C1521.5 1249.74 1520.89 1251.21 1519.81 1252.29C1518.73 1253.37 1517.26 1253.98 1515.73 1253.98Z" fill="#282928"/>
<path d="M619.757 2244.28C727.932 2244.28 815.625 2156.59 815.625 2048.41C815.625 1940.24 727.932 1852.55 619.757 1852.55C511.582 1852.55 423.889 1940.24 423.889 2048.41C423.889 2156.59 511.582 2244.28 619.757 2244.28Z" fill="#35E166"/>
<path d="M619.466 2169.57C686.378 2169.57 740.621 2115.33 740.621 2048.41C740.621 1981.5 686.378 1927.26 619.466 1927.26C552.553 1927.26 498.31 1981.5 498.31 2048.41C498.31 2115.33 552.553 2169.57 619.466 2169.57Z" fill="white"/>
<path d="M619.755 2106.68C651.936 2106.68 678.025 2080.6 678.025 2048.41C678.025 2016.23 651.936 1990.14 619.755 1990.14C587.573 1990.14 561.485 2016.23 561.485 2048.41C561.485 2080.6 587.573 2106.68 619.755 2106.68Z" fill="#282928"/>
<path d="M2152.37 2062.55C2152.37 2062.55 2141.7 1856.29 2297.76 1812.16C2453.82 1768.02 2633.53 1860.33 2606.99 2045.53H2197.66L2171.41 2048.12L2152.37 2062.55Z" fill="#282928"/>
<path d="M2383.43 2239.38C2491.6 2239.38 2579.3 2151.68 2579.3 2043.51C2579.3 1935.34 2491.6 1847.64 2383.43 1847.64C2275.25 1847.64 2187.56 1935.34 2187.56 2043.51C2187.56 2151.68 2275.25 2239.38 2383.43 2239.38Z" fill="#35E166"/>
<path d="M2383.14 2164.67C2450.06 2164.67 2504.3 2110.42 2504.3 2043.51C2504.3 1976.6 2450.06 1922.35 2383.14 1922.35C2316.23 1922.35 2261.99 1976.6 2261.99 2043.51C2261.99 2110.42 2316.23 2164.67 2383.14 2164.67Z" fill="white"/>
<path d="M2381.41 2102.36C2413.59 2102.36 2439.68 2076.27 2439.68 2044.09C2439.68 2011.91 2413.59 1985.82 2381.41 1985.82C2349.23 1985.82 2323.14 2011.91 2323.14 2044.09C2323.14 2076.27 2349.23 2102.36 2381.41 2102.36Z" fill="#282928"/>
<path d="M277.923 1744.37H211.865C210.335 1744.37 208.867 1743.76 207.785 1742.68C206.703 1741.6 206.095 1740.13 206.095 1738.6C206.095 1737.07 206.703 1735.6 207.785 1734.52C208.867 1733.44 210.335 1732.83 211.865 1732.83H270.135C272.731 1723.6 278.789 1692.45 268.692 1622.06C256.288 1537.83 206.961 1541 206.384 1541C205.641 1541.08 204.889 1541.01 204.176 1540.79C203.462 1540.57 202.801 1540.2 202.234 1539.71C201.667 1539.23 201.205 1538.63 200.877 1537.96C200.548 1537.29 200.361 1536.56 200.326 1535.81C200.247 1535.07 200.32 1534.32 200.541 1533.6C200.763 1532.89 201.128 1532.23 201.614 1531.66C202.101 1531.09 202.698 1530.63 203.369 1530.3C204.041 1529.98 204.772 1529.79 205.518 1529.75C206.095 1529.46 266.096 1525.43 279.942 1620.62C293.789 1715.81 279.942 1740.04 279.366 1741.2L277.923 1744.37Z" fill="#282928"/>
<path d="M443.5 1869.28C442.036 1869.23 440.621 1868.73 439.462 1867.83C439.444 1867.61 439.34 1867.4 439.173 1867.26C431.385 1860.33 334.749 1789.66 270.998 1743.22C270.37 1742.78 269.833 1742.23 269.42 1741.59C269.007 1740.95 268.725 1740.23 268.591 1739.48C268.457 1738.73 268.473 1737.96 268.639 1737.21C268.804 1736.47 269.116 1735.76 269.556 1735.14C270.474 1733.92 271.841 1733.11 273.355 1732.89C274.87 1732.67 276.409 1733.07 277.633 1733.99C278.21 1734.27 320.326 1764.85 362.153 1795.72C448.981 1859.18 448.981 1859.47 449.27 1862.93C449.422 1863.76 449.37 1864.61 449.119 1865.42C448.867 1866.22 448.424 1866.95 447.827 1867.55C447.266 1868.12 446.591 1868.57 445.846 1868.87C445.101 1869.16 444.302 1869.3 443.5 1869.28V1869.28ZM439.462 1859.47C438.532 1860.52 437.93 1861.83 437.731 1863.22C437.93 1861.83 438.532 1860.52 439.462 1859.47V1859.47Z" fill="#282928"/>
<path d="M630.716 1744.37H532.927C522.216 1744.37 511.944 1740.12 504.37 1732.54C496.796 1724.97 492.542 1714.7 492.542 1703.99V1656.1C492.503 1650.79 493.522 1645.52 495.538 1640.6C497.553 1635.68 500.527 1631.22 504.285 1627.46C508.042 1623.7 512.51 1620.73 517.427 1618.71C522.344 1616.7 527.613 1615.68 532.927 1615.72H630.716C636.031 1615.68 641.299 1616.7 646.216 1618.71C651.134 1620.73 655.601 1623.7 659.359 1627.46C663.116 1631.22 666.09 1635.68 668.106 1640.6C670.122 1645.52 671.14 1650.79 671.102 1656.1V1703.99C671.102 1714.7 666.847 1724.97 659.273 1732.54C651.699 1740.12 641.427 1744.37 630.716 1744.37ZM532.927 1627.25C529.128 1627.22 525.359 1627.94 521.842 1629.37C518.325 1630.81 515.13 1632.93 512.443 1635.62C509.757 1638.3 507.633 1641.5 506.197 1645.02C504.761 1648.53 504.042 1652.3 504.08 1656.1V1703.99C504.08 1711.64 507.119 1718.97 512.529 1724.38C517.939 1729.79 525.276 1732.83 532.927 1732.83H630.716C638.367 1732.83 645.704 1729.79 651.114 1724.38C656.524 1718.97 659.563 1711.64 659.563 1703.99V1656.1C659.602 1652.3 658.882 1648.53 657.446 1645.02C656.01 1641.5 653.886 1638.3 651.2 1635.62C648.514 1632.93 645.318 1630.81 641.801 1629.37C638.284 1627.94 634.515 1627.22 630.716 1627.25H532.927Z" fill="#282928"/>
<path d="M2143.43 1607.64C2122.37 1607.64 2061.22 1605.33 1874.29 1594.95L1603.42 1579.37C1601.9 1579.16 1600.5 1578.4 1599.49 1577.23C1598.48 1576.06 1597.93 1574.57 1597.94 1573.02C1597.98 1572.28 1598.17 1571.54 1598.49 1570.87C1598.82 1570.2 1599.28 1569.6 1599.85 1569.12C1600.42 1568.63 1601.08 1568.27 1601.79 1568.05C1602.51 1567.82 1603.26 1567.75 1604 1567.83C1811.41 1580.23 2122.66 1597.83 2149.49 1596.1C2145.74 1586.29 2112.28 1547.06 2059.49 1485.91C1966.6 1377.44 1716.79 1279.36 1714.2 1278.5C1712.78 1277.92 1711.65 1276.81 1711.06 1275.4C1710.46 1274 1710.45 1272.42 1711.02 1271C1711.25 1270.28 1711.62 1269.62 1712.11 1269.06C1712.6 1268.49 1713.2 1268.03 1713.88 1267.71C1714.55 1267.38 1715.29 1267.2 1716.04 1267.17C1716.79 1267.14 1717.53 1267.27 1718.23 1267.54C1728.62 1271.58 1973.53 1367.64 2068.43 1478.41C2156.99 1581.39 2163.05 1590.62 2161.32 1599.56C2160.94 1601.2 2160.16 1602.71 2159.06 1603.97C2157.95 1605.23 2156.54 1606.19 2154.97 1606.77C2154.1 1607.06 2152.95 1607.64 2143.43 1607.64Z" fill="#282928"/>
<path d="M2167.95 1839.28H2167.08C2166.33 1839.21 2165.6 1838.98 2164.95 1838.62C2164.29 1838.26 2163.71 1837.76 2163.25 1837.17C2162.79 1836.57 2162.46 1835.89 2162.27 1835.16C2162.09 1834.43 2162.06 1833.67 2162.18 1832.93C2169.1 1777.26 2180.64 1626.39 2149.77 1595.23C2148.94 1594.12 2148.54 1592.75 2148.63 1591.36C2148.73 1589.98 2149.33 1588.68 2150.31 1587.69C2151.29 1586.71 2152.59 1586.12 2153.98 1586.02C2155.36 1585.92 2156.74 1586.32 2157.85 1587.16C2199.1 1628.41 2174.58 1826.01 2173.43 1834.37C2173.28 1835.72 2172.64 1836.97 2171.63 1837.88C2170.62 1838.79 2169.31 1839.28 2167.95 1839.28V1839.28Z" fill="#282928"/>
<path d="M2533.15 1863.51C2531.89 1863.58 2530.65 1863.17 2529.68 1862.35C2528.5 1861.39 2527.75 1860.01 2527.59 1858.49C2527.43 1856.98 2527.87 1855.46 2528.82 1854.28L2634.97 1726.49C2635.43 1725.81 2636.02 1725.23 2636.72 1724.8C2637.41 1724.37 2638.19 1724.09 2639 1723.98C2639.81 1723.88 2640.63 1723.94 2641.42 1724.17C2642.2 1724.41 2642.93 1724.81 2643.54 1725.34C2644.16 1725.88 2644.66 1726.54 2645 1727.28C2645.34 1728.02 2645.53 1728.83 2645.53 1729.64C2645.54 1730.46 2645.38 1731.27 2645.05 1732.02C2644.72 1732.77 2644.24 1733.44 2643.63 1733.99L2537.76 1861.49C2537.2 1862.15 2536.49 1862.68 2535.69 1863.03C2534.89 1863.38 2534.02 1863.54 2533.15 1863.51Z" fill="#282928"/>
<path d="M2690.94 1625.23C2690.94 1625.23 2570.93 1605.91 2573.82 1644.85C2576.7 1683.79 2665.84 1760.81 2690.94 1783.6C2716.03 1806.39 2833.15 1827.16 2827.67 1805.81C2822.19 1784.47 2749.49 1611.39 2690.94 1625.23Z" fill="#35E166"/>
<path d="M2172.56 1971.97L825.718 1971.39C824.188 1971.39 822.72 1970.79 821.639 1969.7C820.557 1968.62 819.949 1967.15 819.949 1965.62C819.949 1964.09 820.557 1962.63 821.639 1961.54C822.72 1960.46 824.188 1959.85 825.718 1959.85L2172.56 1960.43C2174.09 1960.43 2175.56 1961.04 2176.64 1962.12C2177.72 1963.2 2178.33 1964.67 2178.33 1966.2C2178.33 1967.73 2177.72 1969.2 2176.64 1970.28C2175.56 1971.36 2174.09 1971.97 2172.56 1971.97Z" fill="#282928"/>
<path d="M839.279 1213.02H458.505C439.387 1213.02 423.889 1228.52 423.889 1247.63V1418.49C423.889 1437.61 439.387 1453.11 458.505 1453.11H839.279C858.397 1453.11 873.895 1437.61 873.895 1418.49V1247.63C873.895 1228.52 858.397 1213.02 839.279 1213.02Z" fill="#35E166"/>
<path d="M2765.07 2250.05H171.769C170.239 2250.05 168.772 2249.44 167.69 2248.36C166.608 2247.28 166 2245.81 166 2244.28C166 2242.75 166.608 2241.28 167.69 2240.2C168.772 2239.12 170.239 2238.51 171.769 2238.51H2765.07C2766.6 2238.51 2768.07 2239.12 2769.15 2240.2C2770.23 2241.28 2770.84 2242.75 2770.84 2244.28C2770.84 2245.81 2770.23 2247.28 2769.15 2248.36C2768.07 2249.44 2766.6 2250.05 2765.07 2250.05Z" fill="#282928"/>
<path d="M2290.26 1485.62C2289.54 1485.66 2288.82 1485.55 2288.14 1485.31C2287.46 1485.07 2286.83 1484.7 2286.3 1484.22C2285.76 1483.74 2285.32 1483.15 2285.01 1482.5C2284.7 1481.85 2284.53 1481.14 2284.49 1480.42C2284.2 1477.54 2268.62 1202.06 2279.01 1017.44C2279.15 1015.88 2279.9 1014.44 2281.08 1013.42C2282.26 1012.4 2283.79 1011.88 2285.35 1011.96C2286.1 1011.99 2286.83 1012.18 2287.5 1012.51C2288.17 1012.84 2288.77 1013.3 2289.26 1013.86C2289.74 1014.43 2290.11 1015.09 2290.33 1015.81C2290.55 1016.52 2290.63 1017.27 2290.55 1018.01C2280.16 1202.06 2295.74 1476.96 2296.03 1479.56C2296.07 1480.32 2295.95 1481.08 2295.7 1481.79C2295.45 1482.51 2295.05 1483.16 2294.54 1483.73C2294.03 1484.29 2293.42 1484.74 2292.73 1485.07C2292.05 1485.39 2291.3 1485.58 2290.55 1485.62H2290.26Z" fill="#282928"/>
<path d="M2458.15 1530.33C2456.79 1530.34 2455.47 1529.84 2454.46 1528.93C2453.45 1528.03 2452.81 1526.78 2452.67 1525.43C2451.8 1519.95 2369.01 959.169 2419.78 741.954C2419.95 741.215 2420.27 740.517 2420.71 739.9C2421.15 739.282 2421.7 738.757 2422.35 738.356C2422.99 737.954 2423.7 737.682 2424.45 737.557C2425.2 737.433 2425.97 737.456 2426.7 737.627C2427.46 737.759 2428.19 738.049 2428.83 738.479C2429.46 738.909 2430.01 739.469 2430.41 740.122C2430.82 740.776 2431.09 741.508 2431.19 742.27C2431.3 743.033 2431.25 743.81 2431.03 744.55C2380.55 959.457 2463.05 1518.21 2463.92 1523.7C2464.04 1524.45 2464.01 1525.23 2463.83 1525.98C2463.65 1526.72 2463.32 1527.43 2462.86 1528.04C2462.4 1528.66 2461.83 1529.18 2461.17 1529.58C2460.51 1529.97 2459.77 1530.22 2459.01 1530.33H2458.15Z" fill="#282928"/>
<path d="M2249.58 1266.1C2232.85 1266.1 2212.37 1262.63 2200.54 1247.63C2169.75 1208.91 2136.41 1172.29 2100.73 1138.02C2056.6 1096.48 2006.98 1043.4 2013.62 1003.3C2016.21 988.014 2026.6 976.187 2044.77 968.11C2063.38 960.161 2082.83 954.355 2102.75 950.802C2118.91 947.341 2130.73 944.745 2133.91 938.11C2137.08 931.475 2133.04 915.033 2119.48 888.494C2112.56 874.648 2104.48 859.359 2095.54 843.493C2050.54 760.704 1994.29 657.722 2061.5 613.01C2077.37 602.336 2090.93 594.548 2101.89 588.201C2143.43 563.682 2152.37 558.778 2146.6 493.008C2140.83 427.238 2189.29 323.102 2236.02 303.486C2253.04 296.563 2268.91 300.602 2281.31 315.313C2282.17 316.427 2283.41 317.188 2284.79 317.453C2286.17 317.719 2287.6 317.471 2288.81 316.756C2324.29 297.428 2411.99 254.736 2465.93 279.544C2486.7 289.351 2499.97 308.102 2505.16 335.217C2505.31 335.661 2505.58 336.056 2505.93 336.361C2506.29 336.666 2506.72 336.869 2507.18 336.948C2536.32 340.41 2634.4 356.564 2667.57 421.469C2686.32 458.104 2680.84 503.393 2651.13 556.47C2650.4 557.827 2650.15 559.385 2650.41 560.9C2650.68 562.415 2651.43 563.799 2652.57 564.836C2696.42 601.471 2836.32 730.126 2791.61 835.416C2751.8 928.879 2697.57 969.841 2676.22 983.111C2675.81 983.275 2675.46 983.552 2675.21 983.91C2674.95 984.268 2674.8 984.691 2674.78 985.13C2674.74 986.031 2674.94 986.925 2675.36 987.726C2686.9 1001.86 2710.55 1041.38 2678.53 1101.38C2643.63 1166.86 2535.74 1202.06 2464.2 1225.42L2429.87 1236.96C2429.14 1237.4 2428.32 1237.66 2427.47 1237.74C2426.62 1237.82 2425.76 1237.71 2424.96 1237.42C2424.15 1237.13 2423.43 1236.66 2422.83 1236.06C2422.23 1235.45 2421.77 1234.72 2421.48 1233.91C2421.2 1233.11 2421.1 1232.25 2421.19 1231.4C2421.28 1230.55 2421.55 1229.73 2422 1229C2422.44 1228.27 2423.04 1227.65 2423.76 1227.18C2424.47 1226.71 2425.28 1226.41 2426.12 1226.29C2435.93 1222.54 2448.05 1218.79 2460.74 1214.46C2530.26 1191.67 2635.55 1157.34 2668.43 1096.19C2696.13 1043.98 2679.11 1010.51 2666.41 994.938C2665.11 993.349 2664.17 991.49 2663.67 989.494C2663.17 987.498 2663.12 985.416 2663.53 983.399C2663.78 981.318 2664.51 979.323 2665.66 977.571C2666.81 975.819 2668.35 974.358 2670.16 973.303C2690.65 960.61 2742.57 921.379 2780.94 830.801C2823.92 730.415 2675.36 598.875 2645.07 573.49C2641.85 570.752 2639.69 566.98 2638.95 562.821C2638.22 558.663 2638.95 554.377 2641.03 550.701C2668.72 501.373 2674.2 459.546 2657.18 426.661C2626.03 365.506 2525.64 350.794 2505.74 348.487C2502.89 348.083 2500.22 346.817 2498.11 344.858C2496 342.899 2494.53 340.34 2493.91 337.525C2489.3 314.159 2478.34 298.294 2461.03 290.217C2410.55 266.563 2320.83 312.429 2294.58 326.852C2290.97 328.782 2286.81 329.433 2282.77 328.7C2278.74 327.967 2275.08 325.892 2272.37 322.813C2263.52 311.852 2252.85 308.967 2240.35 314.159C2198.24 331.756 2152.66 429.834 2158.14 491.854C2164.2 562.24 2152.66 571.759 2107.66 598.009C2096.12 604.644 2083.43 612.144 2067.85 622.529C2009.29 661.472 2062.95 759.261 2105.93 837.724C2114.58 853.878 2122.95 869.167 2129.87 883.302C2145.73 915.033 2149.77 931.764 2144.29 943.014C2138.81 954.264 2124.68 957.726 2105.06 962.053C2085.93 965.516 2067.26 971.128 2049.39 978.784C2034.96 985.13 2026.89 994.072 2025.16 1005.32C2018.52 1044.55 2084 1106.29 2108.81 1129.65C2144.86 1164.23 2178.5 1201.24 2209.49 1240.42C2227.08 1262.35 2272.66 1252.25 2273.24 1252.25C2274.73 1251.9 2276.3 1252.17 2277.59 1252.98C2278.89 1253.79 2279.82 1255.08 2280.16 1256.58C2280.5 1258.07 2280.24 1259.64 2279.43 1260.93C2278.62 1262.23 2277.32 1263.15 2275.83 1263.5C2267.19 1265.24 2258.4 1266.11 2249.58 1266.1V1266.1Z" fill="#282928"/>
<path d="M2409.97 904.071C2409.14 904.131 2408.3 903.977 2407.55 903.624C2406.79 903.27 2406.13 902.729 2405.64 902.052C2405.13 901.48 2404.75 900.809 2404.52 900.08C2404.28 899.352 2404.2 898.582 2404.29 897.821C2404.37 897.061 2404.61 896.325 2404.99 895.663C2405.37 895 2405.89 894.425 2406.51 893.975C2413.14 888.494 2570.93 764.742 2665.55 752.627C2667.1 752.531 2668.63 753.006 2669.85 753.963C2671.08 754.92 2671.91 756.292 2672.19 757.819C2672.27 758.577 2672.19 759.344 2671.98 760.075C2671.76 760.805 2671.4 761.485 2670.91 762.075C2670.43 762.665 2669.84 763.154 2669.16 763.513C2668.49 763.871 2667.75 764.093 2666.99 764.165C2575.55 775.704 2415.16 901.763 2413.72 902.917C2412.64 903.728 2411.32 904.136 2409.97 904.071Z" fill="#282928"/>
<path d="M216.193 1139.75L205.809 1049.46C205.608 1047.58 205.8 1045.69 206.373 1043.89C206.945 1042.1 207.886 1040.44 209.135 1039.03C210.383 1037.62 211.912 1036.48 213.624 1035.7C215.336 1034.91 217.194 1034.49 219.078 1034.46L853.702 1030.42C855.6 1030.4 857.48 1030.79 859.214 1031.57C860.948 1032.34 862.496 1033.47 863.754 1034.9C865.012 1036.32 865.95 1037.99 866.505 1039.81C867.06 1041.62 867.219 1043.54 866.971 1045.42L855.433 1127.34C854.961 1130.48 853.404 1133.36 851.032 1135.46C848.66 1137.57 845.624 1138.78 842.452 1138.88L229.463 1151.57C226.18 1151.59 223.006 1150.4 220.555 1148.21C218.104 1146.03 216.55 1143.01 216.193 1139.75V1139.75Z" fill="white"/>
<path d="M229.173 1157.34C224.504 1157.3 220.015 1155.54 216.558 1152.4C213.101 1149.27 210.918 1144.97 210.423 1140.33L200.038 1050.04C199.739 1047.37 200.023 1044.68 200.87 1042.14C201.717 1039.6 203.106 1037.27 204.942 1035.32C206.696 1033.36 208.823 1031.76 211.199 1030.62C213.576 1029.48 216.156 1028.82 218.788 1028.69L853.7 1024.65C856.469 1024.56 859.224 1025.08 861.768 1026.17C864.312 1027.27 866.581 1028.92 868.412 1031C870.16 1033.1 871.448 1035.55 872.193 1038.18C872.938 1040.82 873.124 1043.58 872.739 1046.29L861.2 1128.21C860.529 1132.68 858.315 1136.77 854.942 1139.77C851.57 1142.77 847.252 1144.5 842.739 1144.65L229.75 1157.34H229.173ZM853.989 1036.19L219.077 1040.23C216.888 1040.3 214.816 1041.24 213.307 1042.82C212.62 1043.6 212.109 1044.52 211.811 1045.52C211.512 1046.52 211.432 1047.56 211.576 1048.59L221.673 1139.17C221.943 1140.98 222.844 1142.64 224.215 1143.85C225.587 1145.07 227.342 1145.76 229.173 1145.81H229.461L842.45 1133.11C844.23 1133 845.918 1132.28 847.23 1131.07C848.543 1129.86 849.401 1128.24 849.662 1126.48L861.489 1044.84C861.599 1043.75 861.477 1042.64 861.129 1041.6C860.781 1040.55 860.215 1039.6 859.47 1038.79C858.799 1037.98 857.962 1037.33 857.015 1036.88C856.069 1036.43 855.036 1036.2 853.989 1036.19V1036.19Z" fill="#282928"/>
<path d="M268.691 1019.75L251.095 921.379C250.757 919.554 250.824 917.678 251.291 915.881C251.757 914.085 252.612 912.413 253.794 910.983C254.977 909.553 256.459 908.399 258.136 907.604C259.812 906.808 261.643 906.39 263.499 906.379L945.143 902.34C946.98 902.273 948.81 902.615 950.499 903.341C952.188 904.068 953.695 905.161 954.91 906.542C956.125 907.922 957.017 909.555 957.523 911.323C958.029 913.091 958.136 914.95 957.835 916.764L943.7 1014.84C943.286 1017.85 941.807 1020.61 939.531 1022.62C937.255 1024.63 934.333 1025.76 931.296 1025.8L281.095 1030.13C278.127 1030.17 275.243 1029.14 272.967 1027.24C270.691 1025.33 269.174 1022.67 268.691 1019.75V1019.75Z" fill="white"/>
<path d="M281.095 1035.9C276.736 1035.96 272.502 1034.44 269.166 1031.63C265.83 1028.83 263.614 1024.92 262.922 1020.61L245.326 922.533C244.883 919.844 245.014 917.092 245.71 914.457C246.406 911.822 247.651 909.364 249.364 907.244C251.105 905.188 253.269 903.531 255.708 902.386C258.147 901.241 260.805 900.635 263.499 900.61L945.143 896.571C947.745 896.565 950.319 897.1 952.703 898.143C955.087 899.186 957.228 900.714 958.989 902.629C960.765 904.667 962.093 907.056 962.888 909.64C963.683 912.223 963.927 914.945 963.604 917.629L949.47 1015.71C948.792 1020.07 946.597 1024.05 943.273 1026.95C939.949 1029.85 935.708 1031.49 931.296 1031.57L281.384 1035.9H281.095ZM945.143 908.11L263.499 912.148C262.485 912.112 261.479 912.33 260.572 912.784C259.664 913.238 258.886 913.912 258.307 914.745C257.602 915.514 257.081 916.432 256.781 917.431C256.481 918.43 256.411 919.484 256.576 920.514L274.172 1018.59C274.448 1020.22 275.297 1021.7 276.567 1022.76C277.836 1023.82 279.443 1024.38 281.095 1024.36V1024.36L931.008 1020.03C932.661 1020.06 934.267 1019.49 935.537 1018.43C936.806 1017.37 937.656 1015.89 937.931 1014.27L952.066 915.898C952.229 914.913 952.157 913.903 951.856 912.951C951.556 911.998 951.034 911.131 950.335 910.418C949.724 909.638 948.931 909.019 948.026 908.617C947.121 908.215 946.131 908.041 945.143 908.11Z" fill="#282928"/>
<path d="M359.27 883.88L345.712 763.013C345.426 760.5 345.677 757.956 346.447 755.547C347.217 753.138 348.489 750.92 350.179 749.039C351.869 747.158 353.939 745.657 356.252 744.635C358.565 743.613 361.068 743.092 363.597 743.109H821.103C823.576 743.064 826.032 743.532 828.315 744.484C830.597 745.437 832.658 746.852 834.366 748.641C836.074 750.431 837.392 752.555 838.237 754.879C839.082 757.204 839.436 759.679 839.276 762.147L830.622 880.995C830.329 885.536 828.316 889.794 824.993 892.902C821.67 896.01 817.288 897.735 812.737 897.726L377.155 899.745C372.741 899.773 368.473 898.169 365.172 895.24C361.87 892.311 359.768 888.265 359.27 883.88V883.88Z" fill="white"/>
<path d="M377.153 905.514C371.304 905.549 365.65 903.416 361.281 899.527C356.913 895.639 354.14 890.269 353.499 884.456L339.941 763.589C339.583 760.28 339.911 756.934 340.903 753.757C341.896 750.581 343.532 747.643 345.71 745.127C347.999 742.674 350.768 740.717 353.844 739.378C356.921 738.038 360.239 737.344 363.595 737.338H821.101C824.392 737.312 827.653 737.965 830.681 739.255C833.708 740.545 836.437 742.446 838.697 744.839C843.045 749.755 845.32 756.166 845.043 762.723L836.389 881.571C835.887 887.515 833.183 893.058 828.807 897.113C824.432 901.168 818.701 903.444 812.735 903.494L377.153 905.514V905.514ZM365.037 883.302C365.328 886.285 366.741 889.046 368.99 891.028C371.239 893.009 374.157 894.062 377.153 893.975V893.975L812.735 891.956C815.804 891.964 818.762 890.807 821.01 888.719C823.259 886.63 824.632 883.767 824.851 880.706L833.505 761.858C833.55 758.456 832.315 755.161 830.043 752.627C828.914 751.391 827.529 750.415 825.985 749.767C824.441 749.12 822.774 748.816 821.101 748.877H363.595C361.856 748.849 360.132 749.194 358.54 749.891C356.947 750.588 355.523 751.62 354.364 752.916C353.204 754.187 352.342 755.701 351.843 757.348C351.344 758.996 351.22 760.733 351.479 762.435L365.037 883.302Z" fill="#282928"/>
<path d="M650.62 1153.02C649.422 1153.08 648.237 1152.74 647.247 1152.07C646.257 1151.39 645.517 1150.41 645.14 1149.27L510.138 738.204C509.685 736.75 509.825 735.176 510.527 733.826C511.23 732.475 512.438 731.456 513.888 730.992C514.587 730.721 515.334 730.596 516.083 730.625C516.833 730.653 517.568 730.836 518.244 731.16C518.92 731.485 519.522 731.944 520.013 732.511C520.504 733.077 520.874 733.739 521.099 734.454L656.101 1145.52C656.554 1146.97 656.414 1148.54 655.712 1149.9C655.009 1151.25 653.801 1152.26 652.351 1152.73L650.62 1153.02Z" fill="#35E166"/>
<path d="M2567.47 2691.69H2155.25C2141.7 2691.69 2130.16 2680.44 2128.14 2665.15L2108.24 2512.84C2107.63 2508.08 2108.01 2503.24 2109.35 2498.62C2110.69 2494.01 2112.96 2489.72 2116.02 2486.02C2118.38 2483.16 2121.33 2480.86 2124.67 2479.26C2128 2477.67 2131.65 2476.82 2135.35 2476.79H2576.41C2579.9 2476.82 2583.35 2477.58 2586.53 2479.02C2589.71 2480.46 2592.55 2482.55 2594.88 2485.15C2597.95 2488.52 2600.31 2492.49 2601.8 2496.8C2603.29 2501.12 2603.88 2505.69 2603.53 2510.25L2594.59 2662.56C2593.72 2679 2581.9 2691.69 2567.47 2691.69ZM2139.68 2663.71C2140.83 2672.94 2147.47 2680.15 2155.25 2680.15H2567.47C2575.55 2680.15 2582.47 2672.08 2583.05 2661.98L2591.99 2509.67C2592.36 2503.6 2590.4 2497.62 2586.51 2492.94C2585.22 2491.54 2583.66 2490.41 2581.92 2489.62C2580.19 2488.83 2578.32 2488.39 2576.41 2488.32H2135.35C2133.31 2488.4 2131.3 2488.9 2129.47 2489.8C2127.63 2490.69 2126 2491.96 2124.68 2493.52C2122.71 2496.02 2121.27 2498.89 2120.42 2501.96C2119.58 2505.04 2119.36 2508.24 2119.77 2511.4L2139.68 2663.71Z" fill="#282928"/>
<path d="M2127.27 2586.4C2125.74 2586.4 2124.28 2585.79 2123.19 2584.71C2122.11 2583.63 2121.5 2582.16 2121.5 2580.63C2121.46 2579.89 2121.58 2579.14 2121.84 2578.45C2122.09 2577.75 2122.49 2577.11 2123 2576.57C2123.52 2576.03 2124.13 2575.6 2124.82 2575.31C2125.5 2575.01 2126.24 2574.86 2126.98 2574.86L2590.26 2568.23C2591.04 2568.19 2591.82 2568.31 2592.56 2568.58C2593.29 2568.85 2593.96 2569.27 2594.53 2569.81C2595.09 2570.35 2595.54 2571 2595.85 2571.72C2596.16 2572.44 2596.32 2573.21 2596.32 2574C2596.32 2575.53 2595.71 2576.99 2594.63 2578.08C2593.55 2579.16 2592.08 2579.77 2590.55 2579.77L2127.27 2586.4Z" fill="#282928"/>
<path d="M2348.82 2691.69C2347.29 2691.69 2345.82 2691.08 2344.74 2690C2343.66 2688.92 2343.05 2687.45 2343.05 2685.92L2342.47 2484.29C2342.43 2483.5 2342.55 2482.72 2342.83 2481.99C2343.1 2481.26 2343.52 2480.58 2344.06 2480.02C2344.6 2479.45 2345.25 2479 2345.97 2478.69C2346.69 2478.38 2347.46 2478.23 2348.24 2478.23C2349.77 2478.23 2351.24 2478.84 2352.32 2479.92C2353.4 2481 2354.01 2482.47 2354.01 2484L2354.59 2685.92C2354.59 2687.45 2353.98 2688.92 2352.9 2690C2351.82 2691.08 2350.35 2691.69 2348.82 2691.69Z" fill="#282928"/>
<path d="M2353.43 2457.17L2354.88 2390.25C2354.96 2384.99 2352.98 2379.91 2349.37 2376.08C2345.76 2372.26 2340.8 2369.99 2335.55 2369.76L2080.83 2361.98C2075.65 2361.82 2070.61 2363.69 2066.78 2367.19C2062.96 2370.69 2060.65 2375.55 2060.35 2380.73L2055.74 2457.17C2055.54 2459.89 2055.91 2462.62 2056.82 2465.19C2057.73 2467.76 2059.17 2470.11 2061.04 2472.09C2062.92 2474.07 2065.18 2475.64 2067.7 2476.7C2070.21 2477.75 2072.92 2478.28 2075.64 2478.23L2333.53 2476.5C2338.71 2476.5 2343.69 2474.48 2347.4 2470.87C2351.12 2467.26 2353.28 2462.35 2353.43 2457.17V2457.17Z" fill="#35E166"/>
<path d="M2354.59 2427.17H2354.3L2056.89 2421.4C2055.36 2421.4 2053.89 2420.79 2052.81 2419.71C2051.73 2418.63 2051.12 2417.16 2051.12 2415.63C2051.19 2414.12 2051.82 2412.7 2052.89 2411.63C2053.96 2410.56 2055.38 2409.93 2056.89 2409.86H2057.18L2354.59 2415.63C2356.12 2415.77 2357.55 2416.46 2358.61 2417.57C2359.67 2418.69 2360.29 2420.15 2360.36 2421.69C2360.36 2422.43 2360.21 2423.17 2359.91 2423.85C2359.62 2424.54 2359.19 2425.16 2358.65 2425.67C2358.11 2426.18 2357.47 2426.58 2356.77 2426.84C2356.07 2427.09 2355.33 2427.21 2354.59 2427.17Z" fill="#282928"/>
<path d="M2199.39 2486.3C2197.86 2486.3 2196.4 2485.7 2195.31 2484.61C2194.23 2483.53 2193.62 2482.06 2193.62 2480.53V2363.71C2193.62 2362.18 2194.23 2360.71 2195.31 2359.63C2196.4 2358.54 2197.86 2357.94 2199.39 2357.94C2200.92 2357.94 2202.39 2358.54 2203.47 2359.63C2204.55 2360.71 2205.16 2362.18 2205.16 2363.71V2480.53C2205.16 2482.06 2204.55 2483.53 2203.47 2484.61C2202.39 2485.7 2200.92 2486.3 2199.39 2486.3Z" fill="#282928"/>
<path d="M2289.39 446.276C2298.04 447.719 2341.03 456.373 2337.85 508.297C2337.85 508.679 2337.7 509.046 2337.43 509.316C2337.16 509.587 2336.79 509.739 2336.41 509.739C2327.47 510.316 2276.41 510.604 2287.37 447.719C2287.54 447.311 2287.81 446.959 2288.17 446.703C2288.53 446.448 2288.95 446.3 2289.39 446.276V446.276Z" fill="#35E166"/>
<path d="M2206.32 1076C2210.07 1082.63 2227.95 1117.25 2190.45 1143.5C2190.17 1143.65 2189.85 1143.7 2189.54 1143.65C2189.22 1143.59 2188.94 1143.44 2188.72 1143.21C2183.24 1137.44 2154.97 1102.54 2204.3 1075.71C2204.45 1075.59 2204.62 1075.51 2204.8 1075.46C2204.99 1075.42 2205.18 1075.41 2205.37 1075.43C2205.55 1075.46 2205.73 1075.52 2205.9 1075.62C2206.06 1075.72 2206.2 1075.85 2206.32 1076V1076Z" fill="#35E166"/>
<path d="M2553.62 476.566C2559.11 485.508 2574.11 516.086 2536.03 549.259C2535.65 549.581 2535.2 549.816 2534.71 549.948C2534.23 550.08 2533.73 550.105 2533.23 550.023C2532.74 549.941 2532.27 549.753 2531.86 549.471C2531.44 549.19 2531.09 548.822 2530.84 548.394C2525.36 536.567 2511.22 498.778 2549.3 475.7C2549.99 475.255 2550.83 475.096 2551.64 475.258C2552.44 475.419 2553.16 475.888 2553.62 476.566V476.566Z" fill="#35E166"/>
<path d="M2166.22 645.607C2175.45 647.914 2209.2 660.318 2197.09 712.819C2197.02 713.197 2196.88 713.557 2196.66 713.873C2196.45 714.188 2196.16 714.452 2195.83 714.645C2195.5 714.838 2195.13 714.956 2194.75 714.989C2194.37 715.023 2193.98 714.971 2193.62 714.838C2182.09 710.8 2142.28 692.627 2163.05 647.049C2163.35 646.495 2163.82 646.055 2164.39 645.794C2164.96 645.534 2165.61 645.468 2166.22 645.607V645.607Z" fill="#35E166"/>
<path d="M2691.51 822.436C2690.65 828.205 2684.88 849.263 2652.28 844.647C2652.03 844.669 2651.78 844.625 2651.56 844.52C2651.33 844.415 2651.13 844.252 2650.99 844.049C2650.84 843.845 2650.75 843.607 2650.73 843.358C2650.7 843.109 2650.74 842.857 2650.84 842.628C2652.57 835.417 2661.51 810.32 2690.36 820.705C2690.55 820.739 2690.73 820.812 2690.9 820.918C2691.06 821.025 2691.2 821.163 2691.31 821.324C2691.41 821.486 2691.49 821.668 2691.52 821.859C2691.56 822.05 2691.56 822.246 2691.51 822.436V822.436Z" fill="#35E166"/>
<path d="M2298.91 824.167C2288.24 825.321 2259.68 832.532 2257.66 872.052C2257.66 873.151 2258.07 874.21 2258.82 875.014C2259.58 875.818 2260.6 876.306 2261.7 876.379C2274.1 875.802 2308.43 871.187 2303.24 827.628C2303.2 827.108 2303.06 826.601 2302.82 826.138C2302.58 825.676 2302.25 825.269 2301.84 824.943C2301.43 824.617 2300.96 824.38 2300.46 824.246C2299.95 824.113 2299.43 824.086 2298.91 824.167V824.167Z" fill="#35E166"/>
<path d="M2380.26 614.453C2379.4 621.376 2378.82 641.28 2404.49 649.645C2404.83 649.78 2405.2 649.841 2405.56 649.826C2405.93 649.81 2406.28 649.717 2406.61 649.554C2406.94 649.391 2407.22 649.16 2407.46 648.878C2407.69 648.595 2407.86 648.267 2407.95 647.915C2409.97 639.838 2412.86 616.472 2383.43 612.145C2383.07 612.061 2382.69 612.056 2382.33 612.13C2381.97 612.204 2381.62 612.356 2381.32 612.574C2381.02 612.793 2380.77 613.074 2380.59 613.398C2380.4 613.722 2380.29 614.082 2380.26 614.453Z" fill="#35E166"/>
<path d="M2602.66 1097.05C2597.18 1086.09 2578.14 1057.82 2534.01 1071.09C2532.8 1071.49 2531.79 1072.35 2531.19 1073.48C2530.6 1074.61 2530.47 1075.93 2530.84 1077.15C2536.03 1090.71 2555.07 1126.48 2600.64 1103.4C2601.2 1103.13 2601.7 1102.74 2602.11 1102.27C2602.51 1101.8 2602.82 1101.25 2603.01 1100.66C2603.2 1100.07 2603.26 1099.44 2603.2 1098.82C2603.14 1098.2 2602.96 1097.6 2602.66 1097.05V1097.05Z" fill="#35E166"/>
</svg>
